SplineFontDB: 3.2
FontName: FRBTaiwaneseKana
FullName: FRB Taiwanese Kana
FamilyName: FRBTaiwaneseKana
Weight: Regular
Copyright: Copyright (c) 2020, Fredrick R. Brennan <copypaste@kittens.ph>
UComments: "2020-7-10: Created with FontForge (http://fontforge.org)"
Version: 001.100
ItalicAngle: 0
UnderlinePosition: -100
UnderlineWidth: 50
Ascent: 800
Descent: 200
InvalidEm: 0
LayerCount: 2
Layer: 0 0 "Back" 1
Layer: 1 0 "Fore" 0
XUID: [1021 1008 1889163070 179170]
StyleMap: 0x0000
FSType: 0
OS2Version: 0
OS2_WeightWidthSlopeOnly: 0
OS2_UseTypoMetrics: 1
CreationTime: 1594380404
ModificationTime: 1597814559
OS2TypoAscent: 0
OS2TypoAOffset: 1
OS2TypoDescent: 0
OS2TypoDOffset: 1
OS2TypoLinegap: 90
OS2WinAscent: 0
OS2WinAOffset: 1
OS2WinDescent: 0
OS2WinDOffset: 1
HheadAscent: 0
HheadAOffset: 1
HheadDescent: 0
HheadDOffset: 1
OS2Vendor: 'PfEd'
Lookup: 1 0 0 "'salt' Stylistic Alternatives lookup 0" { "'salt' Stylistic Alternatives lookup 0-1"  } ['salt' ('DFLT' <'dflt' > 'kana' <'dflt' > 'latn' <'dflt' > ) ]
Lookup: 1 0 0 "'ruby' Ruby Notational Forms lookup 1" { "'ruby' Ruby Notational Forms lookup 1-1"  } ['ruby' ('DFLT' <'dflt' > 'bali' <'dflt' > 'kana' <'dflt' > ) ]
Lookup: 260 0 0 "'mark' Mark Positioning lookup 0" { "'mark' Mark Positioning lookup 0-1"  } ['mark' ('DFLT' <'dflt' > 'kana' <'dflt' > 'latn' <'dflt' > ) ]
MarkAttachClasses: 1
DEI: 91125
LangName: 1028 "" "" "" "" "+/yb/Mv8igfpwY4qeUEdUDQAA"
LangName: 1041 "" "" "" "" "+/yb/Mv8iU/BufoqeTu5UDQAA"

StartChar: uni30A1
Encoding: 6 12449 0
Width: 1000
Flags: W
HStem: 334 16<445 462.175> 395 73<262.16 366.865>
VStem: 502 81<248.736 317.287>
AnchorPoint: "overline" 500 800 basechar 0
AnchorPoint: "dot" 500 2 basechar 0
LayerCount: 2
Fore
SplineSet
225 503 m 1
 240 508 l 1
 257 483 267 468 289 468 c 0
 344 468 624 499 670 506 c 0
 691 508 699 521 714 521 c 0
 737 521 798 467 798 443 c 0
 798 422 763 418 746 406 c 0
 714 384 649 342 583 305 c 0
 583 301 582 297 580 291 c 0
 522 137 435 23 269 -58 c 1
 257 -42 l 1
 406 53 502 236 502 287 c 0
 502 311 474 323 442 334 c 1
 445 350 l 1
 465 350 480 351 495 349 c 0
 524 347 547 337 562 328 c 1
 617 367 672 415 692 447 c 0
 701 462 698 466 682 466 c 0
 647 466 439 432 356 414 c 0
 327 407 324 395 304 395 c 0
 282 395 245 427 234 453 c 0
 227 468 225 484 225 503 c 1
EndSplineSet
Substitution2: "'ruby' Ruby Notational Forms lookup 1-1" uni30A1.ruby
EndChar

StartChar: uni30A2
Encoding: 7 12450 1
Width: 1000
Flags: W
HStem: 467 22<433 457.069> 556 83<198.016 287.831> 644 63<700.929 797.5>
VStem: 509 88<364.344 439.018>
AnchorPoint: "overline" 500 800 basechar 0
AnchorPoint: "dot" 500 2 basechar 0
LayerCount: 2
Fore
SplineSet
143 688 m 1
 164 694 l 1
 184 664 198 639 227 639 c 0
 291 639 679 681 737 690 c 0
 758 693 767 707 784 707 c 0
 811 707 882 646 882 618 c 0
 882 595 842 591 820 574 c 0
 777 542 688 478 597 427 c 1
 597 422 596 417 594 411 c 0
 519 207 415 67 204 -41 c 1
 188 -20 l 1
 386 101 509 339 509 407 c 0
 509 437 472 452 428 467 c 1
 433 489 l 1
 462 489 479 489 497 485 c 0
 529 480 557 470 575 458 c 1
 652 512 733 580 762 621 c 0
 775 640 771 644 750 644 c 0
 702 644 418 604 306 582 c 0
 267 574 266 556 242 556 c 0
 217 556 171 596 156 627 c 0
 148 644 146 665 143 688 c 1
EndSplineSet
Substitution2: "'ruby' Ruby Notational Forms lookup 1-1" uni30A2.ruby
EndChar

StartChar: uni30A3
Encoding: 8 12451 2
Width: 1000
Flags: W
VStem: 498 74<-48.25 243.888> 515 56<46.4156 290.484> 602 86<463.667 523.517>
AnchorPoint: "overline" 500 800 basechar 0
AnchorPoint: "dot" 500 2 basechar 0
LayerCount: 2
Fore
SplineSet
558 549 m 1x60
 564 562 l 1
 581 562 598 562 617 555 c 0
 650 544 688 509 688 486 c 0
 688 468 674 469 653 448 c 0
 625 417 588 376 540 331 c 1
 562 316 579 303 579 291 c 0
 579 280 572 269 571 249 c 0x60
 567 140 572 27 572 -16 c 0
 572 -46 563 -58 543 -58 c 0
 514 -58 498 -21 498 9 c 0xa0
 498 22 505 37 507 63 c 0
 514 121 516 235 515 269 c 0
 514 282 512 291 507 301 c 1
 458 259 349 175 216 124 c 1
 206 142 l 1
 418 261 602 466 602 507 c 0
 602 523 580 539 558 549 c 1x60
EndSplineSet
Substitution2: "'ruby' Ruby Notational Forms lookup 1-1" uni30A3.ruby
EndChar

StartChar: uni30A4
Encoding: 9 12452 3
Width: 1000
Flags: W
VStem: 504 80<-27.4558 284.5> 525 61<166.524 416.39> 645 96<651.084 711.625>
AnchorPoint: "overline" 500 800 basechar 0
AnchorPoint: "dot" 500 2 basechar 0
LayerCount: 2
Fore
SplineSet
586 746 m 1x60
 593 765 l 1
 616 764 637 763 658 754 c 0
 697 741 741 697 741 671 c 0
 741 652 723 654 696 624 c 0
 659 583 610 529 544 466 c 1
 572 448 595 431 595 417 c 0
 595 404 586 390 586 365 c 0x60
 579 220 584 67 584 7 c 0
 584 -30 575 -42 554 -42 c 0
 521 -42 504 6 504 39 c 0xa0
 504 57 512 77 516 110 c 0
 524 178 528 345 525 390 c 0
 524 408 521 420 510 434 c 1
 447 379 310 269 135 197 c 1
 122 221 l 1
 375 362 548 545 618 644 c 0
 637 670 645 687 645 695 c 0
 645 711 628 725 586 746 c 1x60
EndSplineSet
Substitution2: "'ruby' Ruby Notational Forms lookup 1-1" uni30A4.ruby
EndChar

StartChar: uni30A5
Encoding: 10 12453 4
Width: 1000
Flags: W
HStem: 365 42<340.606 477.789> 392 57<654.056 716> 543 27<424.682 468.293>
VStem: 291 67<167.942 375.331> 480 77<421.987 534.542> 480 55<421 503.047>
AnchorPoint: "overline" 500 800 basechar 0
AnchorPoint: "dot" 500 2 basechar 0
LayerCount: 2
Fore
SplineSet
423 543 m 1xb4
 423 556 l 1
 441 564 457 570 475 570 c 0
 511 570 557 542 557 525 c 0xb8
 557 508 542 505 539 481 c 0
 537 466 535 442 535 421 c 1
 581 424 633 426 662 430 c 0
 677 433 690 449 703 449 c 0
 729 449 778 403 778 384 c 0
 778 368 751 358 744 341 c 0
 671 150 564 22 366 -67 c 1
 353 -53 l 1
 520 46 642 207 681 378 c 0
 684 390 682 392 671 392 c 0x74
 484 386 398 365 372 365 c 0
 361 365 353 369 340 377 c 1
 344 343 358 205 358 186 c 0
 358 167 350 158 334 157 c 0
 310 157 292 197 291 221 c 0
 291 229 295 243 295 257 c 0
 294 281 286 349 278 373 c 0
 270 403 251 421 231 443 c 1
 239 456 l 1
 263 448 289 439 309 426 c 0
 321 419 328 413 332 407 c 1
 375 409 433 413 480 417 c 1
 480 443 479 484 478 504 c 0
 477 521 477 526 464 532 c 0
 455 537 439 540 423 543 c 1xb4
EndSplineSet
Substitution2: "'ruby' Ruby Notational Forms lookup 1-1" uni30A5.ruby
EndChar

StartChar: uni30A6
Encoding: 11 12454 5
Width: 1000
Flags: W
HStem: 514 48<283.654 476.802> 548 66<714.314 784> 740 20<405 436.025>
VStem: 238 72<257.338 476.653> 478 88<671.835 730.388> 480 58<580 693.85>
AnchorPoint: "overline" 500 800 basechar 0
AnchorPoint: "dot" 500 -68 basechar 0
LayerCount: 2
Fore
SplineSet
405 740 m 1xb8
 404 760 l 1
 427 768 446 774 467 774 c 0
 509 774 566 739 566 719 c 0xb8
 566 700 545 694 543 664 c 0
 541 643 539 608 538 580 c 1
 603 584 677 588 718 593 c 0
 736 595 753 614 769 614 c 0
 799 614 853 560 853 537 c 0
 853 519 821 507 814 488 c 0
 724 250 579 68 332 -52 c 1
 315 -31 l 1
 529 96 693 311 744 532 c 0
 747 546 745 548 731 548 c 0x74
 466 540 357 514 321 514 c 0
 308 514 297 518 283 527 c 1
 287 483 310 297 310 279 c 0
 311 257 299 247 283 246 c 0
 256 244 235 294 234 323 c 0
 233 335 238 353 238 370 c 0
 238 403 225 484 217 514 c 0
 208 553 180 578 153 607 c 1
 165 624 l 1
 194 612 222 602 245 587 c 0
 260 577 269 570 274 562 c 1
 330 564 412 571 480 576 c 1xb4
 480 612 479 671 478 695 c 0
 477 717 476 723 460 729 c 0
 447 735 425 738 405 740 c 1xb8
EndSplineSet
Substitution2: "'ruby' Ruby Notational Forms lookup 1-1" uni30A6.ruby
EndChar

StartChar: uni30A7
Encoding: 12 12455 6
Width: 1000
Flags: W
HStem: 40 69<215.796 334.591> 91 52<531.016 735.531> 350 53<301.834 459.809> 391 67<594.159 715.477>
VStem: 469 57<133 293.283> 475 75<163.221 359.798>
AnchorPoint: "overline" 500 800 basechar 0
AnchorPoint: "dot" 500 2 basechar 0
LayerCount: 2
Fore
SplineSet
262 433 m 1xa4
 274 441 l 1
 299 420 323 403 352 403 c 0xa4
 386 403 450 410 520 421 c 0
 632 438 626 458 645 458 c 0
 678 458 727 439 727 419 c 0
 727 405 718 393 696 391 c 0
 666 388 580 380 506 372 c 1
 531 361 550 346 550 329 c 0x14
 550 315 543 299 540 281 c 0
 536 249 529 185 526 133 c 1
 581 137 635 141 679 143 c 0
 716 145 726 154 736 154 c 0
 770 154 835 123 835 94 c 0
 835 79 825 69 808 69 c 0
 785 69 726 89 641 91 c 0x58
 560 95 401 79 327 60 c 0
 296 52 279 40 260 40 c 0
 235 40 195 77 187 96 c 0
 182 108 180 120 178 141 c 1
 191 147 l 1
 209 126 228 109 255 109 c 0
 281 109 371 118 469 128 c 1x88
 473 182 475 259 475 295 c 0
 475 327 468 346 453 365 c 1
 402 358 364 350 344 350 c 0
 325 350 308 364 293 381 c 0
 282 394 269 413 262 433 c 1xa4
EndSplineSet
Substitution2: "'ruby' Ruby Notational Forms lookup 1-1" uni30A7.ruby
EndChar

StartChar: uni30A8
Encoding: 13 12456 7
Width: 1000
Flags: W
HStem: 96 76<137.564 252.788> 161 58<531.709 812.437> 499 59<245.657 450.14> 555 74<647.231 774.175>
VStem: 465 61<204 425.585> 473 84<338.42 505.872>
AnchorPoint: "overline" 500 800 basechar 0
AnchorPoint: "dot" 500 2 basechar 0
LayerCount: 2
Fore
SplineSet
190 598 m 1xa4
 207 609 l 1
 239 581 269 558 307 558 c 0xa4
 347 558 429 568 530 582 c 0
 686 604 671 629 698 629 c 0
 735 629 791 608 791 585 c 0
 791 570 782 559 754 555 c 0
 716 550 589 536 500 526 c 1
 531 512 557 495 557 476 c 0x14
 557 459 545 442 542 413 c 0
 537 370 530 275 526 204 c 1
 603 211 680 216 745 219 c 0
 788 221 801 230 813 230 c 0
 854 230 933 197 933 161 c 0
 933 144 922 135 903 135 c 0
 877 135 811 157 710 161 c 0x58
 601 167 365 146 262 120 c 0
 224 110 207 96 184 96 c 0
 154 96 107 140 96 162 c 0
 88 176 85 191 83 217 c 1
 102 225 l 1
 123 198 146 172 181 172 c 0
 210 172 330 185 465 198 c 1x88
 470 272 473 385 473 430 c 0
 473 470 463 493 441 519 c 1
 374 510 319 499 295 499 c 0
 272 499 252 514 233 532 c 0
 219 547 201 571 190 598 c 1xa4
EndSplineSet
Substitution2: "'ruby' Ruby Notational Forms lookup 1-1" uni30A8.ruby
EndChar

StartChar: uni30A9
Encoding: 14 12457 8
Width: 1000
Flags: W
HStem: 49 13<438.769 448.054> 305 64<268.127 391.457> 356 68<627.977 792.755>
VStem: 548 74<400.176 528.503> 550 53<45.5922 279 399 523.213>
AnchorPoint: "overline" 500 800 basechar 0
AnchorPoint: "dot" 500 2 basechar 0
LayerCount: 2
Fore
SplineSet
483 541 m 1xd0
 483 554 l 1
 498 558 519 566 541 566 c 0
 579 566 622 539 622 524 c 0xd0
 622 507 611 504 608 476 c 0
 605 455 603 424 603 399 c 1
 718 412 722 424 733 424 c 0
 763 424 809 400 809 378 c 0
 809 366 800 356 786 356 c 0
 754 356 698 363 603 355 c 1
 602 288 602 173 605 117 c 0
 607 76 610 54 610 30 c 0
 610 -5 584 -43 559 -43 c 0
 537 -43 536 -15 519 1 c 0
 498 19 464 34 436 49 c 1
 442 62 l 1
 474 56 511 47 534 45 c 0
 543 44 549 48 550 57 c 0
 553 86 551 189 550 279 c 1xa8
 477 176 335 63 198 7 c 1
 189 23 l 1
 321 105 454 233 516 346 c 1
 464 340 417 332 382 325 c 0
 348 317 330 305 308 305 c 0
 285 305 248 342 241 362 c 0
 237 373 236 392 236 407 c 1
 249 411 l 1
 267 384 282 369 305 369 c 0
 355 370 468 384 549 393 c 1
 549 429 548 474 548 501 c 0
 548 516 542 521 530 527 c 0
 516 534 500 538 483 541 c 1xd0
EndSplineSet
Substitution2: "'ruby' Ruby Notational Forms lookup 1-1" uni30A9.ruby
EndChar

StartChar: uni30AA
Encoding: 15 12458 9
Width: 1000
Flags: W
HStem: 95 18<428.889 441.036> 441 72<205.233 338.137> 506 76<715.669 880.452> 734 21<480 515.505>
VStem: 568 83<599.324 720.696> 571 57<88.2482 419 549 710.791>
AnchorPoint: "overline" 500 800 basechar 0
AnchorPoint: "dot" 500 2 basechar 0
LayerCount: 2
Fore
SplineSet
479 734 m 1xd8
 480 755 l 1
 498 761 526 770 553 770 c 0
 597 770 651 737 651 721 c 0xd8
 651 698 637 697 633 659 c 0
 630 630 628 585 628 549 c 1
 795 567 796 582 813 582 c 0
 849 582 902 557 902 531 c 0
 902 517 892 506 877 506 c 0
 832 506 755 513 628 503 c 1
 627 410 628 251 630 177 c 0
 632 116 638 93 638 68 c 0
 638 27 608 -17 579 -17 c 0
 553 -17 552 17 532 35 c 0
 504 59 459 77 424 95 c 1
 432 113 l 1
 472 103 523 91 550 87 c 0
 563 85 570 90 571 101 c 0
 575 143 573 300 571 419 c 1xb4
 479 281 289 126 116 49 c 1
 101 70 l 1
 267 173 452 344 534 493 c 1
 461 485 390 472 339 463 c 0
 296 455 277 441 248 441 c 0
 221 440 176 485 167 508 c 0
 161 523 160 547 160 564 c 1
 179 572 l 1
 202 533 221 512 247 513 c 0
 309 514 464 532 570 543 c 1
 570 596 569 656 568 691 c 0
 568 709 561 715 543 722 c 0
 525 729 502 732 479 734 c 1xd8
EndSplineSet
Substitution2: "'ruby' Ruby Notational Forms lookup 1-1" uni30AA.ruby
EndChar

StartChar: uni30AB
Encoding: 16 12459 10
Width: 1000
Flags: W
HStem: 420 79<196.685 292.818> 506 72<725.496 773.5> 734 21<426 474.773>
VStem: 508 95<668.463 720.464> 751 92<480.745 520.5>
AnchorPoint: "overline" 500 800 basechar 0
AnchorPoint: "dot" 500 2 basechar 0
LayerCount: 2
Fore
SplineSet
426 734 m 1
 426 755 l 1
 447 760 479 768 498 767 c 0
 536 766 603 730 603 705 c 0
 603 683 580 683 573 645 c 0
 568 619 560 574 550 533 c 1
 618 541 679 549 712 553 c 0
 739 556 747 578 763 578 c 0
 784 578 843 531 843 510 c 0
 843 488 818 491 814 463 c 0
 793 322 766 189 706 78 c 0
 681 29 636 2 601 2 c 0
 584 2 576 11 570 32 c 0
 560 69 528 86 471 128 c 1
 483 147 l 1
 525 128 576 105 596 98 c 0
 623 90 633 91 647 108 c 0
 711 187 751 431 751 495 c 0
 751 502 747 506 739 506 c 0
 689 506 601 494 539 485 c 1
 508 366 427 112 128 -44 c 1
 112 -24 l 1
 355 149 430 334 471 475 c 1
 407 464 319 448 291 441 c 0
 260 434 254 420 234 420 c 0
 208 420 168 469 160 492 c 0
 152 511 153 535 154 555 c 1
 174 560 l 1
 188 533 203 499 230 499 c 0
 263 499 373 511 483 525 c 1
 495 579 507 658 508 688 c 0
 508 707 505 714 490 720 c 0
 472 727 444 731 426 734 c 1
EndSplineSet
Substitution2: "'ruby' Ruby Notational Forms lookup 1-1" uni30AB.ruby
EndChar

StartChar: uni30AC
Encoding: 17 12460 11
Width: 1000
Flags: W
HStem: 414 79<168.685 264.818> 500 72<697.496 745.5> 728 21<398 446.773>
VStem: 480 95<662.463 714.464> 723 92<474.745 514.5>
AnchorPoint: "overline" 500 800 basechar 0
AnchorPoint: "dot" 500 2 basechar 0
LayerCount: 2
Fore
SplineSet
398 728 m 1
 398 749 l 1
 419 754 451 762 470 761 c 0
 508 760 575 724 575 699 c 0
 575 677 552 677 545 639 c 0
 540 613 532 568 522 527 c 1
 590 535 651 543 684 547 c 0
 711 550 719 572 735 572 c 0
 756 572 815 525 815 504 c 0
 815 482 790 485 786 457 c 0
 765 316 738 183 678 72 c 0
 653 23 608 -4 573 -4 c 0
 556 -4 548 5 542 26 c 0
 532 63 500 80 443 122 c 1
 455 141 l 1
 497 122 548 99 568 92 c 0
 595 84 605 85 619 102 c 0
 683 181 723 425 723 489 c 0
 723 496 719 500 711 500 c 0
 661 500 573 488 511 479 c 1
 480 360 399 106 100 -50 c 1
 84 -30 l 1
 327 143 402 328 443 469 c 1
 379 458 291 442 263 435 c 0
 232 428 226 414 206 414 c 0
 180 414 140 463 132 486 c 0
 124 505 125 529 126 549 c 1
 146 554 l 1
 160 527 175 493 202 493 c 0
 235 493 345 505 455 519 c 1
 467 573 479 652 480 682 c 0
 480 701 477 708 462 714 c 0
 444 721 416 725 398 728 c 1
716 699 m 1
 729 716 l 1
 781 696 819 673 844 650 c 0
 869 627 879 610 879 590 c 0
 879 573 869 564 855 564 c 0
 838 564 827 587 807 611 c 0
 787 637 760 668 716 699 c 1
804 764 m 1
 817 782 l 1
 868 763 907 744 931 724 c 0
 957 702 968 682 968 662 c 0
 968 645 959 636 944 636 c 0
 927 636 918 660 896 684 c 0
 874 709 850 733 804 764 c 1
EndSplineSet
Substitution2: "'ruby' Ruby Notational Forms lookup 1-1" uni30AC.ruby
EndChar

StartChar: uni30AD
Encoding: 18 12461 12
Width: 1000
Flags: W
HStem: 191 70<165.859 270.987> 350 63<742.994 890.502> 438 64<212.088 319.436> 554 62<636.041 762.266> 717 21<324 350.656>
AnchorPoint: "overline" 500 800 basechar 0
AnchorPoint: "dot" 500 2 basechar 0
LayerCount: 2
Fore
SplineSet
324 717 m 1
 321 738 l 1
 347 748 383 758 399 758 c 0
 442 758 497 734 498 713 c 0
 499 694 484 687 487 656 c 0
 491 624 496 599 504 557 c 1
 547 568 587 579 623 590 c 0
 665 604 681 615 690 616 c 0
 719 618 765 609 765 585 c 0
 765 568 750 559 725 554 c 0
 670 543 575 523 514 509 c 1
 526 452 538 395 549 342 c 1
 628 360 734 388 768 399 c 0
 796 407 801 412 810 413 c 0
 855 416 896 400 896 378 c 0
 896 365 890 352 864 350 c 0
 773 341 711 330 560 295 c 1
 581 201 599 122 609 83 c 0
 620 38 628 15 628 -11 c 0
 628 -26 621 -42 601 -42 c 0
 580 -42 557 -11 551 15 c 0
 546 32 539 94 529 150 c 0
 523 185 515 232 505 282 c 1
 434 264 341 238 288 219 c 0
 251 206 241 191 219 191 c 0
 198 190 156 215 140 235 c 0
 132 245 127 261 121 283 c 1
 138 294 l 1
 164 271 179 261 194 261 c 0
 223 261 396 302 496 328 c 1
 483 393 470 457 461 496 c 1
 407 484 354 470 315 458 c 0
 287 449 281 438 263 438 c 0
 243 438 199 464 185 484 c 0
 176 496 173 507 169 528 c 1
 186 536 l 1
 202 520 216 502 239 502 c 0
 261 502 368 525 450 544 c 1
 436 605 421 672 410 692 c 0
 399 713 359 711 324 717 c 1
EndSplineSet
Substitution2: "'ruby' Ruby Notational Forms lookup 1-1" uni30AD.ruby
EndChar

StartChar: uni30AE
Encoding: 19 12462 13
Width: 1000
Flags: W
HStem: 187 70<143.859 248.987> 346 63<720.994 868.502> 434 64<190.088 297.436> 550 62<614.041 740.266> 713 21<302 328.656>
AnchorPoint: "overline" 500 800 basechar 0
AnchorPoint: "dot" 500 2 basechar 0
LayerCount: 2
Fore
SplineSet
703 704 m 1
 717 721 l 1
 767 699 804 675 828 650 c 0
 852 626 862 609 861 589 c 0
 860 573 850 563 836 564 c 0
 820 565 810 587 792 613 c 0
 772 639 745 672 703 704 c 1
302 713 m 1
 299 734 l 1
 325 744 361 754 377 754 c 0
 420 754 475 730 476 709 c 0
 477 690 462 683 465 652 c 0
 469 620 474 595 482 553 c 1
 525 564 565 575 601 586 c 0
 643 600 659 611 668 612 c 0
 697 614 743 605 743 581 c 0
 743 564 728 555 703 550 c 0
 648 539 553 519 492 505 c 1
 504 448 516 391 527 338 c 1
 606 356 712 384 746 395 c 0
 774 403 779 408 788 409 c 0
 833 412 874 396 874 374 c 0
 874 361 868 348 842 346 c 0
 751 337 689 326 538 291 c 1
 559 197 577 118 587 79 c 0
 598 34 606 11 606 -15 c 0
 606 -30 599 -46 579 -46 c 0
 558 -46 535 -15 529 11 c 0
 524 28 517 90 507 146 c 0
 501 181 493 228 483 278 c 1
 412 260 319 234 266 215 c 0
 229 202 219 187 197 187 c 0
 176 186 134 211 118 231 c 0
 110 241 105 257 99 279 c 1
 116 290 l 1
 142 267 157 257 172 257 c 0
 201 257 374 298 474 324 c 1
 461 389 448 453 439 492 c 1
 385 480 332 466 293 454 c 0
 265 445 259 434 241 434 c 0
 221 434 177 460 163 480 c 0
 154 492 151 503 147 524 c 1
 164 532 l 1
 180 516 194 498 217 498 c 0
 239 498 346 521 428 540 c 1
 414 601 399 668 388 688 c 0
 377 709 337 707 302 713 c 1
791 768 m 1
 804 784 l 1
 854 764 892 743 916 722 c 0
 940 698 950 679 949 658 c 0
 949 641 940 633 926 633 c 0
 910 634 901 658 880 683 c 0
 859 710 835 734 791 768 c 1
EndSplineSet
Substitution2: "'ruby' Ruby Notational Forms lookup 1-1" uni30AE.ruby
EndChar

StartChar: uni30AF
Encoding: 20 12463 14
Width: 1000
Flags: W
HStem: 545 58<482.38 607.799> 581 64<710.143 763> 752 19<393 407.767>
VStem: 449 96<670.602 731.607>
AnchorPoint: "overline" 500 800 basechar 0
AnchorPoint: "dot" 500 2 basechar 0
LayerCount: 2
Fore
SplineSet
388 752 m 1xb0
 393 771 l 1
 411 771 431 771 453 767 c 0
 492 758 545 728 545 710 c 0
 545 693 531 683 516 658 c 0
 505 640 494 621 482 604 c 1
 489 603 495 603 501 603 c 0xb0
 549 603 672 617 700 622 c 0
 727 628 734 645 751 645 c 0
 775 645 838 604 838 578 c 0
 838 558 805 552 791 526 c 0
 654 277 451 71 169 -46 c 1
 154 -24 l 1
 411 110 646 368 724 566 c 0
 729 578 725 581 716 581 c 0x70
 694 581 592 565 556 558 c 0
 535 553 514 545 500 545 c 0
 489 545 473 555 457 569 c 1
 378 463 278 373 161 309 c 1
 146 330 l 1
 302 442 449 646 449 704 c 0
 449 721 423 737 388 752 c 1xb0
EndSplineSet
Substitution2: "'ruby' Ruby Notational Forms lookup 1-1" uni30AF.ruby
EndChar

StartChar: uni30B0
Encoding: 21 12464 15
Width: 1000
Flags: W
HStem: 531 58<469.38 594.799> 567 64<697.143 750> 738 19<380 394.767>
VStem: 436 96<656.602 717.607>
AnchorPoint: "overline" 500 800 basechar 0
AnchorPoint: "dot" 500 2 basechar 0
LayerCount: 2
Fore
SplineSet
375 738 m 1xb0
 380 757 l 1
 398 757 418 757 440 753 c 0
 479 744 532 714 532 696 c 0
 532 679 518 669 503 644 c 0
 492 626 481 607 469 590 c 1
 476 589 482 589 488 589 c 0xb0
 536 589 659 603 687 608 c 0
 714 614 721 631 738 631 c 0
 762 631 825 590 825 564 c 0
 825 544 792 538 778 512 c 0
 641 263 438 57 156 -60 c 1
 141 -38 l 1
 398 96 633 354 711 552 c 0
 716 564 712 567 703 567 c 0x70
 681 567 579 551 543 544 c 0
 522 539 501 531 487 531 c 0
 476 531 460 541 444 555 c 1
 365 449 265 359 148 295 c 1
 133 316 l 1
 289 428 436 632 436 690 c 0
 436 707 410 723 375 738 c 1xb0
742 729 m 1
 755 745 l 1
 807 725 845 703 870 680 c 0
 895 656 904 639 904 619 c 0
 904 603 895 593 880 593 c 0
 866 593 854 615 834 641 c 0
 813 666 786 697 742 729 c 1
829 791 m 1
 841 808 l 1
 893 790 930 768 955 750 c 0
 982 729 993 709 993 688 c 0
 993 671 984 662 970 662 c 0
 953 662 943 685 921 710 c 0
 899 735 875 758 829 791 c 1
EndSplineSet
Substitution2: "'ruby' Ruby Notational Forms lookup 1-1" uni30B0.ruby
EndChar

StartChar: uni30B1
Encoding: 22 12465 16
Width: 1000
Flags: W
HStem: 466 56<364.468 530.787> 507 74<726.088 875.336>
VStem: 376 95<664.373 725.551> 551 89<393.228 461.684>
AnchorPoint: "overline" 500 800 basechar 0
AnchorPoint: "dot" 500 2 basechar 0
LayerCount: 2
Fore
SplineSet
330 761 m 1xb0
 340 777 l 1
 366 773 392 765 408 756 c 0
 436 742 471 710 471 692 c 0
 471 674 450 669 438 649 c 0
 416 607 392 567 364 528 c 1
 378 524 389 522 401 522 c 0xb0
 458 522 687 553 742 562 c 0
 786 568 792 581 811 581 c 0
 845 581 892 559 892 534 c 0
 892 517 887 507 853 507 c 0x70
 823 507 761 508 715 505 c 0
 681 503 624 497 569 490 c 1
 610 473 640 448 640 431 c 0
 640 414 623 407 615 385 c 0
 556 228 439 74 241 -33 c 1
 223 -14 l 1
 418 116 551 338 551 436 c 0
 551 456 537 471 517 484 c 1
 495 481 475 478 460 476 c 0
 435 473 411 466 392 466 c 0
 378 466 358 480 341 495 c 1
 286 422 217 354 121 290 c 1
 104 309 l 1
 263 442 376 638 376 699 c 0
 376 721 360 737 330 761 c 1xb0
EndSplineSet
Substitution2: "'ruby' Ruby Notational Forms lookup 1-1" uni30B1.ruby
EndChar

StartChar: uni30B2
Encoding: 23 12466 17
Width: 1000
Flags: W
HStem: 454 56<342.468 508.787> 495 74<704.088 853.336>
VStem: 354 95<652.373 713.551> 529 89<381.228 449.684>
AnchorPoint: "overline" 500 800 basechar 0
AnchorPoint: "dot" 500 2 basechar 0
LayerCount: 2
Fore
SplineSet
698 733 m 1x30
 712 750 l 1
 761 730 797 707 821 685 c 0
 847 662 858 644 858 623 c 0
 858 607 848 598 833 598 c 0
 817 598 806 620 787 645 c 0
 765 672 740 701 698 733 c 1x30
308 749 m 1
 318 765 l 1
 344 761 370 753 386 744 c 0
 414 730 449 698 449 680 c 0
 449 662 428 657 416 637 c 0
 394 595 370 555 342 516 c 1
 356 512 367 510 379 510 c 0xb0
 436 510 665 541 720 550 c 0
 764 556 770 569 789 569 c 0
 823 569 870 547 870 522 c 0
 870 505 865 495 831 495 c 0x70
 801 495 739 496 693 493 c 0
 659 491 602 485 547 478 c 1
 588 461 618 436 618 419 c 0
 618 402 601 395 593 373 c 0
 534 216 417 62 219 -45 c 1
 201 -26 l 1
 396 104 529 326 529 424 c 0
 529 444 515 459 495 472 c 1
 473 469 453 466 438 464 c 0
 413 461 389 454 370 454 c 0xb0
 356 454 336 468 319 483 c 1
 264 410 195 342 99 278 c 1
 82 297 l 1
 241 430 354 626 354 687 c 0
 354 709 338 725 308 749 c 1
790 791 m 1
 802 808 l 1
 854 790 891 771 915 750 c 0
 941 728 951 709 951 688 c 0
 951 672 941 663 928 663 c 0
 911 663 901 686 879 711 c 0
 857 735 835 758 790 791 c 1
EndSplineSet
Substitution2: "'ruby' Ruby Notational Forms lookup 1-1" uni30B2.ruby
EndChar

StartChar: uni30B3
Encoding: 24 12467 18
Width: 1000
Flags: W
HStem: 90 75<221.272 342.531> 477 77<236.643 341.451> 543 71<686.003 748>
AnchorPoint: "overline" 500 800 basechar 0
AnchorPoint: "dot" 500 2 basechar 0
LayerCount: 2
Fore
SplineSet
188 603 m 1xc0
 208 610 l 1
 228 586 244 554 279 554 c 0xc0
 330 554 612 582 674 590 c 0
 709 594 716 614 735 614 c 0
 761 614 828 567 828 542 c 0
 828 521 803 512 797 485 c 0
 787 441 766 317 745 201 c 1
 778 196 805 175 805 154 c 0
 805 138 794 132 766 132 c 0
 736 132 693 141 618 141 c 0
 533 141 414 126 355 114 c 0
 302 104 289 90 267 90 c 0
 239 90 195 130 182 156 c 0
 173 172 166 201 165 213 c 1
 184 224 l 1
 206 198 231 165 270 165 c 0
 309 165 574 193 684 201 c 1
 701 321 722 475 726 532 c 0
 727 540 724 543 716 543 c 0xa0
 673 543 413 513 342 499 c 0
 319 494 296 477 278 477 c 0
 251 477 205 525 197 550 c 0
 192 562 188 588 188 603 c 1xc0
EndSplineSet
Substitution2: "'ruby' Ruby Notational Forms lookup 1-1" uni30B3.ruby
EndChar

StartChar: uni30B4
Encoding: 25 12468 19
Width: 1000
Flags: W
HStem: 64 75<193.272 314.531> 451 77<208.643 313.451> 517 71<658.003 720>
AnchorPoint: "overline" 500 800 basechar 0
AnchorPoint: "dot" 500 2 basechar 0
LayerCount: 2
Fore
SplineSet
160 577 m 1xc0
 180 584 l 1
 200 560 216 528 251 528 c 0xc0
 302 528 584 556 646 564 c 0
 681 568 688 588 707 588 c 0
 733 588 800 541 800 516 c 0
 800 495 775 486 769 459 c 0
 759 415 738 291 717 175 c 1
 750 170 777 149 777 128 c 0
 777 112 766 106 738 106 c 0
 708 106 665 115 590 115 c 0
 505 115 386 100 327 88 c 0
 274 78 261 64 239 64 c 0
 211 64 167 104 154 130 c 0
 145 146 138 175 137 187 c 1
 156 198 l 1
 178 172 203 139 242 139 c 0
 281 139 546 167 656 175 c 1
 673 295 694 449 698 506 c 0
 699 514 696 517 688 517 c 0xa0
 645 517 385 487 314 473 c 0
 291 468 268 451 250 451 c 0
 223 451 177 499 169 524 c 0
 164 536 160 562 160 577 c 1xc0
718 696 m 1
 731 713 l 1
 783 693 820 670 846 646 c 0
 870 624 880 606 880 587 c 0
 880 570 871 561 856 561 c 0
 842 561 829 583 810 608 c 0
 789 634 762 664 718 696 c 1
808 768 m 1
 821 786 l 1
 872 767 911 748 935 727 c 0
 962 705 972 686 972 665 c 0
 972 649 964 640 949 640 c 0
 932 640 923 664 901 688 c 0
 879 713 855 737 808 768 c 1
EndSplineSet
Substitution2: "'ruby' Ruby Notational Forms lookup 1-1" uni30B4.ruby
EndChar

StartChar: uni30B5
Encoding: 26 12469 20
Width: 1000
Flags: W
HStem: 396 70<115.985 230.426> 468 64<675.952 895.902> 468 47<443.228 611 673 821.977>
VStem: 329 70<205.914 432.087> 345 54<269.59 437 489 644.03> 611 61<252.022 462 515 691.42>
AnchorPoint: "overline" 500 800 basechar 0
AnchorPoint: "dot" 610 2 basechar 0
LayerCount: 2
Fore
SplineSet
536 733 m 1xcc
 536 754 l 1
 557 761 578 767 596 767 c 0
 642 767 697 726 697 704 c 0
 697 683 679 688 677 647 c 0
 676 610 674 558 673 515 c 1xac
 791 525 801 532 823 532 c 0
 863 532 918 513 918 482 c 0
 918 465 911 459 893 459 c 0
 869 459 832 468 757 468 c 0
 732 468 703 467 672 466 c 1
 668 342 664 217 599 129 c 0
 555 66 466 -1 344 -45 c 1
 330 -22 l 1
 408 15 495 69 550 155 c 0
 599 232 610 346 611 462 c 1
 539 457 462 450 399 443 c 1xcc
 398 363 399 281 399 252 c 0
 399 212 391 197 370 197 c 0
 344 197 329 240 329 268 c 0xd4
 329 302 343 331 345 437 c 1
 294 431 254 424 224 416 c 0
 198 410 176 396 154 396 c 0
 129 396 88 443 78 465 c 0
 73 477 71 503 72 520 c 1
 90 526 l 1
 108 497 126 466 151 466 c 0
 189 466 285 477 345 484 c 1
 345 535 344 613 338 637 c 0
 333 657 310 663 268 669 c 1
 268 689 l 1
 285 695 307 700 324 700 c 0
 356 700 416 672 416 645 c 0
 416 624 404 623 402 591 c 0
 400 573 399 533 399 489 c 1
 463 495 545 503 611 510 c 1
 612 600 612 662 608 701 c 0
 605 722 579 727 536 733 c 1xcc
EndSplineSet
Substitution2: "'ruby' Ruby Notational Forms lookup 1-1" uni30B5.ruby
EndChar

StartChar: uni30B6
Encoding: 27 12470 21
Width: 1000
Flags: W
HStem: 388 70<98.9846 213.426> 460 64<658.952 878.902> 460 47<426.228 594 656 804.977>
VStem: 312 70<197.914 424.087> 328 54<261.59 429 481 636.03> 594 61<244.022 454 507 683.42>
AnchorPoint: "overline" 500 800 basechar 0
AnchorPoint: "dot" 600 2 basechar 0
LayerCount: 2
Fore
SplineSet
720 726 m 1x84
 734 743 l 1
 783 721 819 696 842 671 c 0
 866 646 874 631 874 611 c 0
 873 596 863 586 849 587 c 0
 833 588 823 609 804 635 c 0
 785 661 761 694 720 726 c 1x84
519 725 m 1
 519 746 l 1
 540 753 561 759 579 759 c 0
 625 759 680 718 680 696 c 0
 680 675 662 680 660 639 c 0
 659 602 657 550 656 507 c 1xac
 774 517 784 524 806 524 c 0
 846 524 901 505 901 474 c 0
 901 457 894 451 876 451 c 0
 852 451 815 460 740 460 c 0
 715 460 686 459 655 458 c 1
 651 334 647 209 582 121 c 0
 538 58 449 -9 327 -53 c 1
 313 -30 l 1
 391 7 478 61 533 147 c 0
 582 224 593 338 594 454 c 1
 522 449 445 442 382 435 c 1xcc
 381 355 382 273 382 244 c 0
 382 204 374 189 353 189 c 0
 327 189 312 232 312 260 c 0xd4
 312 294 326 323 328 429 c 1
 277 423 237 416 207 408 c 0
 181 402 159 388 137 388 c 0
 112 388 71 435 61 457 c 0
 56 469 54 495 55 512 c 1
 73 518 l 1
 91 489 109 458 134 458 c 0
 172 458 268 469 328 476 c 1
 328 527 327 605 321 629 c 0
 316 649 293 655 251 661 c 1
 251 681 l 1
 268 687 290 692 307 692 c 0
 339 692 399 664 399 637 c 0
 399 616 387 615 385 583 c 0
 383 565 382 525 382 481 c 1xcc
 446 487 528 495 594 502 c 1
 595 592 595 654 591 693 c 0
 588 714 562 719 519 725 c 1
801 801 m 1
 814 818 l 1
 865 798 900 778 924 754 c 0
 948 732 958 714 957 694 c 0
 957 678 947 669 932 669 c 0
 917 670 907 692 887 717 c 0
 865 742 844 769 801 801 c 1
EndSplineSet
Substitution2: "'ruby' Ruby Notational Forms lookup 1-1" uni30B6.ruby
EndChar

StartChar: uni30B7
Encoding: 28 12471 22
Width: 1000
Flags: W
HStem: 4 84<246.25 338.186> 498 22<150.818 163.147> 690 23<285.652 297.105>
AnchorPoint: "overline" 500 800 basechar 0
AnchorPoint: "dot" 500 2 basechar 0
LayerCount: 2
Fore
SplineSet
383 618 m 0
 349 647 307 675 278 690 c 1
 289 713 l 1
 327 703 372 688 415 670 c 0
 483 636 513 603 513 568 c 0
 513 550 502 535 484 535 c 0
 456 535 436 575 383 618 c 0
272 88 m 0
 340 88 702 304 882 554 c 1
 905 539 l 1
 791 339 580 164 359 42 c 0
 339 30 328 4 302 4 c 0
 271 4 208 46 186 78 c 0
 174 94 165 130 164 145 c 1
 180 154 l 1
 207 122 238 88 272 88 c 0
258 423 m 0
 220 453 186 476 144 498 c 1
 154 520 l 1
 205 507 242 496 288 478 c 0
 349 453 386 417 386 379 c 0
 386 363 376 348 357 348 c 0
 326 348 310 384 258 423 c 0
EndSplineSet
Substitution2: "'ruby' Ruby Notational Forms lookup 1-1" uni30B7.ruby
EndChar

StartChar: uni30B8
Encoding: 29 12472 23
Width: 1000
Flags: W
HStem: -14 84<232.25 324.186> 480 22<136.818 149.147> 672 23<271.652 283.105>
AnchorPoint: "overline" 500 800 basechar 0
AnchorPoint: "dot" 500 2 basechar 0
LayerCount: 2
Fore
SplineSet
804 574 m 0
 788 574 778 594 758 619 c 0
 736 646 709 679 667 711 c 1
 680 729 l 1
 731 707 771 684 795 661 c 0
 819 636 829 619 829 600 c 0
 829 583 818 574 804 574 c 0
908 651 m 0
 892 651 881 673 859 698 c 0
 837 723 813 748 769 782 c 1
 781 799 l 1
 832 780 871 759 896 738 c 0
 921 716 932 698 932 677 c 0
 932 661 923 651 908 651 c 0
369 600 m 0
 335 629 293 657 264 672 c 1
 275 695 l 1
 313 685 358 670 401 652 c 0
 469 618 499 585 499 550 c 0
 499 532 488 517 470 517 c 0
 442 517 422 557 369 600 c 0
258 70 m 0
 326 70 688 286 868 536 c 1
 891 521 l 1
 777 321 566 146 345 24 c 0
 325 12 314 -14 288 -14 c 0
 257 -14 194 28 172 60 c 0
 160 76 151 112 150 127 c 1
 166 136 l 1
 193 104 224 70 258 70 c 0
244 405 m 0
 206 435 172 458 130 480 c 1
 140 502 l 1
 191 489 228 478 274 460 c 0
 335 435 372 399 372 361 c 0
 372 345 362 330 343 330 c 0
 312 330 296 366 244 405 c 0
EndSplineSet
Substitution2: "'ruby' Ruby Notational Forms lookup 1-1" uni30B8.ruby
EndChar

StartChar: uni30B9
Encoding: 30 12473 24
Width: 1000
Flags: W
HStem: 533 79<271.009 358.99>
AnchorPoint: "overline" 500 800 basechar 0
AnchorPoint: "dot" 500 2 basechar 0
LayerCount: 2
Fore
SplineSet
219 663 m 1
 240 672 l 1
 257 648 276 612 309 612 c 0
 364 612 561 647 616 661 c 0
 637 667 649 686 663 686 c 0
 693 686 758 634 758 612 c 0
 758 592 728 584 715 564 c 0
 681 510 622 418 549 337 c 1
 710 264 874 153 874 70 c 0
 874 50 863 33 840 33 c 0
 813 33 799 65 746 125 c 0
 679 200 615 259 525 312 c 1
 433 215 291 93 101 17 c 1
 86 42 l 1
 321 164 557 399 650 604 c 0
 655 617 649 619 638 618 c 0
 567 607 428 573 373 559 c 0
 342 551 338 533 314 533 c 0
 285 533 245 576 233 602 c 0
 227 614 221 635 219 663 c 1
EndSplineSet
Substitution2: "'ruby' Ruby Notational Forms lookup 1-1" uni30B9.ruby
EndChar

StartChar: uni30BA
Encoding: 31 12474 25
Width: 1000
Flags: W
HStem: 510 79<255.009 342.99>
AnchorPoint: "overline" 500 800 basechar 0
AnchorPoint: "dot" 500 2 basechar 0
LayerCount: 2
Fore
SplineSet
690 737 m 1
 704 755 l 1
 754 735 793 712 818 689 c 0
 842 667 852 648 852 628 c 0
 852 612 841 603 827 603 c 0
 811 603 800 625 781 651 c 0
 760 679 734 707 690 737 c 1
203 640 m 1
 224 649 l 1
 241 625 260 589 293 589 c 0
 348 589 545 624 600 638 c 0
 621 644 633 663 647 663 c 0
 677 663 742 611 742 589 c 0
 742 569 712 561 699 541 c 0
 665 487 606 395 533 314 c 1
 694 241 858 130 858 47 c 0
 858 27 847 10 824 10 c 0
 797 10 783 42 730 102 c 0
 663 177 599 236 509 289 c 1
 417 192 275 70 85 -6 c 1
 70 19 l 1
 305 141 541 376 634 581 c 0
 639 594 633 596 622 595 c 0
 551 584 412 550 357 536 c 0
 326 528 322 510 298 510 c 0
 269 510 229 553 217 579 c 0
 211 591 205 612 203 640 c 1
779 801 m 1
 791 818 l 1
 842 800 880 780 905 760 c 0
 931 738 941 719 941 698 c 0
 941 681 932 672 917 672 c 0
 901 672 890 695 869 720 c 0
 848 745 823 769 779 801 c 1
EndSplineSet
Substitution2: "'ruby' Ruby Notational Forms lookup 1-1" uni30BA.ruby
EndChar

StartChar: uni30BB
Encoding: 32 12475 26
Width: 1000
Flags: W
HStem: 30 64<454.386 802.774> 318 78<122.116 215.402> 718 19<310 344.856>
VStem: 388 58<105.068 405> 389 95<635.463 705.75>
AnchorPoint: "overline" 500 800 basechar 0
AnchorPoint: "dot" 500 2 basechar 0
LayerCount: 2
Fore
SplineSet
622 288 m 1xe8
 605 305 l 1
 668 370 724 441 755 496 c 0
 762 508 758 515 744 513 c 0
 689 504 536 455 446 425 c 1
 442 337 439 243 440 184 c 0
 442 102 452 94 574 94 c 0
 713 94 759 116 782 116 c 0
 809 116 849 104 849 78 c 0
 849 60 830 51 803 47 c 0
 758 38 670 30 604 30 c 0
 447 30 387 39 385 171 c 0
 383 240 386 339 388 405 c 1xf0
 340 389 275 366 233 348 c 0
 197 332 196 318 168 318 c 0
 145 318 90 359 77 387 c 0
 70 401 70 421 71 440 c 1
 87 446 l 1
 107 416 123 396 148 396 c 0
 183 396 321 437 389 458 c 1
 391 540 394 640 391 680 c 0
 389 705 359 711 310 718 c 1
 309 737 l 1
 336 746 362 750 383 750 c 0
 419 750 484 712 484 690 c 0
 484 667 464 655 460 625 c 0
 456 596 452 540 448 475 c 1
 534 500 661 535 720 552 c 0
 749 560 756 578 771 578 c 0
 800 578 868 524 868 500 c 0
 868 479 839 476 816 453 c 0
 774 411 703 342 622 288 c 1xe8
EndSplineSet
Substitution2: "'ruby' Ruby Notational Forms lookup 1-1" uni30BB.ruby
EndChar

StartChar: uni30BC
Encoding: 33 12476 27
Width: 1000
Flags: W
HStem: 16 64<439.386 787.774> 304 78<107.116 200.402> 704 19<295 329.856>
VStem: 373 58<91.0682 391> 374 95<621.463 691.75>
AnchorPoint: "overline" 500 800 basechar 0
AnchorPoint: "dot" 500 2 basechar 0
LayerCount: 2
Fore
SplineSet
295 704 m 1xe8
 294 723 l 1
 321 732 347 736 368 736 c 0
 404 736 469 698 469 676 c 0xe8
 469 653 449 641 445 611 c 0
 441 582 437 526 433 461 c 1
 519 486 646 521 705 538 c 0
 734 546 741 564 756 564 c 0
 785 564 853 510 853 486 c 0
 853 465 824 462 801 439 c 0
 759 397 688 328 607 274 c 1
 590 291 l 1
 653 356 709 427 740 482 c 0
 747 494 743 501 729 499 c 0
 674 490 521 441 431 411 c 1
 427 323 424 229 425 170 c 0
 427 88 437 80 559 80 c 0
 698 80 744 102 767 102 c 0
 794 102 834 90 834 64 c 0
 834 46 815 37 788 33 c 0
 743 24 655 16 589 16 c 0
 432 16 372 25 370 157 c 0
 368 226 371 325 373 391 c 1xf0
 325 375 260 352 218 334 c 0
 182 318 181 304 153 304 c 0
 130 304 75 345 62 373 c 0
 55 387 55 407 56 426 c 1
 72 432 l 1
 92 402 108 382 133 382 c 0
 168 382 306 423 374 444 c 1
 376 526 379 626 376 666 c 0
 374 691 344 697 295 704 c 1xe8
705 710 m 1
 719 728 l 1
 769 707 807 684 833 662 c 0
 858 638 867 621 867 602 c 0
 867 585 859 575 843 575 c 0
 828 575 817 598 797 623 c 0
 776 648 748 679 705 710 c 1
793 774 m 1
 805 791 l 1
 857 773 895 752 920 733 c 0
 946 711 957 691 957 671 c 0
 957 654 948 645 933 645 c 0
 918 645 907 669 885 693 c 0
 864 718 838 741 793 774 c 1
EndSplineSet
Substitution2: "'ruby' Ruby Notational Forms lookup 1-1" uni30BC.ruby
EndChar

StartChar: uni30BD
Encoding: 34 12477 28
Width: 1000
Flags: W
HStem: 690 22<682 702.983>
AnchorPoint: "overline" 500 800 basechar 0
AnchorPoint: "dot" 500 2 basechar 0
LayerCount: 2
Fore
SplineSet
804 564 m 0
 696 312 511 90 235 -30 c 1
 219 -8 l 1
 501 150 696 436 742 620 c 0
 750 651 746 666 674 690 c 1
 682 712 l 1
 701 713 725 714 747 710 c 0
 790 703 847 650 847 623 c 0
 847 602 818 597 804 564 c 0
283 524 m 0
 251 571 216 609 176 646 c 1
 191 666 l 1
 293 618 405 527 407 454 c 0
 407 429 393 410 372 410 c 0
 341 409 327 459 283 524 c 0
EndSplineSet
Substitution2: "'ruby' Ruby Notational Forms lookup 1-1" uni30BD.ruby
EndChar

StartChar: uni30BE
Encoding: 35 12478 29
Width: 1000
Flags: W
HStem: 639 23<642 662.519>
AnchorPoint: "overline" 500 800 basechar 0
AnchorPoint: "dot" 500 2 basechar 0
LayerCount: 2
Fore
SplineSet
861 624 m 0
 845 624 835 647 814 672 c 0
 793 698 766 728 723 760 c 1
 735 777 l 1
 787 756 825 734 850 710 c 0
 875 688 885 671 885 650 c 0
 885 633 876 624 861 624 c 0
951 693 m 0
 935 693 925 716 904 740 c 0
 881 766 857 790 811 821 c 1
 823 838 l 1
 875 820 914 801 937 781 c 0
 965 758 975 740 975 719 c 0
 975 702 967 693 951 693 c 0
762 514 m 0
 654 261 477 63 201 -58 c 1
 185 -36 l 1
 468 122 657 385 700 570 c 0
 707 596 713 612 634 639 c 1
 642 662 l 1
 661 663 683 664 706 660 c 0
 748 653 806 600 806 572 c 0
 806 552 776 547 762 514 c 0
250 496 m 0
 218 544 183 582 143 618 c 1
 159 638 l 1
 260 590 371 500 374 425 c 0
 374 401 360 384 338 383 c 0
 308 382 294 433 250 496 c 0
EndSplineSet
Substitution2: "'ruby' Ruby Notational Forms lookup 1-1" uni30BE.ruby
EndChar

StartChar: uni30BF
Encoding: 36 12479 30
Width: 1000
Flags: W
HStem: 563 55<496.353 611.966> 601 63<719.395 773.5> 758 19<404 419.072>
VStem: 460 94<676.108 737.991>
AnchorPoint: "overline" 500 800 basechar 0
AnchorPoint: "dot" 500 2 basechar 0
LayerCount: 2
Fore
SplineSet
735 585 m 0xb0
 740 598 735 601 724 601 c 0x70
 689 598 596 583 561 575 c 0
 540 570 520 563 506 563 c 0
 496 563 483 570 469 580 c 1
 438 539 404 498 368 460 c 1
 448 429 533 390 596 350 c 1
 660 430 708 511 735 585 c 0xb0
496 618 m 1xb0
 506 618 l 2xb0
 554 618 683 635 710 641 c 0
 738 646 744 664 761 664 c 0
 786 664 846 621 846 595 c 0
 846 576 812 569 800 544 c 0
 755 461 705 385 648 314 c 1
 709 268 760 217 760 179 c 0
 761 157 748 143 727 143 c 0
 699 142 681 186 605 264 c 1
 487 135 342 30 156 -46 c 1
 142 -23 l 1
 304 59 451 179 560 306 c 1
 500 359 430 404 349 441 c 1
 289 382 222 330 152 291 c 1
 136 312 l 1
 290 423 460 652 460 710 c 0
 460 728 434 743 399 758 c 1
 404 777 l 1
 422 778 442 778 464 773 c 0
 504 764 554 735 554 716 c 0
 554 699 539 690 525 664 c 0x70
 516 649 506 633 496 618 c 1xb0
EndSplineSet
Substitution2: "'ruby' Ruby Notational Forms lookup 1-1" uni30BF.ruby
EndChar

StartChar: uni30C0
Encoding: 37 12480 31
Width: 1000
Flags: W
HStem: 543 55<470.353 585.966> 581 63<693.395 747.5> 738 19<378 393.072>
VStem: 434 94<656.108 717.991>
AnchorPoint: "overline" 500 800 basechar 0
AnchorPoint: "dot" 500 2 basechar 0
LayerCount: 2
Fore
SplineSet
709 565 m 0xb0
 714 578 709 581 698 581 c 0x70
 663 578 570 563 535 555 c 0
 514 550 494 543 480 543 c 0
 470 543 457 550 443 560 c 1
 412 519 378 478 342 440 c 1
 422 409 507 370 570 330 c 1
 634 410 682 491 709 565 c 0xb0
470 598 m 1xb0
 480 598 l 2xb0
 528 598 657 615 684 621 c 0
 712 626 718 644 735 644 c 0
 760 644 820 601 820 575 c 0
 820 556 786 549 774 524 c 0
 729 441 679 365 622 294 c 1
 683 248 734 197 734 159 c 0
 735 137 722 123 701 123 c 0
 673 122 655 166 579 244 c 1
 461 115 316 10 130 -66 c 1
 116 -43 l 1
 278 39 425 159 534 286 c 1
 474 339 404 384 323 421 c 1
 263 362 196 310 126 271 c 1
 110 292 l 1
 264 403 434 632 434 690 c 0
 434 708 408 723 373 738 c 1
 378 757 l 1
 396 758 416 758 438 753 c 0
 478 744 528 715 528 696 c 0
 528 679 513 670 499 644 c 0x70
 490 629 480 613 470 598 c 1xb0
735 738 m 1
 748 754 l 1
 798 735 835 713 860 690 c 0
 885 667 895 650 896 629 c 0
 896 614 887 605 872 604 c 0
 858 604 846 626 825 651 c 0
 805 676 778 706 735 738 c 1
821 799 m 1
 834 815 l 1
 885 797 920 778 946 759 c 0
 973 738 985 719 985 698 c 0
 985 682 976 673 962 672 c 0
 945 672 935 695 913 719 c 0
 890 744 868 767 821 799 c 1
EndSplineSet
Substitution2: "'ruby' Ruby Notational Forms lookup 1-1" uni30C0.ruby
EndChar

StartChar: uni30C1
Encoding: 38 12481 32
Width: 1000
Flags: W
HStem: 333 72<138.652 260.898> 405 68<666.061 883.417> 550 25<190.6 244.473>
VStem: 495 79<437.32 576.285> 495 66<285.594 388 440 550.071>
AnchorPoint: "overline" 500 800 basechar 0
AnchorPoint: "dot" 500 2 basechar 0
LayerCount: 2
Fore
SplineSet
591 761 m 1xb0
 604 775 l 1
 644 765 670 750 687 736 c 0
 703 723 724 699 724 681 c 0
 724 664 692 666 668 657 c 0
 616 637 568 619 515 605 c 1
 545 588 574 564 574 551 c 0xb0
 574 531 561 523 561 482 c 0
 561 468 561 454 561 440 c 1
 623 446 690 454 722 458 c 0
 785 467 792 473 811 473 c 0
 851 473 907 453 907 424 c 0
 907 408 900 397 879 397 c 0
 862 397 825 405 775 405 c 0x68
 731 405 631 400 559 395 c 1
 543 190 445 41 230 -52 c 1
 215 -33 l 1
 402 82 476 201 492 388 c 1
 414 380 291 362 253 353 c 0
 224 346 203 333 178 333 c 0
 153 333 113 377 102 404 c 0
 97 414 94 432 93 454 c 1
 109 460 l 1
 131 430 149 405 174 405 c 0
 239 405 413 424 494 433 c 1
 495 454 495 475 495 497 c 0
 494 541 489 564 459 591 c 1
 405 579 331 565 192 550 c 1
 187 575 l 1
 359 607 567 672 615 705 c 0
 632 716 630 731 591 761 c 1xb0
EndSplineSet
Substitution2: "'ruby' Ruby Notational Forms lookup 1-1" uni30C1.ruby
EndChar

StartChar: uni30C2
Encoding: 39 12482 33
Width: 1000
Flags: W
HStem: 329 72<120.652 242.898> 401 68<648.061 865.417> 546 25<172.6 226.473>
VStem: 477 79<433.32 572.285> 477 66<281.594 384 436 546.071>
AnchorPoint: "overline" 500 800 basechar 0
AnchorPoint: "dot" 500 2 basechar 0
LayerCount: 2
Fore
SplineSet
721 631 m 1x20
 734 648 l 1
 783 629 820 607 845 585 c 0
 869 563 880 544 880 525 c 0
 880 509 869 500 856 500 c 0
 840 500 829 521 809 545 c 0
 788 571 763 601 721 631 c 1x20
573 757 m 1
 586 771 l 1
 626 761 652 746 669 732 c 0
 685 719 706 695 706 677 c 0
 706 660 674 662 650 653 c 0
 598 633 550 615 497 601 c 1
 527 584 556 560 556 547 c 0xb0
 556 527 543 519 543 478 c 0
 543 464 543 450 543 436 c 1
 605 442 672 450 704 454 c 0
 767 463 774 469 793 469 c 0
 833 469 889 449 889 420 c 0
 889 404 882 393 861 393 c 0
 844 393 807 401 757 401 c 0x68
 713 401 613 396 541 391 c 1
 525 186 427 37 212 -56 c 1
 197 -37 l 1
 384 78 458 197 474 384 c 1
 396 376 273 358 235 349 c 0
 206 342 185 329 160 329 c 0
 135 329 95 373 84 400 c 0
 79 410 76 428 75 450 c 1
 91 456 l 1
 113 426 131 401 156 401 c 0
 221 401 395 420 476 429 c 1
 477 450 477 471 477 493 c 0xb0
 476 537 471 560 441 587 c 1
 387 575 313 561 174 546 c 1
 169 571 l 1
 341 603 549 668 597 701 c 0
 614 712 612 727 573 757 c 1
804 694 m 1
 817 712 l 1
 867 693 903 676 927 655 c 0
 954 634 965 615 965 595 c 0
 965 580 956 570 940 570 c 0
 925 570 915 592 893 616 c 0
 871 641 847 665 804 694 c 1
EndSplineSet
Substitution2: "'ruby' Ruby Notational Forms lookup 1-1" uni30C2.ruby
EndChar

StartChar: uni30C3
Encoding: 40 12483 34
Width: 1000
Flags: W
VStem: 268 92<304.605 354.928> 443 87<353.734 414.792> 698 84<389.922 461.753>
AnchorPoint: "overline" 500 800 basechar 0
AnchorPoint: "dot" 500 2 basechar 0
LayerCount: 2
Fore
SplineSet
443 409 m 0
 429 436 411 468 391 491 c 1
 403 502 l 1
 432 486 455 470 477 449 c 0
 509 422 530 389 530 353 c 0
 530 331 516 319 497 319 c 0
 467 319 467 360 443 409 c 0
754 377 m 0
 680 215 535 42 294 -50 c 1
 282 -32 l 1
 547 106 698 364 698 440 c 0
 698 456 684 468 645 484 c 1
 650 499 l 1
 663 500 681 502 697 499 c 0
 734 493 782 449 782 424 c 0
 782 408 765 400 754 377 c 0
268 354 m 0
 252 387 234 415 215 439 c 1
 227 450 l 1
 254 436 280 415 297 399 c 0
 338 364 360 329 360 297 c 0
 360 276 350 261 329 261 c 0
 297 261 296 300 268 354 c 0
EndSplineSet
Substitution2: "'ruby' Ruby Notational Forms lookup 1-1" uni30C3.ruby
EndChar

StartChar: uni30C4
Encoding: 41 12484 35
Width: 1000
Flags: W
HStem: 662 21<697 715.609>
VStem: 432 103<518.93 562.566> 764 98<562.625 631.558>
AnchorPoint: "overline" 500 800 basechar 0
AnchorPoint: "dot" 500 2 basechar 0
LayerCount: 2
Fore
SplineSet
432 569 m 0
 414 604 391 639 363 673 c 1
 381 686 l 1
 418 664 448 640 476 610 c 0
 511 575 535 533 535 492 c 0
 535 466 520 454 500 454 c 0
 466 454 464 505 432 569 c 0
820 534 m 0
 725 329 558 102 245 -29 c 1
 230 -6 l 1
 587 183 764 541 764 609 c 0
 764 628 746 642 690 662 c 1
 697 683 l 1
 715 684 741 684 763 679 c 0
 808 670 862 620 862 592 c 0
 862 568 834 566 820 534 c 0
201 498 m 0
 180 539 156 574 130 605 c 1
 148 620 l 1
 182 601 216 570 238 546 c 0
 285 500 308 455 309 420 c 0
 310 397 299 380 276 380 c 0
 240 380 238 427 201 498 c 0
EndSplineSet
Substitution2: "'ruby' Ruby Notational Forms lookup 1-1" uni30C4.ruby
EndChar

StartChar: uni30C5
Encoding: 42 12485 36
Width: 1000
Flags: W
HStem: 633 21<664 682.609>
VStem: 406 105<502.753 544.143> 731 98<533.561 602.445>
AnchorPoint: "overline" 500 800 basechar 0
AnchorPoint: "dot" 500 2 basechar 0
LayerCount: 2
Fore
SplineSet
860 625 m 0
 845 625 834 647 813 673 c 0
 793 698 765 729 722 761 c 1
 735 778 l 1
 786 757 824 734 849 711 c 0
 874 688 884 671 884 651 c 0
 884 634 875 625 860 625 c 0
951 694 m 0
 934 694 925 717 903 741 c 0
 880 767 857 791 810 822 c 1
 823 839 l 1
 874 821 913 802 936 782 c 0
 964 759 974 740 974 720 c 0
 974 703 966 694 951 694 c 0
406 549 m 0
 388 586 367 621 338 655 c 1
 355 670 l 1
 393 646 422 622 452 592 c 0
 487 556 511 515 511 474 c 0
 511 446 496 434 476 434 c 0
 442 434 439 488 406 549 c 0
165 489 m 0
 144 530 120 566 94 597 c 1
 112 612 l 1
 145 593 181 561 202 538 c 0
 250 492 274 445 274 410 c 0
 275 388 265 370 241 370 c 0
 204 370 203 418 165 489 c 0
787 505 m 0
 692 300 528 87 217 -45 c 1
 203 -23 l 1
 560 166 731 512 731 580 c 0
 731 599 713 613 657 633 c 1
 664 654 l 1
 682 655 708 655 731 650 c 0
 775 641 829 591 829 562 c 0
 829 538 802 536 787 505 c 0
EndSplineSet
Substitution2: "'ruby' Ruby Notational Forms lookup 1-1" uni30C5.ruby
EndChar

StartChar: uni30C6
Encoding: 43 12486 37
Width: 1000
Flags: W
HStem: 392 70<167.457 287.875> 464 70<676.742 889.259> 632 55<328.226 565.193>
VStem: 513 96<372.26 434.46>
AnchorPoint: "overline" 500 800 basechar 0
AnchorPoint: "dot" 500 2 basechar 0
LayerCount: 2
Fore
SplineSet
279 713 m 1
 294 726 l 1
 332 698 358 687 391 687 c 0
 452 687 521 699 571 710 c 0
 630 723 643 739 664 739 c 0
 707 739 740 724 740 700 c 0
 740 685 729 676 697 670 c 0
 620 656 480 632 391 632 c 0
 340 632 312 661 279 713 c 1
124 508 m 1
 141 515 l 1
 160 488 180 462 206 462 c 0
 274 462 528 500 712 516 c 0
 782 523 798 534 813 534 c 0
 854 534 911 512 911 483 c 0
 911 467 905 458 883 458 c 0
 867 458 829 464 780 464 c 0
 735 464 651 462 559 453 c 1
 586 438 609 420 609 404 c 0
 609 384 586 380 575 350 c 0
 540 245 476 78 236 -54 c 1
 216 -33 l 1
 457 124 513 352 513 406 c 0
 513 420 508 432 496 446 c 1
 413 436 320 421 290 413 c 0
 259 404 233 393 210 392 c 0
 187 391 142 431 131 459 c 0
 126 471 125 487 124 508 c 1
EndSplineSet
Substitution2: "'ruby' Ruby Notational Forms lookup 1-1" uni30C6.ruby
EndChar

StartChar: uni30C7
Encoding: 44 12487 38
Width: 1000
Flags: W
HStem: 378 70<154.457 274.875> 450 70<663.742 876.259> 618 55<315.226 552.193>
VStem: 500 96<358.26 420.46>
AnchorPoint: "overline" 500 800 basechar 0
AnchorPoint: "dot" 500 2 basechar 0
LayerCount: 2
Fore
SplineSet
266 699 m 1
 281 712 l 1
 319 684 345 673 378 673 c 0
 439 673 508 685 558 696 c 0
 617 709 630 725 651 725 c 0
 694 725 727 710 727 686 c 0
 727 671 716 662 684 656 c 0
 607 642 467 618 378 618 c 0
 327 618 299 647 266 699 c 1
111 494 m 1
 128 501 l 1
 147 474 167 448 193 448 c 0
 261 448 515 486 699 502 c 0
 769 509 785 520 800 520 c 0
 841 520 898 498 898 469 c 0
 898 453 892 444 870 444 c 0
 854 444 816 450 767 450 c 0
 722 450 638 448 546 439 c 1
 573 424 596 406 596 390 c 0
 596 370 573 366 562 336 c 0
 527 231 463 64 223 -68 c 1
 203 -47 l 1
 444 110 500 338 500 392 c 0
 500 406 495 418 483 432 c 1
 400 422 307 407 277 399 c 0
 246 390 220 379 197 378 c 0
 174 377 129 417 118 445 c 0
 113 457 112 473 111 494 c 1
754 714 m 1
 769 731 l 1
 817 709 855 686 878 663 c 0
 902 640 912 623 911 602 c 0
 910 587 900 577 886 577 c 0
 871 578 862 600 842 626 c 0
 822 651 797 682 754 714 c 1
831 794 m 1
 844 810 l 1
 894 791 928 770 953 751 c 0
 979 730 989 710 989 689 c 0
 989 673 981 663 965 664 c 0
 948 664 940 687 919 712 c 0
 896 738 874 764 831 794 c 1
EndSplineSet
Substitution2: "'ruby' Ruby Notational Forms lookup 1-1" uni30C7.ruby
EndChar

StartChar: uni30C8
Encoding: 45 12488 39
Width: 1000
Flags: W
HStem: 725 21<327 371.154>
VStem: 390 82<-22.59 295.451> 411 59<218.31 429 459.726 665.454>
AnchorPoint: "overline" 500 800 basechar 0
AnchorPoint: "dot" 500 2 basechar 0
LayerCount: 2
Fore
SplineSet
327 725 m 1xa0
 326 746 l 1
 352 752 371 758 390 758 c 0xc0
 432 758 500 720 500 697 c 0
 500 677 482 673 478 640 c 0
 473 592 471 519 470 464 c 1
 567 442 662 407 717 372 c 0
 747 353 773 328 773 297 c 0
 773 280 762 263 741 263 c 0
 708 263 697 297 637 343 c 0
 592 374 538 403 470 429 c 1xa0
 469 360 468 196 469 90 c 0
 470 46 472 16 472 -1 c 0
 472 -27 462 -39 440 -39 c 0
 407 -39 390 16 390 50 c 0xc0
 390 72 399 90 403 128 c 0
 411 202 411 366 411 442 c 0
 411 522 411 631 405 681 c 0
 402 713 380 719 327 725 c 1xa0
EndSplineSet
Substitution2: "'ruby' Ruby Notational Forms lookup 1-1" uni30C8.ruby
EndChar

StartChar: uni30C9
Encoding: 46 12489 40
Width: 1000
Flags: W
HStem: 721 21<314 358.154>
VStem: 377 82<-26.59 291.451> 398 59<214.31 425 455.726 661.454>
AnchorPoint: "overline" 500 800 basechar 0
AnchorPoint: "dot" 500 2 basechar 0
LayerCount: 2
Fore
SplineSet
314 721 m 1xa0
 313 742 l 1
 339 748 358 754 377 754 c 0xc0
 419 754 487 716 487 693 c 0
 487 673 469 669 465 636 c 0
 460 588 458 515 457 460 c 1
 554 438 649 403 704 368 c 0
 734 349 760 324 760 293 c 0
 760 276 749 259 728 259 c 0
 695 259 684 293 624 339 c 0
 579 370 525 399 457 425 c 1xa0
 456 356 455 192 456 86 c 0
 457 42 459 12 459 -5 c 0
 459 -31 449 -43 427 -43 c 0
 394 -43 377 12 377 46 c 0xc0
 377 68 386 86 390 124 c 0
 398 198 398 362 398 438 c 0
 398 518 398 627 392 677 c 0
 389 709 367 715 314 721 c 1xa0
616 652 m 5
 630 669 l 5
 680 648 718 627 744 605 c 4
 769 583 779 563 779 542 c 4
 779 526 770 517 755 517 c 4
 739 517 728 539 707 565 c 4
 686 590 660 620 616 652 c 5
701 734 m 1
 713 751 l 1
 764 733 802 714 827 693 c 0
 853 672 864 652 864 631 c 0
 864 614 855 606 841 606 c 0
 825 606 813 629 792 654 c 0
 769 679 745 703 701 734 c 1
EndSplineSet
Substitution2: "'ruby' Ruby Notational Forms lookup 1-1" uni30C9.ruby
EndChar

StartChar: uni30CA
Encoding: 47 12490 41
Width: 1000
Flags: W
HStem: 383 73<164.239 270.649> 450 75<680.918 899.61> 716 41<421.883 496.419>
VStem: 504 65<305.813 438 491 683.949>
AnchorPoint: "overline" 500 800 basechar 0
AnchorPoint: "dot" 500 2 basechar 0
LayerCount: 2
Fore
SplineSet
420 716 m 1xb0
 418 735 l 1
 433 742 469 757 490 757 c 0
 535 757 595 723 595 701 c 0
 595 678 577 680 575 639 c 0
 572 594 571 538 570 491 c 1
 809 515 809 525 826 525 c 0
 856 525 920 504 920 477 c 0
 920 458 906 450 889 450 c 0x70
 855 450 759 457 569 443 c 1
 554 208 462 48 222 -49 c 1
 207 -28 l 1
 406 85 489 219 504 438 c 1
 427 430 327 416 277 406 c 0
 245 399 230 383 206 383 c 0
 180 383 131 431 121 453 c 0
 113 467 110 487 109 509 c 1
 126 516 l 1
 146 487 168 455 200 456 c 0
 242 456 412 475 506 485 c 1
 508 551 508 643 502 686 c 0
 499 710 453 713 420 716 c 1xb0
EndSplineSet
Substitution2: "'ruby' Ruby Notational Forms lookup 1-1" uni30CA.ruby
EndChar

StartChar: uni30CB
Encoding: 48 12491 42
Width: 1000
Flags: W
HStem: 109 80<146.208 264.15> 175 60<519.888 805.437> 491 60<295.349 543.648>
AnchorPoint: "overline" 500 800 basechar 0
AnchorPoint: "dot" 500 2 basechar 0
LayerCount: 2
Fore
SplineSet
759 564 m 0x20
 759 548 748 536 726 533 c 0
 562 514 376 491 340 491 c 0
 312 491 282 517 265 539 c 0
 255 556 248 571 240 596 c 1
 258 606 l 1
 296 568 321 551 351 551 c 0
 394 551 517 566 579 579 c 0
 637 591 643 605 667 605 c 0
 704 605 759 590 759 564 c 0x20
103 179 m 0
 96 192 93 208 90 234 c 1
 110 241 l 1
 131 214 153 189 188 189 c 0xa0
 232 189 538 228 738 235 c 0
 781 238 794 247 806 247 c 0
 847 247 926 209 926 174 c 0
 926 157 915 148 896 148 c 0
 871 148 793 175 674 175 c 0x60
 566 175 372 159 269 132 c 0
 232 123 215 109 191 109 c 0xa0
 161 109 114 157 103 179 c 0
EndSplineSet
Substitution2: "'ruby' Ruby Notational Forms lookup 1-1" uni30CB.ruby
EndChar

StartChar: uni30CC
Encoding: 49 12492 43
Width: 1000
Flags: W
HStem: 544 75<276.972 382.828> 613 69<660.604 724.5>
VStem: 225 22<662.254 672.864>
AnchorPoint: "overline" 500 800 basechar 0
AnchorPoint: "dot" 500 2 basechar 0
LayerCount: 2
Fore
SplineSet
225 670 m 1xa0
 247 679 l 1
 261 655 282 621 315 619 c 0xa0
 365 617 609 651 660 660 c 0
 684 664 695 682 711 682 c 0
 738 682 808 633 808 603 c 0
 808 581 775 569 757 535 c 0
 723 472 677 396 620 320 c 1
 683 280 761 216 798 168 c 0
 815 146 824 124 824 103 c 0
 824 83 809 70 793 70 c 0
 771 70 763 84 732 122 c 0
 697 165 650 210 576 267 c 1
 497 178 359 62 131 -24 c 1
 119 0 l 1
 317 97 449 212 528 304 c 1
 472 346 402 389 315 429 c 1
 328 454 l 1
 421 422 499 389 566 352 c 1
 629 438 680 534 702 599 c 0
 706 610 704 613 693 613 c 0x60
 636 611 434 577 393 568 c 0
 363 561 345 544 324 544 c 0
 294 544 249 584 238 610 c 0
 233 624 227 642 225 670 c 1xa0
EndSplineSet
Substitution2: "'ruby' Ruby Notational Forms lookup 1-1" uni30CC.ruby
EndChar

StartChar: uni30CD
Encoding: 50 12493 44
Width: 1000
Flags: W
HStem: 336 19<625.947 635.924> 466 76<247.739 336.498> 798 17<387.471 392.063>
VStem: 481 70<-46.8215 254.215> 497 59<51.3047 314.53>
AnchorPoint: "overline" 500 800 basechar 0
AnchorPoint: "dot" 500 2 basechar 0
LayerCount: 2
Fore
SplineSet
381 798 m 1xe0
 392 815 l 1
 491 795 599 751 599 683 c 0
 599 665 586 648 565 648 c 0
 544 648 533 666 515 691 c 0
 485 729 441 761 381 798 c 1xe0
202 592 m 1
 220 598 l 1
 236 576 254 542 285 542 c 0
 342 542 555 582 603 594 c 0
 633 601 638 618 652 618 c 0
 678 618 738 574 738 554 c 0
 738 535 698 529 687 514 c 0
 645 458 593 402 533 349 c 1
 547 337 556 325 556 311 c 0xe8
 556 286 551 248 551 83 c 0
 551 51 555 13 555 -9 c 0
 555 -31 547 -54 519 -54 c 0
 492 -54 481 -6 481 19 c 0xf0
 481 38 485 45 489 84 c 0
 492 111 497 225 497 276 c 0xe8
 497 293 496 305 493 315 c 1
 376 219 236 136 90 81 c 1
 76 105 l 1
 278 204 534 393 617 537 c 0
 624 549 623 552 610 551 c 0
 572 546 406 507 352 493 c 0
 320 485 316 466 293 466 c 0
 267 466 225 503 212 530 c 0
 206 542 203 570 202 592 c 1
619 336 m 1
 630 355 l 1
 763 322 879 254 879 174 c 0
 879 156 866 142 847 142 c 0
 829 142 819 150 804 173 c 0
 755 243 692 301 619 336 c 1
EndSplineSet
Substitution2: "'ruby' Ruby Notational Forms lookup 1-1" uni30CD.ruby
EndChar

StartChar: uni30CE
Encoding: 51 12494 45
Width: 1000
Flags: W
VStem: 657 103<583.762 655.132>
AnchorPoint: "overline" 500 800 basechar 0
AnchorPoint: "dot" 500 2 basechar 0
LayerCount: 2
Fore
SplineSet
657 630 m 0
 657 654 638 668 591 688 c 1
 596 708 l 1
 619 709 642 707 664 702 c 0
 706 691 760 645 760 617 c 0
 760 595 737 592 720 557 c 0
 603 320 441 123 166 -20 c 1
 149 4 l 1
 411 177 573 412 640 568 c 0
 652 595 657 616 657 630 c 0
EndSplineSet
Substitution2: "'ruby' Ruby Notational Forms lookup 1-1" uni30CE.ruby
EndChar

StartChar: uni30CF
Encoding: 52 12495 46
Width: 1000
Flags: W
VStem: 380 93<431.257 508.128> 843 83<175.184 264.918>
AnchorPoint: "overline" 500 800 basechar 0
AnchorPoint: "dot" 500 2 basechar 0
LayerCount: 2
Fore
SplineSet
380 487 m 0
 380 510 338 536 312 549 c 1
 319 568 l 1
 334 568 357 568 378 562 c 0
 420 551 473 493 473 463 c 0
 473 444 451 435 433 413 c 0
 342 299 211 185 76 118 c 1
 61 138 l 1
 190 226 380 417 380 487 c 0
926 221 m 0
 930 184 913 162 890 162 c 0
 865 162 859 182 843 222 c 0
 787 356 705 460 586 554 c 1
 602 574 l 1
 744 497 912 342 926 221 c 0
EndSplineSet
Substitution2: "'ruby' Ruby Notational Forms lookup 1-1" uni30CF.ruby
EndChar

StartChar: uni30D0
Encoding: 53 12496 47
Width: 1000
Flags: W
VStem: 358 93<399.257 476.128> 821 83<143.184 232.918>
AnchorPoint: "overline" 500 800 basechar 0
AnchorPoint: "dot" 500 2 basechar 0
LayerCount: 2
Fore
SplineSet
814 492 m 0
 799 492 789 515 769 540 c 0
 747 566 720 597 676 628 c 1
 690 645 l 1
 740 624 779 602 804 579 c 0
 828 555 838 538 838 519 c 0
 838 502 829 492 814 492 c 0
900 574 m 0
 884 574 874 597 852 621 c 0
 829 646 805 671 760 702 c 1
 772 719 l 1
 823 701 862 682 886 661 c 0
 913 639 923 620 923 600 c 0
 923 583 915 574 900 574 c 0
358 455 m 0
 358 478 316 504 290 517 c 1
 297 536 l 1
 312 536 335 536 356 530 c 0
 398 519 451 461 451 431 c 0
 451 412 429 403 411 381 c 0
 320 267 189 153 54 86 c 1
 39 106 l 1
 168 194 358 385 358 455 c 0
904 189 m 0
 908 152 891 130 868 130 c 0
 843 130 837 150 821 190 c 0
 765 324 683 428 564 522 c 1
 580 542 l 1
 722 465 890 310 904 189 c 0
EndSplineSet
Substitution2: "'ruby' Ruby Notational Forms lookup 1-1" uni30D0.ruby
EndChar

StartChar: uni30D1
Encoding: 54 12497 48
Width: 1000
Flags: W
HStem: 501 33<761.231 856.769> 688 33<761.231 856.769>
VStem: 358 93<399.257 476.128> 699 33<563.231 658.769> 821 83<143.184 232.918> 886 33<563.231 658.769>
AnchorPoint: "overline" 500 800 basechar 0
AnchorPoint: "dot" 500 2 basechar 0
LayerCount: 2
Fore
SplineSet
809 501 m 0xf4
 748 501 699 550 699 611 c 0
 699 672 748 721 809 721 c 0
 870 721 919 672 919 611 c 0
 919 550 870 501 809 501 c 0xf4
809 688 m 0
 766 688 732 654 732 611 c 0
 732 568 766 534 809 534 c 0
 852 534 886 568 886 611 c 0
 886 654 852 688 809 688 c 0
358 455 m 0
 358 478 316 504 290 517 c 1
 297 536 l 1
 312 536 335 536 356 530 c 0
 398 519 451 461 451 431 c 0
 451 412 429 403 411 381 c 0
 320 267 189 153 54 86 c 1
 39 106 l 1
 168 194 358 385 358 455 c 0
904 189 m 0xf8
 908 152 891 130 868 130 c 0
 843 130 837 150 821 190 c 0
 765 324 683 428 564 522 c 1
 580 542 l 1
 722 465 890 310 904 189 c 0xf8
EndSplineSet
Substitution2: "'ruby' Ruby Notational Forms lookup 1-1" uni30D1.ruby
EndChar

StartChar: uni30D2
Encoding: 55 12498 49
Width: 1000
Flags: W
HStem: 15 62<358.551 683.844> 692 18<209 242.562>
VStem: 281 97<605.009 681.46> 281 57<99.7969 325.458 361 563.639>
AnchorPoint: "overline" 500 800 basechar 0
AnchorPoint: "dot" 500 2 basechar 0
LayerCount: 2
Fore
SplineSet
664 595 m 1xe0
 679 608 l 1
 698 605 712 600 726 591 c 0
 753 572 782 535 782 514 c 0
 782 494 756 488 718 468 c 0
 647 433 506 368 341 321 c 1
 339 261 338 208 338 182 c 0
 338 84 360 77 480 77 c 0
 638 77 706 109 740 109 c 0
 787 109 817 98 817 75 c 0
 817 55 803 46 784 39 c 0
 743 27 643 15 487 15 c 0
 308 15 282 45 281 186 c 0xd0
 280 275 292 604 287 651 c 0
 283 679 261 685 209 692 c 1
 208 710 l 1
 231 716 257 724 279 723 c 0
 320 721 378 683 378 659 c 0
 378 640 359 636 356 605 c 0
 351 562 346 457 342 361 c 1
 478 409 612 475 676 524 c 0
 693 537 696 545 688 562 c 0
 683 574 673 586 664 595 c 1xe0
EndSplineSet
Substitution2: "'ruby' Ruby Notational Forms lookup 1-1" uni30D2.ruby
EndChar

StartChar: uni30D3
Encoding: 56 12499 50
Width: 1000
Flags: W
HStem: 1 62<325.551 650.844> 678 18<176 209.562>
VStem: 248 97<591.009 667.46> 248 57<85.7969 311.458 347 549.639> 781 71<567.723 623.179>
AnchorPoint: "overline" 500 800 basechar 0
AnchorPoint: "dot" 500 2 basechar 0
LayerCount: 2
Fore
SplineSet
631 581 m 1xe8
 646 594 l 1
 665 591 679 586 693 577 c 0
 720 558 749 521 749 500 c 0
 749 480 723 474 685 454 c 0
 614 419 473 354 308 307 c 1
 306 247 305 194 305 168 c 0
 305 70 327 63 447 63 c 0
 605 63 673 95 707 95 c 0
 754 95 784 84 784 61 c 0
 784 41 770 32 751 25 c 0
 710 13 610 1 454 1 c 0
 275 1 249 31 248 172 c 0xd8
 247 261 259 590 254 637 c 0
 250 665 228 671 176 678 c 1
 175 696 l 1
 198 702 224 710 246 709 c 0
 287 707 345 669 345 645 c 0
 345 626 326 622 323 591 c 0
 318 548 313 443 309 347 c 1
 445 395 579 461 643 510 c 0
 660 523 663 531 655 548 c 0
 650 560 640 572 631 581 c 1xe8
693 689 m 1
 707 706 l 1
 757 684 794 660 819 636 c 0
 842 612 853 595 852 576 c 0
 852 559 840 547 825 549 c 0
 810 550 801 573 781 598 c 0
 761 625 734 657 693 689 c 1
779 764 m 1
 792 781 l 1
 842 761 880 740 904 719 c 0
 930 697 939 678 938 657 c 0
 938 640 929 631 914 631 c 0
 898 632 888 655 867 681 c 0
 845 706 823 731 779 764 c 1
EndSplineSet
Substitution2: "'ruby' Ruby Notational Forms lookup 1-1" uni30D3.ruby
EndChar

StartChar: uni30D4
Encoding: 57 12500 51
Width: 1000
Flags: W
HStem: 1 62<325.551 650.844> 560 33<788.455 881.045> 678 18<176 209.562> 742 32<790.355 879.163>
VStem: 248 97<591.009 667.46> 248 57<85.7969 311.458 347 549.639> 727 33<620.955 713.237> 909 33<620.955 713.237>
AnchorPoint: "overline" 500 800 basechar 0
AnchorPoint: "dot" 500 2 basechar 0
LayerCount: 2
Fore
SplineSet
631 581 m 1xfb
 646 594 l 1
 665 591 679 586 693 577 c 0
 720 558 749 521 749 500 c 0
 749 480 723 474 685 454 c 0
 614 419 473 354 308 307 c 1
 306 247 305 194 305 168 c 0
 305 70 327 63 447 63 c 0
 605 63 673 95 707 95 c 0
 754 95 784 84 784 61 c 0
 784 41 770 32 751 25 c 0
 710 13 610 1 454 1 c 0
 275 1 249 31 248 172 c 0xf7
 247 261 259 590 254 637 c 0
 250 665 228 671 176 678 c 1
 175 696 l 1
 198 702 224 710 246 709 c 0
 287 707 345 669 345 645 c 0
 345 626 326 622 323 591 c 0
 318 548 313 443 309 347 c 1
 445 395 579 461 643 510 c 0
 660 523 663 531 655 548 c 0
 650 560 640 572 631 581 c 1xfb
835 593 m 0
 876 593 909 626 909 667 c 0
 909 708 876 742 835 742 c 0
 793 742 760 708 760 667 c 0
 760 626 793 593 835 593 c 0
835 774 m 0
 894 774 942 726 942 667 c 0
 942 608 894 560 835 560 c 0
 776 560 727 608 727 667 c 0
 727 726 776 774 835 774 c 0
EndSplineSet
Substitution2: "'ruby' Ruby Notational Forms lookup 1-1" uni30D4.ruby
EndChar

StartChar: uni30D5
Encoding: 58 12501 52
Width: 1000
Flags: W
HStem: 536 81<237.663 334.8>
AnchorPoint: "overline" 500 800 basechar 0
AnchorPoint: "dot" 500 2 basechar 0
LayerCount: 2
Fore
SplineSet
204 673 m 1
 220 649 242 617 277 617 c 0
 334 617 652 651 700 661 c 0
 726 667 739 683 756 683 c 0
 785 683 855 631 855 603 c 0
 855 581 823 564 809 531 c 0
 704 282 525 95 230 -18 c 1
 215 6 l 1
 501 150 685 364 747 598 c 0
 751 613 745 615 735 615 c 0
 691 615 407 575 350 562 c 0
 323 556 301 536 282 536 c 0
 252 536 205 584 195 609 c 0
 190 623 187 638 185 666 c 1
 204 673 l 1
EndSplineSet
Substitution2: "'ruby' Ruby Notational Forms lookup 1-1" uni30D5.ruby
EndChar

StartChar: uni30D6
Encoding: 59 12502 53
Width: 1000
Flags: W
HStem: 510 81<203.332 306.723> 587 68<658.47 730>
VStem: 713 105<537.237 586.571>
AnchorPoint: "overline" 500 800 basechar 0
AnchorPoint: "dot" 500 2 basechar 0
LayerCount: 2
Fore
SplineSet
881 598 m 0x20
 867 598 855 620 835 645 c 0
 815 671 787 702 743 733 c 1
 756 750 l 1
 808 730 846 707 871 684 c 0
 896 661 906 643 906 623 c 0
 906 607 896 598 881 598 c 0x20
970 668 m 0
 953 668 944 690 922 715 c 0
 899 740 876 764 829 796 c 1
 842 812 l 1
 893 795 930 774 955 754 c 0
 983 733 993 714 993 693 c 0
 993 677 985 668 970 668 c 0
170 647 m 1
 187 622 208 591 244 591 c 0xa0
 300 591 618 625 666 635 c 0
 692 640 698 655 715 655 c 0
 745 655 818 598 818 570 c 0
 818 548 789 538 775 505 c 0
 670 255 491 68 196 -44 c 1
 181 -22 l 1
 468 123 652 336 713 570 c 0
 717 585 711 587 701 587 c 0x60
 657 587 373 546 316 534 c 0
 289 528 268 510 248 510 c 0xa0
 218 510 171 557 161 582 c 0
 156 596 153 612 151 639 c 1
 170 647 l 1
EndSplineSet
Substitution2: "'ruby' Ruby Notational Forms lookup 1-1" uni30D6.ruby
EndChar

StartChar: uni30D7
Encoding: 60 12503 54
Width: 1000
Flags: W
HStem: 510 81<203.332 306.723> 587 68<658.47 730> 615 33<837.142 926.771> 792 34<835.974 927.929>
VStem: 713 105<537.237 586.571> 776 34<674.345 766.3> 954 33<674.345 765.145>
AnchorPoint: "overline" 500 800 basechar 0
AnchorPoint: "dot" 500 2 basechar 0
LayerCount: 2
Fore
SplineSet
882 615 m 0x36
 823 615 776 661 776 721 c 0
 776 779 823 826 882 826 c 0
 941 826 987 779 987 721 c 0
 987 661 941 615 882 615 c 0x36
882 792 m 0
 842 792 810 760 810 721 c 0
 810 680 842 648 882 648 c 0
 922 648 954 680 954 721 c 0
 954 760 922 792 882 792 c 0
170 647 m 1
 187 622 208 591 244 591 c 0x9a
 300 591 618 625 666 635 c 0
 692 640 698 655 715 655 c 0
 745 655 818 598 818 570 c 0
 818 548 789 538 775 505 c 0
 670 255 491 68 196 -44 c 1
 181 -22 l 1
 468 123 652 336 713 570 c 0
 717 585 711 587 701 587 c 0x5a
 657 587 373 546 316 534 c 0
 289 528 268 510 248 510 c 0x9a
 218 510 171 557 161 582 c 0
 156 596 153 612 151 639 c 1
 170 647 l 1
EndSplineSet
Substitution2: "'ruby' Ruby Notational Forms lookup 1-1" uni30D7.ruby
EndChar

StartChar: uni30D8
Encoding: 61 12504 55
Width: 1000
Flags: W
HStem: 275 76<109.523 176.937> 533 55<379.43 456.37>
AnchorPoint: "overline" 500 800 basechar 0
AnchorPoint: "dot" 500 2 basechar 0
LayerCount: 2
Fore
SplineSet
79 323 m 0
 67 336 62 354 56 373 c 1
 72 387 l 1
 95 366 119 351 136 351 c 0
 150 351 163 360 183 378 c 0
 229 420 314 517 348 551 c 0
 369 573 389 588 413 588 c 0
 439 588 463 579 492 549 c 0
 618 423 771 277 895 194 c 0
 919 178 935 152 935 126 c 0
 935 107 924 95 905 95 c 0
 877 95 828 136 761 200 c 0
 698 261 536 432 460 508 c 0
 441 526 429 533 416 533 c 0
 405 533 394 528 378 510 c 0
 347 474 269 373 232 327 c 0
 207 296 193 275 165 275 c 0
 138 275 100 299 79 323 c 0
EndSplineSet
Substitution2: "'ruby' Ruby Notational Forms lookup 1-1" uni30D8.ruby
EndChar

StartChar: uni30D9
Encoding: 62 12505 56
Width: 1000
Flags: W
HStem: 250 76<105.523 172.937> 508 55<375.43 452.37>
AnchorPoint: "overline" 500 800 basechar 0
AnchorPoint: "dot" 500 2 basechar 0
LayerCount: 2
Fore
SplineSet
775 458 m 0
 759 458 746 478 724 506 c 0
 701 537 674 566 624 603 c 1
 637 619 l 1
 692 599 732 573 759 551 c 0
 787 527 801 503 800 481 c 0
 799 466 789 458 775 458 c 0
874 544 m 0
 857 544 846 563 823 592 c 0
 799 621 764 655 715 685 c 1
 728 702 l 1
 786 684 826 661 851 641 c 0
 881 616 897 592 897 568 c 0
 897 554 889 544 874 544 c 0
75 298 m 0
 63 311 58 329 52 348 c 1
 68 362 l 1
 91 341 115 326 132 326 c 0
 146 326 159 335 179 353 c 0
 225 395 310 492 344 526 c 0
 365 548 385 563 409 563 c 0
 435 563 459 554 488 524 c 0
 614 398 767 252 891 169 c 0
 915 153 931 127 931 101 c 0
 931 82 920 70 901 70 c 0
 873 70 824 111 757 175 c 0
 694 236 532 407 456 483 c 0
 437 501 425 508 412 508 c 0
 401 508 390 503 374 485 c 0
 343 449 265 348 228 302 c 0
 203 271 189 250 161 250 c 0
 134 250 96 274 75 298 c 0
EndSplineSet
Substitution2: "'ruby' Ruby Notational Forms lookup 1-1" uni30D9.ruby
EndChar

StartChar: uni30DA
Encoding: 63 12506 57
Width: 1000
Flags: W
HStem: 250 76<105.523 172.937> 458 33<692.991 790.299> 508 55<375.43 452.37> 652 33<694.245 789.057>
VStem: 628 33<522.776 619.057> 822 33<522.776 619.057>
AnchorPoint: "overline" 500 800 basechar 0
AnchorPoint: "dot" 500 2 basechar 0
LayerCount: 2
Fore
SplineSet
742 458 m 0
 679 458 628 509 628 572 c 0
 628 634 679 685 742 685 c 0
 804 685 855 634 855 572 c 0
 855 509 804 458 742 458 c 0
742 652 m 0
 697 652 661 616 661 572 c 0
 661 526 697 491 742 491 c 0
 786 491 822 526 822 572 c 0
 822 616 786 652 742 652 c 0
75 298 m 0
 63 311 58 329 52 348 c 1
 68 362 l 1
 91 341 115 326 132 326 c 0
 146 326 159 335 179 353 c 0
 225 395 310 492 344 526 c 0
 365 548 385 563 409 563 c 0
 435 563 459 554 488 524 c 0
 614 398 767 252 891 169 c 0
 915 153 931 127 931 101 c 0
 931 82 920 70 901 70 c 0
 873 70 824 111 757 175 c 0
 694 236 532 407 456 483 c 0
 437 501 425 508 412 508 c 0
 401 508 390 503 374 485 c 0
 343 449 265 348 228 302 c 0
 203 271 189 250 161 250 c 0
 134 250 96 274 75 298 c 0
EndSplineSet
Substitution2: "'ruby' Ruby Notational Forms lookup 1-1" uni30DA.ruby
EndChar

StartChar: uni30DB
Encoding: 64 12507 58
Width: 1000
Flags: W
HStem: 416 73<165.172 263.016> 496 72<679.82 850.229> 708 22<401 452.932>
VStem: 297 26<313.002 340.615> 486 54<82.6626 474 526 665.435> 806 90<141.784 214.31>
AnchorPoint: "overline" 500 800 basechar 0
AnchorPoint: "dot" 500 2 basechar 0
LayerCount: 2
Fore
SplineSet
297 345 m 1
 323 339 l 1
 312 230 235 92 164 92 c 0
 141 92 129 108 129 127 c 0
 129 152 149 158 180 182 c 0
 252 237 278 289 297 345 c 1
401 708 m 1
 400 730 l 1
 423 735 454 740 475 740 c 0
 516 738 568 705 568 682 c 0
 568 664 548 662 546 634 c 0
 544 610 543 570 542 526 c 1
 749 552 759 568 781 568 c 0
 818 568 868 545 868 522 c 0
 868 500 858 493 833 493 c 0
 803 493 775 496 731 496 c 0
 691 496 608 487 541 480 c 1
 540 447 540 414 540 389 c 0
 540 314 545 97 545 70 c 0
 545 27 522 -17 488 -17 c 0
 460 -17 461 3 439 30 c 0
 421 50 387 74 355 92 c 1
 365 113 l 1
 398 102 436 89 462 83 c 0
 473 81 482 82 483 96 c 0
 486 142 486 305 486 390 c 0
 486 411 486 441 486 474 c 1
 421 465 333 454 281 442 c 0
 241 434 231 416 209 416 c 0
 187 416 150 445 133 477 c 0
 127 489 123 513 121 532 c 1
 139 540 l 1
 158 514 179 488 201 489 c 0
 247 490 410 511 485 520 c 1
 484 581 483 641 480 664 c 0
 476 695 453 701 401 708 c 1
665 339 m 1
 679 357 l 1
 780 317 880 245 896 163 c 0
 901 135 889 114 865 114 c 0
 837 114 825 147 806 179 c 0
 780 226 736 289 665 339 c 1
EndSplineSet
Substitution2: "'ruby' Ruby Notational Forms lookup 1-1" uni30DB.ruby
EndChar

StartChar: uni30DC
Encoding: 65 12508 59
Width: 1000
Flags: W
HStem: 402 73<158.172 256.016> 482 72<672.82 843.229> 694 22<394 445.932>
VStem: 290 26<299.002 326.615> 479 54<68.6626 460 512 651.435> 799 90<127.784 200.31>
AnchorPoint: "overline" 500 800 basechar 0
AnchorPoint: "dot" 500 2 basechar 0
LayerCount: 2
Fore
SplineSet
690 726 m 1
 704 743 l 1
 755 723 793 700 817 678 c 0
 842 655 853 637 853 617 c 0
 853 602 842 593 828 593 c 0
 812 593 803 614 782 638 c 0
 761 664 733 696 690 726 c 1
290 331 m 1
 316 325 l 1
 305 216 228 78 157 78 c 0
 134 78 122 94 122 113 c 0
 122 138 142 144 173 168 c 0
 245 223 271 275 290 331 c 1
394 694 m 1
 393 716 l 1
 416 721 447 726 468 726 c 0
 509 724 561 691 561 668 c 0
 561 650 541 648 539 620 c 0
 537 596 536 556 535 512 c 1
 742 538 752 554 774 554 c 0
 811 554 861 531 861 508 c 0
 861 486 851 479 826 479 c 0
 796 479 768 482 724 482 c 0
 684 482 601 473 534 466 c 1
 533 433 533 400 533 375 c 0
 533 300 538 83 538 56 c 0
 538 13 515 -31 481 -31 c 0
 453 -31 454 -11 432 16 c 0
 414 36 380 60 348 78 c 1
 358 99 l 1
 391 88 429 75 455 69 c 0
 466 67 475 68 476 82 c 0
 479 128 479 291 479 376 c 0
 479 397 479 427 479 460 c 1
 414 451 326 440 274 428 c 0
 234 420 224 402 202 402 c 0
 180 402 143 431 126 463 c 0
 120 475 116 499 114 518 c 1
 132 526 l 1
 151 500 172 474 194 475 c 0
 240 476 403 497 478 506 c 1
 477 567 476 627 473 650 c 0
 469 681 446 687 394 694 c 1
658 325 m 1
 672 343 l 1
 773 303 873 231 889 149 c 0
 894 121 882 100 858 100 c 0
 830 100 818 133 799 165 c 0
 773 212 729 275 658 325 c 1
780 787 m 1
 793 803 l 1
 843 786 881 767 906 747 c 0
 933 726 943 707 943 687 c 0
 943 672 935 662 920 662 c 0
 903 661 893 683 871 707 c 0
 849 732 825 757 780 787 c 1
EndSplineSet
Substitution2: "'ruby' Ruby Notational Forms lookup 1-1" uni30DC.ruby
EndChar

StartChar: uni30DD
Encoding: 66 12509 60
Width: 1000
Flags: W
HStem: 402 73<158.172 256.016> 482 72<672.82 843.229> 596 33<762.237 855.045> 694 22<394 445.932> 779 33<762.237 853.868>
VStem: 290 26<299.002 326.615> 479 54<68.6626 460 512 651.435> 701 33<657.237 750.333> 799 90<127.784 200.31> 883 33<657.237 750.333>
AnchorPoint: "overline" 500 800 basechar 0
AnchorPoint: "dot" 500 2 basechar 0
LayerCount: 2
Fore
SplineSet
809 779 m 0xff40
 767 779 734 745 734 704 c 0
 734 662 767 629 809 629 c 0
 850 629 883 662 883 704 c 0
 883 745 850 779 809 779 c 0xff40
809 596 m 0
 749 596 701 644 701 704 c 0
 701 763 749 812 809 812 c 0
 868 812 916 763 916 704 c 0
 916 644 868 596 809 596 c 0
290 331 m 1
 316 325 l 1
 305 216 228 78 157 78 c 0
 134 78 122 94 122 113 c 0
 122 138 142 144 173 168 c 0
 245 223 271 275 290 331 c 1
394 694 m 1
 393 716 l 1
 416 721 447 726 468 726 c 0
 509 724 561 691 561 668 c 0
 561 650 541 648 539 620 c 0
 537 596 536 556 535 512 c 1
 742 538 752 554 774 554 c 0
 811 554 861 531 861 508 c 0
 861 486 851 479 826 479 c 0
 796 479 768 482 724 482 c 0
 684 482 601 473 534 466 c 1
 533 433 533 400 533 375 c 0
 533 300 538 83 538 56 c 0
 538 13 515 -31 481 -31 c 0
 453 -31 454 -11 432 16 c 0
 414 36 380 60 348 78 c 1
 358 99 l 1
 391 88 429 75 455 69 c 0
 466 67 475 68 476 82 c 0
 479 128 479 291 479 376 c 0
 479 397 479 427 479 460 c 1
 414 451 326 440 274 428 c 0
 234 420 224 402 202 402 c 0
 180 402 143 431 126 463 c 0
 120 475 116 499 114 518 c 1
 132 526 l 1
 151 500 172 474 194 475 c 0
 240 476 403 497 478 506 c 1
 477 567 476 627 473 650 c 0
 469 681 446 687 394 694 c 1
658 325 m 1
 672 343 l 1
 773 303 873 231 889 149 c 0
 894 121 882 100 858 100 c 0
 830 100 818 133 799 165 c 0xff80
 773 212 729 275 658 325 c 1
EndSplineSet
Substitution2: "'ruby' Ruby Notational Forms lookup 1-1" uni30DD.ruby
EndChar

StartChar: uni30DE
Encoding: 67 12510 61
Width: 1000
Flags: W
HStem: 456 81<136.648 233.54> 546 67<730.737 772.12>
AnchorPoint: "overline" 500 800 basechar 0
AnchorPoint: "dot" 500 2 basechar 0
LayerCount: 2
Fore
SplineSet
82 587 m 1
 102 596 l 1
 120 572 139 537 173 537 c 0
 247 537 676 585 752 594 c 0
 771 596 781 613 798 613 c 0
 828 613 902 553 902 525 c 0
 902 497 864 506 835 481 c 0
 779 426 671 327 547 237 c 1
 602 185 641 128 641 77 c 0
 641 55 626 42 607 42 c 0
 572 42 576 108 463 229 c 0
 420 279 369 321 315 360 c 1
 329 378 l 1
 390 352 458 312 515 265 c 1
 625 353 735 467 774 529 c 0
 781 541 778 547 765 546 c 0
 663 541 335 498 247 481 c 0
 223 476 204 456 184 456 c 0
 153 456 109 498 96 525 c 0
 90 538 84 559 82 587 c 1
EndSplineSet
Substitution2: "'ruby' Ruby Notational Forms lookup 1-1" uni30DE.ruby
EndChar

StartChar: uni30DF
Encoding: 68 12511 62
Width: 1000
Flags: W
HStem: 184 24<250.958 286.195> 319 94<558.305 612.367> 452 23<295.478 326.462> 697 22<315.727 350.085>
AnchorPoint: "overline" 500 800 basechar 0
AnchorPoint: "dot" 500 2 basechar 0
LayerCount: 2
Fore
SplineSet
629 650 m 0
 684 623 700 603 700 575 c 0
 700 558 688 544 672 544 c 0
 651 544 638 557 611 576 c 0
 534 626 455 660 313 697 c 1
 317 719 l 1
 461 707 569 679 629 650 c 0
292 452 m 1
 297 475 l 1
 427 467 525 437 577 413 c 0
 615 395 636 376 636 348 c 0
 636 332 624 319 605 319 c 0
 591 319 576 329 550 345 c 0
 488 382 420 413 292 452 c 1
246 184 m 1
 253 208 l 1
 437 191 597 135 668 87 c 0
 702 64 720 42 720 19 c 0
 720 3 710 -12 686 -12 c 0
 664 -12 641 10 607 33 c 0
 485 114 394 143 246 184 c 1
EndSplineSet
Substitution2: "'ruby' Ruby Notational Forms lookup 1-1" uni30DF.ruby
EndChar

StartChar: uni30E0
Encoding: 69 12512 63
Width: 1000
Flags: W
HStem: 34 94<166.288 246.221>
VStem: 463 97<576.846 643.208> 751 107<99.2369 152.812>
AnchorPoint: "overline" 500 800 basechar 0
AnchorPoint: "dot" 500 2 basechar 0
LayerCount: 2
Fore
SplineSet
597 366 m 1
 615 384 l 1
 729 315 858 175 858 68 c 0
 858 40 843 21 819 21 c 0
 787 21 789 66 751 154 c 1
 604 122 355 83 265 63 c 0
 244 59 224 34 207 34 c 0
 180 34 140 78 131 107 c 0
 128 121 127 132 128 145 c 1
 141 152 l 1
 162 136 178 128 195 128 c 0
 204 128 222 129 246 131 c 1
 320 261 463 570 463 618 c 0
 463 640 444 658 411 676 c 1
 418 694 l 1
 437 693 460 690 475 684 c 0
 516 671 560 630 560 605 c 0
 560 588 537 581 526 560 c 0
 480 465 373 255 302 136 c 1
 427 149 623 173 733 193 c 1
 699 257 651 316 597 366 c 1
EndSplineSet
Substitution2: "'ruby' Ruby Notational Forms lookup 1-1" uni30E0.ruby
EndChar

StartChar: uni30E1
Encoding: 70 12513 64
Width: 1000
Flags: W
VStem: 674 97<616.036 687.223>
AnchorPoint: "overline" 500 800 basechar 0
AnchorPoint: "dot" 500 2 basechar 0
LayerCount: 2
Fore
SplineSet
616 723 m 1
 623 741 l 1
 651 739 678 737 701 725 c 0
 736 707 771 670 771 644 c 0
 771 625 748 622 731 591 c 0
 711 558 655 457 593 373 c 1
 667 317 760 228 761 176 c 0
 761 153 750 135 727 135 c 0
 687 135 681 201 551 317 c 1
 444 187 285 59 101 -13 c 1
 88 7 l 1
 253 98 397 224 504 357 c 1
 446 404 367 461 270 516 c 1
 284 539 l 1
 387 500 473 452 542 408 c 1
 608 504 674 627 674 661 c 0
 674 688 652 702 616 723 c 1
EndSplineSet
Substitution2: "'ruby' Ruby Notational Forms lookup 1-1" uni30E1.ruby
EndChar

StartChar: uni30E2
Encoding: 71 12514 65
Width: 1000
Flags: W
HStem: 24 66<501.905 800.902> 288 76<130.412 240.207> 374 70<666.054 882.578> 548 62<246.974 414.562>
VStem: 432 55<104.602 348> 437 75<402.731 562.347>
AnchorPoint: "overline" 500 800 basechar 0
AnchorPoint: "dot" 500 2 basechar 0
LayerCount: 2
Fore
SplineSet
201 650 m 1xf4
 217 657 l 1
 242 630 269 609 294 610 c 0
 374 611 530 634 593 646 c 0
 649 657 671 676 685 676 c 0
 736 676 773 656 774 634 c 0
 774 621 767 609 739 606 c 0
 679 600 555 585 469 574 c 1
 495 562 512 548 512 538 c 0xf4
 512 521 504 514 501 493 c 0
 498 470 496 438 494 401 c 1
 584 412 671 423 723 429 c 0
 781 437 797 444 817 444 c 0
 850 444 910 420 910 393 c 0
 910 377 901 365 879 365 c 0
 846 365 791 374 732 374 c 0
 676 374 587 365 491 355 c 1
 488 284 486 208 487 165 c 0
 487 108 502 90 593 90 c 0
 732 90 754 108 775 108 c 0
 822 108 844 85 844 70 c 0
 844 54 831 43 801 37 c 0
 764 30 691 24 610 24 c 0
 470 24 433 56 432 146 c 0xf8
 432 185 434 270 435 348 c 1
 369 338 288 324 251 313 c 0
 210 302 199 288 175 288 c 0
 150 288 108 323 96 355 c 0
 92 366 89 385 89 401 c 1
 104 407 l 1
 125 384 141 364 170 364 c 0
 211 364 347 384 436 394 c 1
 437 438 437 475 437 494 c 0
 437 530 429 549 415 568 c 1
 387 564 l 2
 350 559 314 548 290 548 c 0
 265 548 232 579 217 605 c 0
 210 617 206 633 201 650 c 1xf4
EndSplineSet
Substitution2: "'ruby' Ruby Notational Forms lookup 1-1" uni30E2.ruby
EndChar

StartChar: uni30E3
Encoding: 72 12515 66
Width: 1000
Flags: W
HStem: 255 68<223.913 311.822>
VStem: 505 78<-45.625 58.937>
AnchorPoint: "overline" 500 800 basechar 0
AnchorPoint: "dot" 500 2 basechar 0
LayerCount: 2
Fore
SplineSet
319 523 m 1
 316 538 l 1
 336 544 356 551 377 551 c 0
 410 551 461 533 461 516 c 0
 462 500 456 488 458 467 c 0
 460 451 468 411 477 374 c 1
 548 392 664 423 695 433 c 0
 712 438 724 454 735 454 c 0
 762 454 812 407 812 385 c 0
 812 370 785 368 772 355 c 0
 738 319 678 251 605 200 c 1
 593 211 l 1
 643 269 689 340 709 382 c 0
 714 393 710 394 700 392 c 0
 665 385 560 354 487 333 c 1
 513 232 548 104 564 51 c 0
 572 28 583 -4 583 -19 c 0
 583 -42 574 -55 552 -55 c 0
 525 -55 510 -31 505 1 c 0
 493 75 458 228 434 318 c 1
 391 305 344 289 327 283 c 0
 298 272 287 255 270 255 c 0
 247 255 210 283 199 306 c 0
 195 316 194 332 192 350 c 1
 204 356 l 1
 217 342 230 324 252 323 c 0
 271 322 351 342 423 360 c 1
 411 406 393 471 381 494 c 0
 372 514 352 519 319 523 c 1
EndSplineSet
Substitution2: "'ruby' Ruby Notational Forms lookup 1-1" uni30E3.ruby
EndChar

StartChar: uni30E4
Encoding: 73 12516 67
Width: 1000
Flags: W
HStem: 372 78<148.684 240.108> 716 20<267 299.617>
VStem: 519 85<-25.1914 86.9275>
AnchorPoint: "overline" 500 800 basechar 0
AnchorPoint: "dot" 500 2 basechar 0
LayerCount: 2
Fore
SplineSet
267 716 m 1
 264 736 l 1
 290 744 315 751 338 751 c 0
 381 751 438 728 439 708 c 0
 440 690 431 677 434 651 c 0
 438 628 451 567 464 515 c 1
 558 541 721 584 765 598 c 0
 787 604 798 623 813 623 c 0
 845 623 901 567 901 545 c 0
 901 527 869 524 854 507 c 0
 811 457 734 366 640 295 c 1
 620 312 l 1
 692 388 757 481 784 536 c 0
 791 553 786 554 774 551 c 0
 727 540 571 495 475 469 c 1
 510 337 561 161 581 93 c 0
 591 62 604 21 604 5 c 0
 604 -19 592 -35 569 -35 c 0
 538 -35 524 -10 519 26 c 0
 500 127 449 340 418 453 c 1
 359 436 288 414 267 406 c 0
 231 394 219 372 198 372 c 0
 172 372 126 405 110 435 c 0
 105 445 102 463 99 487 c 1
 118 496 l 1
 132 477 148 451 176 450 c 0
 199 449 308 475 406 500 c 1
 391 557 364 652 349 683 c 0
 337 709 314 712 267 716 c 1
EndSplineSet
Substitution2: "'ruby' Ruby Notational Forms lookup 1-1" uni30E4.ruby
EndChar

StartChar: uni30E5
Encoding: 74 12517 68
Width: 1000
Flags: W
HStem: 41 68<217.95 335.827> 92 61<611.869 800.494> 92 49<609 734.577> 344 67<332.626 439.608> 397 65<566.995 617.5>
VStem: 593 99<370.32 413>
AnchorPoint: "overline" 500 800 basechar 0
AnchorPoint: "dot" 500 2 basechar 0
LayerCount: 2
Fore
SplineSet
297 443 m 1x14
 309 448 l 1
 325 432 351 411 371 411 c 0x14
 409 411 530 432 566 440 c 0
 583 444 593 462 607 462 c 0
 628 462 692 423 692 403 c 0
 692 384 669 377 663 356 c 0
 652 319 627 214 609 141 c 1x2c
 634 143 658 144 679 145 c 0
 715 146 726 153 735 153 c 0
 769 153 833 122 833 95 c 0
 833 79 823 70 807 70 c 0
 784 70 726 89 641 92 c 0x44
 560 95 402 79 328 61 c 0
 296 53 279 41 260 41 c 0
 236 41 198 78 189 97 c 0
 183 109 181 120 179 143 c 1
 192 146 l 1
 209 127 229 109 256 109 c 0
 284 109 422 125 549 136 c 1
 565 220 587 345 593 388 c 0
 593 394 590 397 584 397 c 0x8c
 561 397 459 372 423 361 c 0
 404 355 391 344 374 344 c 0
 353 344 318 374 305 399 c 0
 298 412 297 430 297 443 c 1x14
EndSplineSet
Substitution2: "'ruby' Ruby Notational Forms lookup 1-1" uni30E5.ruby
EndChar

StartChar: uni30E6
Encoding: 75 12518 69
Width: 1000
Flags: W
HStem: 96 76<137.564 257.347> 161 58<643.862 812.437> 485 76<291.29 389.762>
AnchorPoint: "overline" 500 800 basechar 0
AnchorPoint: "dot" 500 2 basechar 0
LayerCount: 2
Fore
SplineSet
240 607 m 1xa0
 257 612 l 1
 274 594 310 561 333 561 c 0
 383 561 552 594 597 604 c 0
 620 609 629 629 646 629 c 0
 671 629 742 583 742 560 c 0
 742 537 714 531 707 505 c 0
 694 454 663 311 641 214 c 1
 678 216 713 218 745 219 c 0
 788 221 801 229 813 229 c 0
 854 229 933 195 933 161 c 0
 933 144 922 135 903 135 c 0
 877 135 811 157 710 161 c 0x60
 601 166 365 146 262 119 c 0
 224 110 207 96 184 96 c 0
 154 96 107 140 96 162 c 0
 88 175 85 190 83 217 c 1
 102 224 l 1
 123 198 146 172 181 172 c 0
 214 172 403 196 579 210 c 1
 601 317 631 479 638 544 c 0
 639 552 636 556 627 556 c 0
 596 556 446 523 399 510 c 0
 376 503 356 485 335 485 c 0
 311 485 266 523 251 551 c 0
 242 570 241 590 240 607 c 1xa0
EndSplineSet
Substitution2: "'ruby' Ruby Notational Forms lookup 1-1" uni30E6.ruby
EndChar

StartChar: uni30E7
Encoding: 76 12519 70
Width: 1000
Flags: W
HStem: 10 66<289.813 436.085> 206 64<318.349 465.975> 375 67<300.215 418.521> 422 66<596.973 684>
AnchorPoint: "overline" 500 800 basechar 0
AnchorPoint: "dot" 500 2 basechar 0
LayerCount: 2
Fore
SplineSet
267 476 m 1xe0
 282 481 l 1
 297 463 312 442 336 442 c 0xe0
 382 442 580 463 625 470 c 0
 651 473 656 488 673 488 c 0
 695 488 756 446 756 423 c 0
 756 405 733 399 730 376 c 0
 719 317 700 187 686 100 c 1
 709 93 729 77 729 63 c 0
 729 47 719 39 705 39 c 0
 689 39 653 46 621 46 c 0
 556 46 444 34 381 24 c 0
 363 20 343 10 330 10 c 0
 305 10 270 49 262 68 c 0
 258 77 253 94 253 109 c 1
 265 116 l 1
 282 97 297 76 325 76 c 0
 376 76 542 95 627 101 c 1
 632 140 637 194 643 246 c 1
 559 240 465 228 405 220 c 0
 382 216 371 206 357 206 c 0
 336 206 305 238 295 257 c 0
 289 267 285 285 284 298 c 1
 297 305 l 1
 313 289 332 270 355 270 c 0
 384 270 552 288 648 295 c 1
 654 346 659 391 662 414 c 0
 663 420 660 422 655 422 c 0xd0
 599 422 463 405 392 392 c 0
 371 387 353 375 338 375 c 0
 315 375 279 416 273 435 c 0
 269 448 268 464 267 476 c 1xe0
EndSplineSet
Substitution2: "'ruby' Ruby Notational Forms lookup 1-1" uni30E7.ruby
EndChar

StartChar: uni30E8
Encoding: 77 12520 71
Width: 1000
Flags: W
HStem: 53 73<230.689 370.725> 87 70<739.111 782.069> 310 70<268.528 421.93> 529 73<247.73 362.998> 588 73<691.077 745.5>
AnchorPoint: "overline" 500 800 basechar 0
AnchorPoint: "dot" 500 2 basechar 0
LayerCount: 2
Fore
SplineSet
200 650 m 1x30
 221 658 l 1
 239 634 257 602 290 602 c 0x30
 345 602 614 628 676 636 c 0
 709 641 713 661 732 661 c 0
 759 661 826 613 826 589 c 0
 826 568 798 560 794 532 c 0
 780 448 755 269 739 156 c 1
 767 150 793 133 793 115 c 0
 793 98 784 87 762 87 c 0x68
 741 87 688 99 636 99 c 0
 549 99 426 84 336 69 c 0
 316 66 293 53 276 53 c 0
 246 53 201 98 192 121 c 0
 187 132 180 155 179 172 c 1
 197 182 l 1
 217 158 238 126 274 126 c 0xa0
 344 126 569 151 680 157 c 1
 686 211 695 286 703 360 c 1
 590 352 460 336 374 326 c 0
 345 323 332 310 314 310 c 0
 288 310 246 346 236 370 c 0
 229 381 223 406 221 419 c 1
 241 430 l 1
 261 409 283 380 316 380 c 0
 351 380 581 405 708 412 c 1
 726 578 l 2
 727 585 724 588 716 588 c 0x68
 644 588 447 563 352 549 c 0
 330 545 308 529 290 529 c 0
 262 529 216 577 208 600 c 0
 204 613 201 636 200 650 c 1x30
EndSplineSet
Substitution2: "'ruby' Ruby Notational Forms lookup 1-1" uni30E8.ruby
EndChar

StartChar: uni30E9
Encoding: 78 12521 72
Width: 1000
Flags: W
HStem: 397 76<228.064 325.498> 638 54<326.637 546.84>
VStem: 178 19<514.438 521.316>
AnchorPoint: "overline" 500 800 basechar 0
AnchorPoint: "dot" 500 2 basechar 0
LayerCount: 2
Fore
SplineSet
192 462 m 0
 185 479 181 498 178 518 c 1
 197 527 l 1
 218 496 235 473 264 473 c 0
 323 473 614 511 684 521 c 0
 712 525 721 540 738 540 c 0
 768 540 829 489 829 464 c 0
 829 445 790 434 778 409 c 0
 678 213 529 53 270 -46 c 1
 256 -23 l 1
 478 91 638 264 717 460 c 0
 721 472 718 478 705 476 c 0
 624 468 405 436 337 422 c 0
 306 415 292 397 270 397 c 0
 246 397 202 438 192 462 c 0
723 706 m 0
 723 692 711 683 679 676 c 0
 605 662 480 638 391 638 c 0
 340 638 312 666 279 719 c 1
 294 732 l 1
 332 704 358 692 390 692 c 0
 452 692 502 704 553 715 c 0
 612 728 625 744 646 744 c 0
 689 744 723 730 723 706 c 0
EndSplineSet
Substitution2: "'ruby' Ruby Notational Forms lookup 1-1" uni30E9.ruby
EndChar

StartChar: uni30EA
Encoding: 79 12522 73
Width: 1000
Flags: W
HStem: 667 20<244 285.585> 707 39<568.036 627.476>
VStem: 312 71<223.88 429.188> 322 62<286.275 636.116> 647 64<283.59 635.348> 650 89<547.178 693.462>
AnchorPoint: "overline" 500 800 basechar 0
AnchorPoint: "dot" 500 2 basechar 0
LayerCount: 2
Fore
SplineSet
711 405 m 0xc8
 700 173 585 29 359 -56 c 1
 346 -34 l 1
 541 69 635 203 647 408 c 0xc8
 652 499 654 584 650 653 c 0
 648 670 646 684 628 694 c 0
 617 700 594 704 568 707 c 1
 567 727 l 1
 589 737 617 746 635 746 c 0
 673 746 739 707 739 686 c 0xc4
 739 665 722 659 720 627 c 0
 718 568 714 467 711 405 c 0xc8
296 653 m 0
 281 660 265 663 244 667 c 1
 244 687 l 1
 264 693 285 698 301 698 c 0
 338 698 399 662 399 637 c 0
 399 618 387 608 384 571 c 0xd0
 381 528 383 308 383 267 c 0
 383 229 369 217 351 217 c 0
 329 217 312 248 312 285 c 0xe0
 312 312 320 351 322 433 c 0xd0
 322 479 320 577 316 614 c 0
 314 638 313 646 296 653 c 0
EndSplineSet
Substitution2: "'ruby' Ruby Notational Forms lookup 1-1" uni30EA.ruby
EndChar

StartChar: uni30EB
Encoding: 80 12523 74
Width: 1000
Flags: W
HStem: 649 21<429 467.899>
VStem: 306 89<455.207 522.697> 489 73<114.5 387.262> 503 59<162.863 398.906> 508 67<336.583 613.877>
AnchorPoint: "overline" 500 800 basechar 0
AnchorPoint: "dot" 500 2 basechar 0
LayerCount: 2
Fore
SplineSet
429 649 m 1xc8
 427 670 l 1
 453 679 470 682 493 682 c 0
 533 682 598 646 598 622 c 0
 598 600 578 600 575 569 c 0xc8
 570 523 562 251 562 176 c 0
 562 162 568 160 578 163 c 0
 723 225 862 332 955 433 c 1
 976 416 l 1
 890 293 744 176 607 99 c 0
 584 85 571 57 551 57 c 0
 529 57 489 105 489 124 c 0xe0
 489 143 500 148 503 188 c 0xd0
 508 245 514 514 508 610 c 0
 507 635 480 644 429 649 c 1xc8
306 493 m 0
 306 524 255 536 231 542 c 1
 231 563 l 1
 246 567 267 572 289 570 c 0
 324 567 395 529 395 499 c 0
 395 478 376 471 371 446 c 0
 338 293 245 133 63 19 c 1
 46 40 l 1
 205 164 306 372 306 493 c 0
EndSplineSet
Substitution2: "'ruby' Ruby Notational Forms lookup 1-1" uni30EB.ruby
EndChar

StartChar: uni30EC
Encoding: 81 12524 75
Width: 1000
Flags: W
HStem: 639 37<188.126 252.42>
VStem: 268 68<315.678 596.05> 270 58<117.792 348.375>
AnchorPoint: "overline" 500 800 basechar 0
AnchorPoint: "dot" 500 2 basechar 0
LayerCount: 2
Fore
SplineSet
188 639 m 1xc0
 187 658 l 1
 211 667 237 676 255 676 c 0
 296 676 360 630 360 606 c 0
 360 589 339 577 336 545 c 0xc0
 331 490 328 216 328 124 c 0
 328 116 330 113 338 115 c 0
 519 173 751 332 887 476 c 1
 906 457 l 1
 783 292 592 151 379 49 c 0
 348 34 346 10 325 10 c 0
 301 10 253 65 253 87 c 0
 253 101 269 114 270 151 c 0xa0
 272 212 274 522 268 597 c 0
 267 614 257 628 188 639 c 1xc0
EndSplineSet
Substitution2: "'ruby' Ruby Notational Forms lookup 1-1" uni30EC.ruby
EndChar

StartChar: uni30ED
Encoding: 82 12525 76
Width: 1000
Flags: W
HStem: 130 50<311 525.533> 144 59<446.406 673.603 733 788.379> 521 51<294.657 499> 553 75<685.684 739.5>
VStem: 241 71<62.0432 131.311 180 412.62>
AnchorPoint: "overline" 500 800 basechar 0
AnchorPoint: "dot" 500 2 basechar 0
LayerCount: 2
Fore
SplineSet
310 180 m 1xa8
 417 187 577 199 670 203 c 1
 689 317 712 486 712 542 c 0
 712 550 709 553 700 553 c 0x58
 636 553 468 540 413 534 c 0
 380 531 352 521 334 521 c 0
 323 521 308 527 294 534 c 1
 297 473 306 291 310 180 c 1xa8
284 572 m 1xa8
 383 576 630 598 669 603 c 0
 704 606 708 628 727 628 c 0
 752 628 821 572 821 548 c 0
 821 525 790 518 784 491 c 0
 775 447 753 312 733 203 c 1
 769 200 794 186 794 167 c 0
 794 150 786 138 765 138 c 0
 743 138 690 144 644 144 c 0x58
 566 144 431 137 311 130 c 1
 312 117 312 105 312 90 c 0
 312 65 303 53 282 53 c 0
 263 53 241 80 241 121 c 0
 241 141 244 203 244 246 c 0
 243 321 231 464 216 523 c 0
 207 559 190 582 162 607 c 1
 176 624 l 1
 218 612 251 602 284 572 c 1xa8
EndSplineSet
Substitution2: "'ruby' Ruby Notational Forms lookup 1-1" uni30ED.ruby
EndChar

StartChar: uni30EE
Encoding: 83 12526 77
Width: 1000
Flags: W
HStem: 412 44<348.561 550.055> 440 60<632.444 716>
VStem: 295 68<200.402 421.889>
AnchorPoint: "overline" 500 800 basechar 0
AnchorPoint: "dot" 500 2 basechar 0
LayerCount: 2
Fore
SplineSet
231 506 m 1xa0
 241 517 l 1
 279 504 313 491 339 464 c 0
 341 461 343 459 344 456 c 0xa0
 419 459 594 473 657 481 c 0
 672 483 689 500 703 500 c 0
 729 500 781 453 781 434 c 0
 781 418 750 409 746 393 c 0
 686 188 547 33 352 -51 c 1
 340 -35 l 1
 521 73 654 242 683 429 c 0
 684 437 681 440 673 440 c 0x60
 642 440 552 433 499 427 c 0
 443 421 401 412 382 412 c 0
 370 412 360 416 348 424 c 1
 351 380 362 269 363 234 c 0
 364 211 360 192 335 192 c 0
 309 192 295 236 295 257 c 0
 295 276 299 293 298 319 c 0
 296 347 291 396 284 425 c 0
 277 452 262 477 231 506 c 1xa0
EndSplineSet
Substitution2: "'ruby' Ruby Notational Forms lookup 1-1" uni30EE.ruby
EndChar

StartChar: uni30EF
Encoding: 84 12527 78
Width: 1000
Flags: W
HStem: 574 53<290.749 490.584> 615 68<707.041 782.5>
VStem: 237 74<302.504 583.495>
AnchorPoint: "overline" 500 800 basechar 0
AnchorPoint: "dot" 500 2 basechar 0
LayerCount: 2
Fore
SplineSet
151 692 m 1xa0
 165 708 l 1
 210 691 247 671 278 640 c 0
 282 636 284 632 286 627 c 1xa0
 379 631 617 651 713 662 c 0
 732 664 752 683 768 683 c 0
 797 683 858 627 858 605 c 0
 858 587 821 572 816 553 c 0
 737 291 554 86 303 -29 c 1
 288 -6 l 1
 524 133 700 357 748 603 c 0
 749 611 747 615 737 615 c 0x60
 696 615 568 604 493 596 c 0
 418 588 359 574 335 574 c 0
 321 574 306 580 290 589 c 1
 295 533 309 388 311 343 c 0
 313 314 310 290 282 290 c 0
 250 290 237 346 237 370 c 0
 237 396 241 416 239 450 c 0
 237 490 230 556 220 593 c 0
 211 625 193 654 151 692 c 1xa0
EndSplineSet
Substitution2: "'ruby' Ruby Notational Forms lookup 1-1" uni30EF.ruby
EndChar

StartChar: uni30F0
Encoding: 85 12528 79
Width: 1000
Flags: W
HStem: 182 74<119.104 238.866> 245 81<664.766 900.629> 472 65<230.355 357.264> 530 70<685.86 847.271> 739 22<482 537.075>
VStem: 330 55<280 454.393> 546 72<-47.8535 251.194> 561 83<645.382 727.164> 561 52<16.8958 254 305 513 569 689.972>
AnchorPoint: "overline" 500 800 basechar 0
AnchorPoint: "dot" 500 2 basechar 0
LayerCount: 2
Fore
SplineSet
385 280 m 1x0c80
 446 287 508 295 559 300 c 1
 560 378 561 462 561 513 c 1
 504 507 424 497 368 489 c 1
 385 480 402 466 402 455 c 0
 402 442 391 432 389 408 c 0
 387 374 386 332 385 280 c 1x0c80
482 739 m 1
 482 761 l 1
 506 768 528 773 549 772 c 0
 588 769 644 739 644 716 c 0xad
 644 697 631 693 625 662 c 0
 619 629 616 601 615 569 c 1
 655 574 686 578 700 580 c 0
 759 588 775 600 787 600 c 0
 811 600 864 580 864 552 c 0
 864 537 849 531 830 530 c 0
 792 529 690 523 613 517 c 1x1c80
 612 465 611 384 611 305 c 1
 770 319 810 326 836 326 c 0
 862 326 934 297 934 269 c 0
 934 250 922 245 908 245 c 0
 867 244 813 267 612 257 c 1
 612 204 613 153 614 116 c 0
 616 66 618 11 618 -13 c 0
 618 -42 609 -57 590 -57 c 0
 561 -57 546 -19 546 16 c 0x5e
 546 35 553 61 556 119 c 0
 557 143 558 194 558 254 c 1
 439 245 291 215 243 205 c 0
 211 197 188 182 165 182 c 0
 135 182 92 225 81 247 c 0
 73 262 70 281 68 302 c 1
 87 310 l 1
 105 285 125 256 160 256 c 0
 184 256 252 264 330 273 c 1
 330 318 330 389 329 413 c 0
 328 453 325 469 312 479 c 1
 293 476 274 472 263 472 c 0
 241 472 210 508 198 533 c 0
 193 543 188 560 186 577 c 1
 201 585 l 1
 226 561 250 537 285 537 c 0
 325 537 456 551 561 563 c 1xac80
 561 618 563 672 561 699 c 0xad
 558 730 535 731 482 739 c 1
EndSplineSet
Substitution2: "'ruby' Ruby Notational Forms lookup 1-1" uni30F0.ruby
EndChar

StartChar: uni30F1
Encoding: 86 12529 80
Width: 1000
Flags: W
HStem: 52 77<137.564 257.222> 117 58<539.627 812.437> 499 77<234.426 330.964> 588 64<687.53 750.5>
VStem: 476 56<161 366.969> 479 67<164.481 377.827>
AnchorPoint: "overline" 500 800 basechar 0
AnchorPoint: "dot" 500 2 basechar 0
LayerCount: 2
Fore
SplineSet
546 367 m 1xb4
 546 365 l 1xb4
 542 326 537 235 532 161 c 1
 607 167 682 173 745 175 c 0
 788 178 801 187 813 187 c 0
 854 187 933 152 933 117 c 0
 933 100 922 91 903 91 c 0
 877 91 811 113 710 117 c 0x78
 601 123 365 102 262 75 c 0
 224 66 207 52 184 52 c 0
 154 52 107 97 96 119 c 0
 88 132 85 147 83 174 c 1
 102 181 l 1
 123 154 146 129 181 129 c 0
 208 129 335 143 476 156 c 1xb8
 479 232 482 340 479 388 c 0
 477 415 454 421 414 426 c 1
 414 446 l 1
 430 452 449 456 465 456 c 0
 490 456 550 436 553 417 c 0
 554 415 554 413 554 410 c 1
 629 467 704 534 726 569 c 0
 735 583 731 588 715 588 c 0
 667 586 415 542 342 524 c 0
 317 517 299 499 280 499 c 0
 250 499 209 539 196 566 c 0
 190 579 183 599 181 625 c 1
 201 634 l 1
 219 611 241 576 275 576 c 0
 328 576 643 622 696 632 c 0
 715 636 722 652 738 652 c 0
 763 652 839 589 839 562 c 0
 839 539 800 535 782 523 c 0
 742 494 650 424 546 367 c 1xb4
EndSplineSet
Substitution2: "'ruby' Ruby Notational Forms lookup 1-1" uni30F1.ruby
EndChar

StartChar: uni30F2
Encoding: 87 12530 81
Width: 1000
Flags: W
HStem: 353 70<256.629 384.618> 564 73<260.58 389.809> 626 73<704.861 754.5>
AnchorPoint: "overline" 500 800 basechar 0
AnchorPoint: "dot" 500 2 basechar 0
LayerCount: 2
Fore
SplineSet
210 684 m 1xc0
 230 692 l 1
 248 669 271 637 304 637 c 0xc0
 359 637 640 667 689 673 c 0
 714 676 724 699 741 699 c 0
 768 699 847 645 847 613 c 0
 847 592 809 584 799 552 c 0
 703 268 536 75 242 -43 c 1
 226 -19 l 1
 427 88 576 226 666 412 c 1
 564 406 423 382 372 372 c 0
 330 364 322 353 302 353 c 0
 276 353 236 389 225 411 c 0
 218 424 214 441 212 462 c 1
 231 469 l 1
 255 437 268 423 299 423 c 0
 352 423 557 454 602 461 c 0
 622 464 636 470 648 470 c 0
 660 470 675 466 688 462 c 1
 707 508 723 556 735 608 c 0
 740 625 734 626 722 626 c 0xa0
 685 626 432 594 376 583 c 0
 341 576 329 564 308 564 c 0
 280 564 235 602 222 629 c 0
 217 641 213 658 210 684 c 1xc0
EndSplineSet
Substitution2: "'ruby' Ruby Notational Forms lookup 1-1" uni30F2.ruby
EndChar

StartChar: uni30F3
Encoding: 88 12531 82
Width: 1000
Flags: W
HStem: 24 87<266.707 357.6> 662 21<204 208.052>
AnchorPoint: "overline" 500 800 basechar 0
AnchorPoint: "dot" 500 2 basechar 0
LayerCount: 2
Fore
SplineSet
196 662 m 1
 208 683 l 1
 322 651 460 583 460 506 c 0
 460 484 446 469 425 469 c 0
 409 469 396 480 370 511 c 0
 322 569 284 604 196 662 c 1
295 111 m 0
 372 111 738 376 880 589 c 1
 903 574 l 1
 783 361 597 201 378 61 c 0
 358 49 347 24 325 24 c 0
 286 24 226 71 206 101 c 0
 196 118 187 150 185 166 c 1
 201 176 l 1
 231 143 263 111 295 111 c 0
EndSplineSet
Substitution2: "'ruby' Ruby Notational Forms lookup 1-1" uni30F3.ruby
EndChar

StartChar: uni30F4
Encoding: 89 12532 83
Width: 1000
Flags: W
HStem: 499 48<259.654 452.802> 533 66<690.314 760> 725 20<381 412.025>
VStem: 214 72<242.338 461.653> 454 88<656.835 715.388> 456 58<565 678.85>
AnchorPoint: "overline" 500 800 basechar 0
AnchorPoint: "dot" 500 2 basechar 0
LayerCount: 2
Fore
SplineSet
381 725 m 1xb8
 380 745 l 1
 403 753 422 759 443 759 c 0
 485 759 542 724 542 704 c 0xb8
 542 685 521 679 519 649 c 0
 517 628 515 593 514 565 c 1
 579 569 653 573 694 578 c 0
 712 580 729 599 745 599 c 0
 775 599 829 545 829 522 c 0
 829 504 797 492 790 473 c 0
 700 235 555 53 308 -67 c 1
 291 -46 l 1
 505 81 669 296 720 517 c 0
 723 531 721 533 707 533 c 0x74
 442 525 333 499 297 499 c 0
 284 499 273 503 259 512 c 1
 263 468 286 282 286 264 c 0
 287 242 275 232 259 231 c 0
 232 229 211 279 210 308 c 0
 209 320 214 338 214 355 c 0
 214 388 201 469 193 499 c 0
 184 538 156 563 129 592 c 1
 141 609 l 1
 170 597 198 587 221 572 c 0
 236 562 245 555 250 547 c 1
 306 549 388 556 456 561 c 1xb4
 456 597 455 656 454 680 c 0
 453 702 452 708 436 714 c 0
 423 720 401 723 381 725 c 1xb8
717 730 m 1
 730 747 l 1
 782 727 819 704 845 682 c 0
 870 659 879 641 879 621 c 0
 879 605 869 595 854 595 c 0
 838 595 828 617 807 643 c 0
 787 669 761 699 717 730 c 1
808 791 m 1
 820 809 l 1
 872 790 908 771 934 750 c 0
 962 728 972 709 972 689 c 0
 972 672 962 664 947 664 c 0
 930 664 921 686 899 711 c 0
 877 736 854 760 808 791 c 1
EndSplineSet
Substitution2: "'ruby' Ruby Notational Forms lookup 1-1" uni30F4.ruby
EndChar

StartChar: uni30F5
Encoding: 90 12533 84
Width: 1000
Flags: W
HStem: 291 68<264.598 366.477> 358 62<641.269 707>
VStem: 499 85<470.728 525.435> 684 83<331.615 370.5>
AnchorPoint: "overline" 500 800 basechar 0
AnchorPoint: "dot" 500 2 basechar 0
LayerCount: 2
Fore
SplineSet
439 537 m 1xb0
 438 551 l 1
 454 556 479 563 496 563 c 0
 530 563 584 532 584 512 c 0
 584 492 567 492 560 463 c 0
 556 444 549 414 543 386 c 1
 589 392 631 397 657 400 c 0
 677 402 684 420 698 420 c 0
 716 420 767 380 767 361 c 0
 767 343 746 344 742 321 c 0
 729 226 707 123 664 38 c 0
 644 0 605 -27 574 -27 c 0
 557 -27 550 -19 546 0 c 0
 539 27 517 41 471 77 c 1
 480 90 l 1
 516 75 554 60 571 56 c 0
 591 51 598 52 608 65 c 0
 656 123 684 301 684 349 c 0
 684 354 681 358 675 358 c 0x70
 639 358 578 350 532 342 c 1
 504 246 437 49 209 -60 c 1
 197 -46 l 1
 372 77 433 221 467 332 c 1
 423 325 367 313 346 308 c 0
 323 302 315 291 299 291 c 0
 278 291 246 330 239 350 c 0
 233 366 233 384 235 402 c 1
 249 406 l 1
 261 383 273 359 296 359 c 0
 318 359 398 368 479 378 c 1
 489 419 499 474 499 497 c 0
 499 511 496 518 484 523 c 0
 471 529 452 533 439 537 c 1xb0
EndSplineSet
Substitution2: "'ruby' Ruby Notational Forms lookup 1-1" uni30F5.ruby
EndChar

StartChar: uni30F6
Encoding: 91 12534 85
Width: 1000
Flags: W
HStem: 327 49<404.357 522.42> 358 65<664.694 789.606>
VStem: 399 83<469.014 532.524> 534 80<258.094 326.665>
AnchorPoint: "overline" 500 800 basechar 0
AnchorPoint: "dot" 500 2 basechar 0
LayerCount: 2
Fore
SplineSet
366 559 m 1xb0
 372 571 l 1
 395 567 416 562 431 553 c 0
 454 541 482 516 482 500 c 0
 482 485 468 481 457 464 c 0
 441 435 423 407 404 380 c 1
 413 377 422 376 430 376 c 0xb0
 471 376 634 400 675 406 c 0
 710 411 717 423 730 423 c 0
 759 423 800 405 800 382 c 0
 800 368 796 358 768 358 c 0x70
 744 358 699 358 663 356 c 0
 638 354 597 350 558 346 c 1
 591 332 614 312 614 298 c 0
 614 283 600 276 593 259 c 0
 542 134 448 23 296 -54 c 1
 283 -40 l 1
 433 59 534 229 534 303 c 0
 534 319 526 331 512 341 c 1
 474 336 l 2
 455 333 438 327 423 327 c 0
 412 327 396 338 382 350 c 1
 337 292 280 240 205 192 c 1
 193 204 l 1
 308 302 399 456 399 509 c 0
 399 527 389 539 366 559 c 1xb0
EndSplineSet
Substitution2: "'ruby' Ruby Notational Forms lookup 1-1" uni30F6.ruby
EndChar

StartChar: uni30F7
Encoding: 92 12535 86
Width: 1000
Flags: W
HStem: 552 53<258.749 458.584> 593 68<675.041 750.5>
VStem: 205 74<280.504 561.495>
AnchorPoint: "overline" 500 800 basechar 0
AnchorPoint: "dot" 500 2 basechar 0
LayerCount: 2
Fore
SplineSet
119 670 m 1xa0
 133 686 l 1
 178 669 215 649 246 618 c 0
 250 614 252 610 254 605 c 1xa0
 347 609 585 629 681 640 c 0
 700 642 720 661 736 661 c 0
 765 661 826 605 826 583 c 0
 826 565 789 550 784 531 c 0
 705 269 522 64 271 -51 c 1
 256 -28 l 1
 492 111 668 335 716 581 c 0
 717 589 715 593 705 593 c 0x60
 664 593 536 582 461 574 c 0
 386 566 327 552 303 552 c 0
 289 552 274 558 258 567 c 1
 263 511 277 366 279 321 c 0
 281 292 278 268 250 268 c 0
 218 268 205 324 205 348 c 0
 205 374 209 394 207 428 c 0
 205 468 198 534 188 571 c 0
 179 603 161 632 119 670 c 1xa0
735 745 m 1
 748 763 l 1
 799 742 837 720 863 697 c 0
 887 674 897 657 897 637 c 0
 897 620 888 611 873 611 c 0
 859 611 847 634 827 659 c 0
 806 684 779 715 735 745 c 1
818 809 m 1
 830 826 l 1
 881 808 920 788 943 768 c 0
 971 746 981 728 981 707 c 0
 981 690 973 681 958 681 c 0
 941 681 931 704 910 729 c 0
 888 754 863 777 818 809 c 1
EndSplineSet
Substitution2: "'ruby' Ruby Notational Forms lookup 1-1" uni30F7.ruby
EndChar

StartChar: uni30F8
Encoding: 93 12536 87
Width: 1000
Flags: W
HStem: 172 74<97.104 216.866> 235 81<642.766 878.629> 462 65<208.355 335.264> 520 70<663.86 825.271> 729 22<460 515.075>
VStem: 308 55<270 444.393> 524 72<-57.8535 241.194> 539 83<635.382 717.164> 539 52<6.89585 244 295 503 559 679.972>
AnchorPoint: "overline" 500 800 basechar 0
AnchorPoint: "dot" 500 2 basechar 0
LayerCount: 2
Fore
SplineSet
726 722 m 1x0c
 738 740 l 1
 788 720 825 697 849 676 c 0
 874 653 884 636 884 616 c 0
 884 600 874 591 860 591 c 0
 845 591 834 613 814 638 c 0
 793 663 768 691 726 722 c 1x0c
363 270 m 1
 424 277 486 285 537 290 c 1
 538 368 539 452 539 503 c 1x0c80
 482 497 402 487 346 479 c 1
 363 470 380 456 380 445 c 0
 380 432 369 422 367 398 c 0
 365 364 364 322 363 270 c 1
460 729 m 1
 460 751 l 1
 484 758 506 763 527 762 c 0
 566 759 622 729 622 706 c 0xad
 622 687 609 683 603 652 c 0
 597 619 594 591 593 559 c 1
 633 564 664 568 678 570 c 0
 737 578 753 590 765 590 c 0
 789 590 842 570 842 542 c 0
 842 527 827 521 808 520 c 0
 770 519 668 513 591 507 c 1x1c80
 590 455 589 374 589 295 c 1
 748 309 788 316 814 316 c 0
 840 316 912 287 912 259 c 0
 912 240 900 235 886 235 c 0
 845 234 791 257 590 247 c 1
 590 194 591 143 592 106 c 0
 594 56 596 1 596 -23 c 0
 596 -52 587 -67 568 -67 c 0
 539 -67 524 -29 524 6 c 0x5e
 524 25 531 51 534 109 c 0
 535 133 536 184 536 244 c 1
 417 235 269 205 221 195 c 0
 189 187 166 172 143 172 c 0
 113 172 70 215 59 237 c 0
 51 252 48 271 46 292 c 1
 65 300 l 1
 83 275 103 246 138 246 c 0
 162 246 230 254 308 263 c 1
 308 308 308 379 307 403 c 0
 306 443 303 459 290 469 c 1
 271 466 252 462 241 462 c 0
 219 462 188 498 176 523 c 0
 171 533 166 550 164 567 c 1
 179 575 l 1
 204 551 228 527 263 527 c 0
 303 527 434 541 539 553 c 1xac80
 539 608 541 662 539 689 c 0xad
 536 720 513 721 460 729 c 1
811 783 m 1
 824 800 l 1
 874 782 910 763 933 744 c 0
 961 723 972 704 972 684 c 0
 972 669 963 658 948 658 c 0
 931 658 922 680 901 705 c 0
 878 730 855 752 811 783 c 1
EndSplineSet
Substitution2: "'ruby' Ruby Notational Forms lookup 1-1" uni30F8.ruby
EndChar

StartChar: uni30F9
Encoding: 94 12537 88
Width: 1000
Flags: W
HStem: 33 77<123.564 243.222> 98 58<525.627 798.437> 480 77<220.426 316.964> 569 64<673.53 736.5>
VStem: 462 56<142 347.969> 465 67<145.481 358.827>
AnchorPoint: "overline" 500 800 basechar 0
AnchorPoint: "dot" 500 2 basechar 0
LayerCount: 2
Fore
SplineSet
734 721 m 1x30
 747 738 l 1
 796 718 834 696 858 675 c 0
 883 652 893 634 893 614 c 0
 893 598 883 590 869 590 c 0
 854 590 843 611 822 636 c 0
 801 662 777 690 734 721 c 1x30
532 348 m 1xb4
 532 346 l 1xb4
 528 307 523 216 518 142 c 1
 593 148 668 154 731 156 c 0
 774 159 787 168 799 168 c 0
 840 168 919 133 919 98 c 0
 919 81 908 72 889 72 c 0
 863 72 797 94 696 98 c 0x78
 587 104 351 83 248 56 c 0
 210 47 193 33 170 33 c 0
 140 33 93 78 82 100 c 0
 74 113 71 128 69 155 c 1
 88 162 l 1
 109 135 132 110 167 110 c 0
 194 110 321 124 462 137 c 1xb8
 465 213 468 321 465 369 c 0
 463 396 440 402 400 407 c 1
 400 427 l 1
 416 433 435 437 451 437 c 0
 476 437 536 417 539 398 c 0
 540 396 540 394 540 391 c 1
 615 448 690 515 712 550 c 0
 721 564 717 569 701 569 c 0
 653 567 401 523 328 505 c 0
 303 498 285 480 266 480 c 0
 236 480 195 520 182 547 c 0
 176 560 169 580 167 606 c 1
 187 615 l 1
 205 592 227 557 261 557 c 0
 314 557 629 603 682 613 c 0
 701 617 708 633 724 633 c 0
 749 633 825 570 825 543 c 0
 825 520 786 516 768 504 c 0
 728 475 636 405 532 348 c 1xb4
812 781 m 1
 824 799 l 1
 874 780 910 761 934 743 c 0
 961 722 972 702 972 682 c 0
 972 667 963 656 948 656 c 0
 931 656 923 679 901 703 c 0
 878 729 855 750 812 781 c 1
EndSplineSet
Substitution2: "'ruby' Ruby Notational Forms lookup 1-1" uni30F9.ruby
EndChar

StartChar: uni30FA
Encoding: 95 12538 89
Width: 1000
Flags: W
HStem: 334 70<220.629 348.618> 545 73<224.58 353.809> 607 73<668.861 718.5>
AnchorPoint: "overline" 500 800 basechar 0
AnchorPoint: "dot" 500 2 basechar 0
LayerCount: 2
Fore
SplineSet
174 665 m 1xc0
 194 673 l 1
 212 650 235 618 268 618 c 0xc0
 323 618 604 648 653 654 c 0
 678 657 688 680 705 680 c 0
 732 680 811 626 811 594 c 0
 811 573 773 565 763 533 c 0
 667 249 500 56 206 -62 c 1
 190 -38 l 1
 391 69 540 207 630 393 c 1
 528 387 387 363 336 353 c 0
 294 345 286 334 266 334 c 0
 240 334 200 370 189 392 c 0
 182 405 178 422 176 443 c 1
 195 450 l 1
 219 418 232 404 263 404 c 0
 316 404 521 435 566 442 c 0
 586 445 600 451 612 451 c 0
 624 451 639 447 652 443 c 1
 671 489 687 537 699 589 c 0
 704 606 698 607 686 607 c 0xa0
 649 607 396 575 340 564 c 0
 305 557 293 545 272 545 c 0
 244 545 199 583 186 610 c 0
 181 622 177 639 174 665 c 1xc0
728 755 m 1
 741 773 l 1
 792 751 829 729 855 706 c 0
 879 684 890 667 890 646 c 0
 890 630 880 620 866 620 c 0
 851 620 840 643 819 669 c 0
 798 694 771 724 728 755 c 1
811 817 m 1
 824 834 l 1
 875 816 914 797 937 777 c 0
 964 754 975 736 975 715 c 0
 975 698 965 689 950 689 c 0
 934 689 925 712 903 737 c 0
 881 762 858 786 811 817 c 1
EndSplineSet
Substitution2: "'ruby' Ruby Notational Forms lookup 1-1" uni30FA.ruby
EndChar

StartChar: uni30FB
Encoding: 96 12539 90
Width: 1000
Flags: W
HStem: 288 184<441.401 558.599>
VStem: 408 184<321.401 438.599>
AnchorPoint: "overline" 500 800 basechar 0
LayerCount: 2
Fore
SplineSet
592 380 m 0
 592 329 551 288 500 288 c 0
 449 288 408 329 408 380 c 0
 408 431 449 472 500 472 c 0
 551 472 592 431 592 380 c 0
EndSplineSet
Substitution2: "'ruby' Ruby Notational Forms lookup 1-1" uni30FB.ruby
EndChar

StartChar: uni30FC
Encoding: 97 12540 91
Width: 1000
Flags: W
HStem: 278 80<157.133 301.469> 321 73<571.055 878.016> 323 60<493.589 805.78>
AnchorPoint: "overline" 500 800 basechar 0
LayerCount: 2
Fore
SplineSet
101 417 m 5x80
 121 423 l 5
 143 389 159 358 201 358 c 4x80
 290 358 640 381 686 383 c 4x20
 753 388 781 394 807 394 c 4
 845 394 890 377 890 350 c 4
 890 332 880 321 846 321 c 4x40
 811 321 776 323 715 323 c 4x20
 652 323 371 308 296 299 c 4
 239 293 228 278 199 278 c 4
 171 278 124 327 110 361 c 4
 103 380 102 397 101 417 c 5x80
EndSplineSet
Substitution2: "'ruby' Ruby Notational Forms lookup 1-1" uni30FC.ruby
EndChar

StartChar: uni30FD
Encoding: 98 12541 92
Width: 1000
Flags: W
VStem: 572 96<186.736 295.689>
AnchorPoint: "overline" 500 800 basechar 0
LayerCount: 2
Fore
SplineSet
357 528 m 1
 371 548 l 1
 506 487 576 419 620 353 c 0
 656 299 668 255 668 216 c 0
 668 185 649 169 627 169 c 0
 601 169 586 188 572 237 c 0
 537 355 477 448 357 528 c 1
EndSplineSet
Substitution2: "'ruby' Ruby Notational Forms lookup 1-1" uni30FD.ruby
EndChar

StartChar: uni30FE
Encoding: 99 12542 93
Width: 1000
Flags: W
VStem: 572 96<186.736 295.689>
AnchorPoint: "overline" 500 800 basechar 0
LayerCount: 2
Fore
SplineSet
705 480 m 0
 690 480 679 503 658 529 c 0
 637 555 609 587 565 619 c 1
 579 637 l 1
 632 615 670 592 697 568 c 0
 722 545 732 527 732 506 c 0
 732 489 721 479 705 480 c 0
804 561 m 0
 788 561 776 584 754 610 c 0
 732 636 708 661 661 693 c 1
 674 711 l 1
 727 692 766 672 792 651 c 0
 818 629 830 609 830 588 c 0
 830 570 819 561 804 561 c 0
357 528 m 1
 371 548 l 1
 506 487 576 419 620 353 c 0
 656 299 668 255 668 216 c 0
 668 185 649 169 627 169 c 0
 601 169 586 188 572 237 c 0
 537 355 477 448 357 528 c 1
EndSplineSet
Substitution2: "'ruby' Ruby Notational Forms lookup 1-1" uni30FE.ruby
EndChar

StartChar: uni30FF
Encoding: 100 12543 94
Width: 1000
Flags: W
HStem: 617 84<223.305 319.735>
VStem: 168 21<745.814 754.667> 628 91<-22.9418 151.749> 646 69<52.1676 384.55> 656 72<433.852 667.831>
AnchorPoint: "overline" 500 800 basechar 0
LayerCount: 2
Fore
SplineSet
646 149 m 0xd0
 652 242 660 563 656 670 c 0
 656 683 651 688 639 687 c 0
 581 682 427 665 340 645 c 0
 309 639 288 617 268 617 c 0
 238 617 195 662 183 687 c 0
 178 701 171 728 168 752 c 1
 189 760 l 1
 206 736 224 703 261 701 c 0
 314 699 564 724 610 732 c 0
 654 741 659 764 681 764 c 0
 703 764 772 712 772 696 c 0
 772 682 761 676 747 666 c 0
 734 656 731 646 728 618 c 0xc8
 717 508 715 218 715 154 c 0xd0
 715 106 719 56 719 19 c 0
 720 -25 710 -49 684 -49 c 0
 660 -49 628 -4 628 51 c 0xe0
 628 76 642 95 646 149 c 0xd0
EndSplineSet
Substitution2: "'ruby' Ruby Notational Forms lookup 1-1" uni30FF.ruby
EndChar

StartChar: uni31F0
Encoding: 101 12784 95
Width: 1000
Flags: W
HStem: 398 47<640.259 757.32>
VStem: 601 87<485.889 544.283>
AnchorPoint: "overline" 500 800 basechar 0
AnchorPoint: "dot" 500 2 basechar 0
LayerCount: 2
Fore
SplineSet
640 445 m 1
 651 445 l 2
 681 445 769 455 788 460 c 0
 808 465 816 481 829 481 c 0
 849 481 905 448 905 424 c 0
 905 407 880 402 868 382 c 0
 767 200 618 51 401 -34 c 1
 390 -18 l 1
 576 80 745 265 804 412 c 0
 808 422 805 426 796 425 c 0
 772 423 717 413 692 407 c 0
 676 403 664 398 652 398 c 0
 643 398 631 405 619 415 c 1
 560 339 482 271 394 227 c 1
 384 241 l 1
 498 328 601 474 601 518 c 0
 601 531 582 545 558 556 c 1
 562 568 l 1
 574 569 588 571 607 568 c 0
 643 563 688 538 688 523 c 0
 688 509 679 504 667 486 c 0
 659 472 650 458 640 445 c 1
EndSplineSet
Substitution2: "'ruby' Ruby Notational Forms lookup 1-1" uni31F0.ruby
EndChar

StartChar: uni31F1
Encoding: 102 12785 96
Width: 1000
Flags: W
HStem: 0 75<454.279 540.865> 369 14<384.5 392.66> 397 99<594.222 631.219> 513 15<479.733 487.918>
AnchorPoint: "overline" 500 800 basechar 0
AnchorPoint: "dot" 500 2 basechar 0
LayerCount: 2
Fore
SplineSet
554 458 m 0
 527 481 498 501 476 513 c 1
 483 528 l 1
 519 520 553 512 592 496 c 0
 630 480 659 460 659 426 c 0
 659 410 648 397 632 397 c 0
 606 397 592 425 554 458 c 0
476 75 m 0
 547 75 806 244 935 413 c 1
 949 403 l 1
 868 255 712 123 554 31 c 0
 536 20 527 0 506 0 c 0
 480 0 433 32 416 59 c 0
 405 73 400 102 398 116 c 1
 409 121 l 1
 427 101 451 75 476 75 c 0
465 310 m 0
 434 337 409 354 381 369 c 1
 388 383 l 1
 422 377 453 370 484 358 c 0
 532 342 568 316 568 282 c 0
 568 268 560 253 540 253 c 0
 513 253 499 280 465 310 c 0
EndSplineSet
Substitution2: "'ruby' Ruby Notational Forms lookup 1-1" uni31F1.ruby
EndChar

StartChar: uni31F2
Encoding: 103 12786 97
Width: 1000
Flags: W
HStem: 386 67<470.309 563.567>
AnchorPoint: "overline" 500 800 basechar 0
AnchorPoint: "dot" 500 2 basechar 0
LayerCount: 2
Fore
SplineSet
437 491 m 1
 451 496 l 1
 465 478 481 453 505 453 c 0
 549 453 685 479 723 488 c 0
 740 493 750 509 762 509 c 0
 787 509 839 464 839 446 c 0
 839 429 813 420 804 406 c 0
 779 370 741 304 690 248 c 1
 808 201 922 125 922 57 c 0
 922 40 911 22 890 22 c 0
 867 22 853 45 819 86 c 0
 777 142 738 187 672 229 c 1
 606 158 498 65 345 10 c 1
 335 27 l 1
 506 116 683 291 745 438 c 0
 749 449 744 450 736 449 c 0
 693 443 595 417 558 406 c 0
 533 400 528 386 510 386 c 0
 485 386 454 421 445 443 c 0
 441 454 437 471 437 491 c 1
EndSplineSet
Substitution2: "'ruby' Ruby Notational Forms lookup 1-1" uni31F2.ruby
EndChar

StartChar: uni31F3
Encoding: 104 12787 98
Width: 1000
Flags: W
VStem: 555 71<-16.8254 283.788> 571 55<103.435 319 341.832 502.562>
AnchorPoint: "overline" 500 800 basechar 0
AnchorPoint: "dot" 500 2 basechar 0
LayerCount: 2
Fore
SplineSet
509 536 m 1x40
 508 550 l 1
 527 556 548 563 566 562 c 0
 597 561 650 533 650 513 c 0
 650 497 636 492 632 466 c 0
 628 434 627 387 626 346 c 1
 697 332 766 309 806 285 c 0
 832 269 852 250 852 221 c 0
 852 205 841 189 820 189 c 0
 788 189 782 220 733 259 c 0
 705 280 672 301 626 319 c 1x40
 624 261 625 151 626 79 c 0
 626 45 628 21 628 10 c 0
 628 -16 621 -27 600 -27 c 0
 571 -27 555 12 555 49 c 0x80
 555 65 562 81 565 110 c 0
 571 164 571 274 571 324 c 0
 571 384 570 468 566 502 c 0
 562 525 544 532 509 536 c 1x40
EndSplineSet
Substitution2: "'ruby' Ruby Notational Forms lookup 1-1" uni31F3.ruby
EndChar

StartChar: uni31F4
Encoding: 105 12788 99
Width: 1000
Flags: W
HStem: 399 64<470.386 580.609> 452 60<727.504 806>
AnchorPoint: "overline" 500 800 basechar 0
AnchorPoint: "dot" 500 2 basechar 0
LayerCount: 2
Fore
SplineSet
437 499 m 1x80
 452 504 l 1
 465 485 483 464 507 463 c 0x80
 544 462 710 487 752 494 c 0
 771 498 780 512 794 512 c 0
 818 512 877 470 877 445 c 0
 877 426 850 416 836 392 c 0
 812 347 779 294 739 241 c 1
 786 212 838 169 863 137 c 0
 875 119 883 100 883 81 c 0
 883 61 868 51 853 51 c 0
 834 51 825 61 802 91 c 0
 777 121 747 152 699 192 c 1
 636 124 530 43 365 -16 c 1
 357 2 l 1
 499 71 597 157 656 226 c 1
 616 256 564 290 502 319 c 1
 512 336 l 1
 580 315 640 293 689 269 c 1
 733 331 768 399 782 443 c 0
 784 451 783 452 776 452 c 0x40
 737 452 596 425 569 417 c 0
 545 411 532 399 517 399 c 0
 490 399 453 431 445 453 c 0
 441 465 438 478 437 499 c 1x80
EndSplineSet
Substitution2: "'ruby' Ruby Notational Forms lookup 1-1" uni31F4.ruby
EndChar

StartChar: uni31F5
Encoding: 106 12789 100
Width: 1000
Flags: W
VStem: 549 83<309.533 381.792> 882 77<121.646 212.091>
AnchorPoint: "overline" 500 800 basechar 0
AnchorPoint: "dot" 500 2 basechar 0
LayerCount: 2
Fore
SplineSet
549 360 m 0
 549 378 522 398 500 409 c 1
 505 422 l 1
 517 422 535 423 552 420 c 0
 591 414 632 363 632 338 c 0
 632 322 614 314 600 297 c 0
 535 216 431 130 328 81 c 1
 318 95 l 1
 419 165 549 310 549 360 c 0
959 167 m 0
 962 137 945 115 923 114 c 0
 901 114 894 133 882 164 c 0
 845 264 790 344 705 414 c 1
 715 427 l 1
 826 373 951 261 959 167 c 0
EndSplineSet
Substitution2: "'ruby' Ruby Notational Forms lookup 1-1" uni31F5.ruby
EndChar

StartChar: uni31F6
Encoding: 107 12790 101
Width: 1000
Flags: W
HStem: 10 58<539.264 831.426> 510 27<425.611 468.005>
VStem: 478 85<398.979 502.098> 478 53<77.7864 241.71 268 459.482>
AnchorPoint: "overline" 500 800 basechar 0
AnchorPoint: "dot" 500 2 basechar 0
LayerCount: 2
Fore
SplineSet
758 445 m 1xe0
 768 453 l 1
 786 451 800 446 813 437 c 0
 836 420 857 391 857 375 c 0
 857 358 837 354 810 341 c 0
 753 314 653 270 533 237 c 1
 531 196 531 160 531 141 c 0
 531 74 545 68 629 68 c 0
 740 68 797 93 818 93 c 0
 860 93 884 82 884 60 c 0
 884 42 872 33 855 28 c 0
 821 17 746 10 640 10 c 0
 498 10 478 34 478 139 c 0xd0
 477 218 486 449 480 479 c 0
 476 498 460 503 425 510 c 1
 424 523 l 1
 441 529 464 538 481 537 c 0
 517 535 563 502 563 482 c 0
 563 466 548 461 545 440 c 0
 541 407 536 335 534 268 c 1
 627 304 721 351 765 389 c 0
 776 399 779 405 774 418 c 0
 770 429 764 439 758 445 c 1xe0
EndSplineSet
Substitution2: "'ruby' Ruby Notational Forms lookup 1-1" uni31F6.ruby
EndChar

StartChar: uni31F7
Encoding: 108 12791 102
Width: 1000
Flags: W
HStem: 390 70<432.656 550.608> 448 61<739.774 825.5>
AnchorPoint: "overline" 500 799 basechar 0
AnchorPoint: "dot" 500 1 basechar 0
LayerCount: 2
Fore
SplineSet
411 500 m 1x80
 426 481 442 460 469 460 c 0x80
 516 460 728 484 765 491 c 0
 787 496 797 509 813 509 c 0
 838 509 898 461 898 439 c 0
 898 419 871 405 861 382 c 0
 781 203 649 67 427 -13 c 1
 418 3 l 1
 622 108 765 270 800 437 c 0
 802 446 798 448 791 448 c 0x40
 754 448 566 417 525 406 c 0
 505 402 489 390 474 390 c 0
 448 390 412 428 405 450 c 0
 400 463 399 475 398 496 c 1
 411 500 l 1x80
EndSplineSet
Substitution2: "'ruby' Ruby Notational Forms lookup 1-1" uni31F7.ruby
EndChar

StartChar: uni31F8
Encoding: 109 12792 103
Width: 1000
Flags: W
HStem: 192 69<355.857 413.421> 387 50<556.457 618.771>
AnchorPoint: "overline" 500 800 basechar 0
AnchorPoint: "dot" 500 2 basechar 0
LayerCount: 2
Fore
SplineSet
336 233 m 0
 327 245 323 258 321 276 c 1
 331 285 l 1
 347 271 364 261 374 261 c 0
 384 261 397 268 413 282 c 0
 447 313 508 385 531 408 c 0
 548 425 564 437 583 437 c 0
 604 437 623 428 646 405 c 0
 740 314 849 213 931 157 c 0
 952 144 966 120 966 97 c 0
 966 79 956 67 938 67 c 0
 916 67 878 96 827 149 c 0
 782 194 667 318 618 367 c 0
 603 382 594 387 585 387 c 0
 578 387 571 382 559 369 c 0
 535 342 481 267 457 233 c 0
 440 209 429 192 407 192 c 0
 383 192 353 212 336 233 c 0
EndSplineSet
Substitution2: "'ruby' Ruby Notational Forms lookup 1-1" uni31F8.ruby
EndChar

StartChar: uni31F9
Encoding: 110 12793 104
Width: 1000
Flags: W
HStem: 73 14<537 545.061> 255 11<765.909 767.635> 303 63<393.655 496.513> 361 61<728.152 909.334>
VStem: 495 18<240.001 256.556> 628 51<69.4495 347 394 501.352> 865 73<93.5748 166.197>
AnchorPoint: "overline" 500 800 basechar 0
AnchorPoint: "dot" 500 2 basechar 0
LayerCount: 2
Fore
SplineSet
763 255 m 1xce
 771 266 l 1
 851 242 929 188 938 122 c 0
 941 99 930 81 910 81 c 0
 889 81 877 107 865 130 c 0
 845 171 813 215 763 255 c 1xce
566 522 m 1
 566 537 l 1
 583 543 607 549 625 549 c 0
 658 549 701 522 701 502 c 0
 701 488 687 485 684 465 c 0
 682 449 681 422 680 394 c 1
 825 412 831 422 848 422 c 0
 877 422 919 405 919 382 c 0
 919 364 912 357 892 357 c 0
 868 357 846 361 810 361 c 0xde
 781 361 727 356 679 352 c 1
 679 288 l 2
 679 225 684 81 684 58 c 0
 684 24 663 -14 632 -14 c 0
 608 -14 610 1 592 24 c 0
 581 40 558 59 534 73 c 1
 540 87 l 1
 567 80 594 72 613 68 c 0
 621 66 626 69 627 79 c 0
 629 112 629 227 629 289 c 2
 628 347 l 1
 582 340 525 331 488 323 c 0
 460 316 450 303 432 303 c 0
 414 303 384 328 373 353 c 0
 368 363 366 384 366 398 c 1
 378 402 l 1
 392 382 407 366 425 366 c 0xee
 458 367 572 381 628 388 c 1
 627 433 626 476 623 491 c 0
 619 511 602 516 566 522 c 1
495 259 m 1
 513 255 l 1
 509 177 455 64 399 64 c 0
 380 64 370 79 370 97 c 0
 370 120 386 124 414 147 c 0
 462 184 481 220 495 259 c 1
EndSplineSet
Substitution2: "'ruby' Ruby Notational Forms lookup 1-1" uni31F9.ruby
EndChar

StartChar: uni31FA
Encoding: 111 12794 105
Width: 1000
Flags: W
HStem: 23 82<399.192 469.636>
VStem: 613 88<415.165 479.356> 823 91<51.8757 110.647>
AnchorPoint: "overline" 500 800 basechar 0
AnchorPoint: "dot" 500 2 basechar 0
LayerCount: 2
Fore
SplineSet
715 273 m 1
 726 285 l 1
 819 239 914 143 914 58 c 0
 914 31 898 15 877 15 c 0
 848 15 850 48 823 114 c 1
 719 90 543 59 482 47 c 0
 466 43 449 23 436 23 c 0
 412 23 377 64 372 90 c 0
 369 101 370 109 371 119 c 1
 380 125 l 1
 398 111 411 105 425 105 c 0
 431 105 445 106 465 108 c 1
 519 206 613 420 613 457 c 0
 613 474 600 489 575 506 c 1
 580 518 l 1
 595 518 614 515 628 510 c 0
 664 499 701 464 701 446 c 0
 701 431 681 423 671 403 c 0
 637 336 565 200 513 111 c 1
 601 120 733 136 809 148 c 1
 786 192 755 233 715 273 c 1
EndSplineSet
Substitution2: "'ruby' Ruby Notational Forms lookup 1-1" uni31FA.ruby
EndChar

StartChar: uni31FB
Encoding: 112 12795 106
Width: 1000
Flags: W
HStem: 286 67<446.147 549.709> 465 50<513.776 696.271>
AnchorPoint: "overline" 500 800 basechar 0
AnchorPoint: "dot" 500 2 basechar 0
LayerCount: 2
Fore
SplineSet
421 342 m 0
 416 355 413 369 412 385 c 1
 425 391 l 1
 442 368 455 353 478 353 c 0
 522 353 721 379 774 387 c 0
 798 391 806 403 819 403 c 0
 844 403 895 360 895 339 c 0
 895 323 867 315 855 293 c 0
 779 149 670 36 472 -33 c 1
 463 -17 l 1
 630 70 750 201 794 334 c 0
 797 343 795 346 786 346 c 0
 735 343 581 316 533 304 c 0
 512 299 501 286 484 286 c 0
 463 286 428 322 421 342 c 0
816 519 m 0
 816 507 806 499 783 495 c 0
 726 483 631 465 568 465 c 0
 527 465 506 489 481 532 c 1
 490 541 l 1
 519 520 540 515 565 515 c 0
 613 515 651 525 686 534 c 0
 727 544 736 553 749 553 c 0
 787 553 816 541 816 519 c 0
EndSplineSet
Substitution2: "'ruby' Ruby Notational Forms lookup 1-1" uni31FB.ruby
EndChar

StartChar: uni31FC
Encoding: 113 12796 107
Width: 1000
Flags: W
HStem: 520 34<692.953 732.527>
VStem: 500 67<163.97 316.398> 510 58<219.941 469.21> 748 58<189.713 503.303> 749 65<296.87 503.303>
AnchorPoint: "overline" 500 800 basechar 0
AnchorPoint: "dot" 500 2 basechar 0
LayerCount: 2
Fore
SplineSet
806 292 m 0x90
 797 122 705 18 535 -39 c 1
 526 -25 l 1
 667 50 737 147 748 294 c 0x90
 752 355 753 431 749 477 c 0
 748 491 746 500 733 507 c 0
 723 513 707 517 688 520 c 1
 688 534 l 1
 705 545 729 554 745 554 c 0
 773 554 827 523 827 504 c 0
 827 489 815 483 814 460 c 0x88
 811 416 808 337 806 292 c 0x90
490 483 m 0
 479 489 467 493 451 497 c 1
 451 510 l 1
 467 515 484 521 499 521 c 0
 527 521 580 491 580 470 c 0
 580 453 570 446 568 417 c 0xa0
 565 386 567 239 567 202 c 0
 567 170 554 158 537 158 c 0
 517 158 500 187 500 219 c 0xc0
 500 239 509 263 510 319 c 0xa0
 510 354 509 427 506 455 c 0
 504 471 502 476 490 483 c 0
EndSplineSet
Substitution2: "'ruby' Ruby Notational Forms lookup 1-1" uni31FC.ruby
EndChar

StartChar: uni31FD
Encoding: 114 12797 108
Width: 1000
Flags: W
VStem: 496 79<307.444 390.597> 633 65<91.5 351.429> 645 81<352.275 475.371> 645 53<135.863 361.288>
AnchorPoint: "overline" 500 800 basechar 0
AnchorPoint: "dot" 500 2 basechar 0
LayerCount: 2
Fore
SplineSet
590 483 m 1x90
 589 498 l 1
 611 505 624 509 642 509 c 0
 674 509 726 478 726 458 c 0xa0
 726 442 710 440 708 416 c 0
 704 379 698 199 698 145 c 0
 698 135 703 133 713 136 c 0
 808 176 907 251 980 324 c 1
 994 313 l 1
 932 219 829 131 733 73 c 0
 716 63 704 41 688 41 c 0
 668 41 633 83 633 100 c 0xc0
 633 115 642 121 645 150 c 0
 648 189 650 380 647 450 c 0
 646 469 626 478 590 483 c 1x90
496 364 m 0
 496 386 463 397 442 403 c 1
 442 418 l 1
 455 422 472 427 490 426 c 0
 519 424 575 394 575 369 c 0
 575 352 561 344 558 326 c 0
 533 210 461 90 322 10 c 1
 310 23 l 1
 424 116 496 269 496 364 c 0
EndSplineSet
Substitution2: "'ruby' Ruby Notational Forms lookup 1-1" uni31FD.ruby
EndChar

StartChar: uni31FE
Encoding: 115 12798 109
Width: 1000
Flags: W
HStem: 474 30<415.243 459.168>
VStem: 472 62<171.455 448.299> 473 52<103.703 322.854>
AnchorPoint: "overline" 500 800 basechar 0
AnchorPoint: "dot" 500 2 basechar 0
LayerCount: 2
Fore
SplineSet
413 474 m 1xc0
 412 488 l 1
 429 495 451 504 467 504 c 0
 502 504 553 468 553 449 c 0
 553 434 536 422 534 400 c 0xc0
 530 359 525 176 525 108 c 0xa0
 525 101 527 98 534 100 c 0xc0
 657 137 835 255 939 361 c 1
 952 349 l 1
 862 222 722 116 567 38 c 0
 542 24 542 7 524 7 c 0
 502 7 459 55 459 74 c 0
 459 87 472 98 473 122 c 0xa0
 476 174 476 383 472 438 c 0
 471 454 465 463 413 474 c 1xc0
EndSplineSet
Substitution2: "'ruby' Ruby Notational Forms lookup 1-1" uni31FE.ruby
EndChar

StartChar: uni31FF
Encoding: 116 12799 110
Width: 1000
Flags: W
HStem: 105 51<546.302 766.309 821 864.797> 402 65<760.244 817.5>
VStem: 451 64<44.715 96.1695 139 369.614> 793 96<366.341 401.705>
AnchorPoint: "overline" 500 800 basechar 0
AnchorPoint: "dot" 500 2 basechar 0
LayerCount: 2
Fore
SplineSet
495 425 m 2
 498 422 l 1
 571 426 730 441 759 445 c 0
 786 449 791 467 807 467 c 0
 828 467 889 419 889 397 c 0
 889 378 865 372 859 350 c 0
 852 313 836 230 821 157 c 1
 846 154 867 142 867 125 c 0
 867 110 860 100 841 100 c 0
 821 100 783 105 747 105 c 0
 690 105 597 100 515 95 c 1
 515 70 l 2
 515 51 507 39 488 39 c 0
 470 39 451 62 451 94 c 0
 451 109 455 149 454 178 c 0
 453 226 445 342 433 388 c 0
 427 414 416 429 391 450 c 1
 399 461 l 1
 435 457 467 451 495 425 c 2
514 139 m 1
 586 144 694 153 763 156 c 1
 777 239 793 354 793 394 c 0
 793 400 791 402 783 402 c 0
 740 402 634 393 594 388 c 0
 572 385 550 378 535 378 c 0
 526 378 515 383 504 389 c 1
 506 338 512 208 514 139 c 1
EndSplineSet
Substitution2: "'ruby' Ruby Notational Forms lookup 1-1" uni31FF.ruby
EndChar

StartChar: uni31f7_uni309a
Encoding: 133 -1 111
Width: 1000
Flags: W
HStem: 396 72<343.181 449.521> 457 61<668.073 747.5> 478 32<842.399 926.68> 649 32<842.399 926.68>
VStem: 728 96<413.095 456.097> 783 32<536.711 621.895> 954 32<536.711 621.895>
AnchorPoint: "dot" 500 2 basechar 0
LayerCount: 2
Fore
SplineSet
320 510 m 5xba
 335 491 352 468 380 468 c 4xba
 428 468 655 493 692 500 c 4
 715 505 718 518 734 518 c 4
 761 518 824 465 824 442 c 4
 824 423 800 415 789 390 c 4
 706 201 568 59 337 -25 c 5
 327 -8 l 5
 541 101 690 270 728 446 c 4
 731 456 727 457 720 457 c 4x5a
 681 457 480 425 437 415 c 4
 417 410 400 396 384 396 c 4
 358 396 321 436 313 458 c 4
 309 471 308 484 306 504 c 5
 320 510 l 5xba
885 478 m 4
 828 478 783 525 783 580 c 4x36
 783 636 828 681 885 681 c 4
 940 681 986 636 986 580 c 4
 986 525 940 478 885 478 c 4
885 649 m 4
 847 649 815 617 815 580 c 4
 815 542 847 510 885 510 c 4
 922 510 954 542 954 580 c 4
 954 617 922 649 885 649 c 4
EndSplineSet
Substitution2: "'ruby' Ruby Notational Forms lookup 1-1" uni31f7_uni309a.ruby
EndChar

StartChar: uni1B166
Encoding: 117 110950 112
Width: 1000
Flags: W
HStem: 223 70<441.656 558.179> 390 70<432.656 550.608> 448 61<739.774 825.5>
AnchorPoint: "overline" 500 800 basechar 0
AnchorPoint: "dot" 500 2 basechar 0
LayerCount: 2
Fore
SplineSet
790 281 m 17x80
 753 281 575 250 534 239 c 0
 514 235 498 223 483 223 c 0
 457 223 421 261 414 283 c 0
 409 296 408 308 407 329 c 1
 420 333 l 1
 435 314 451 293 478 293 c 0
 525 293 727 317 764 324 c 0
 786 329 780 298 790 281 c 17x80
411 500 m 1
 426 481 442 460 469 460 c 0xc0
 516 460 728 484 765 491 c 0
 787 496 797 509 813 509 c 0
 838 509 898 461 898 439 c 0
 898 419 871 405 861 382 c 0
 781 203 649 67 427 -13 c 1
 418 3 l 1
 622 108 765 270 800 437 c 0
 802 446 798 448 791 448 c 0xa0
 754 448 566 417 525 406 c 0
 505 402 489 390 474 390 c 0xc0
 448 390 412 428 405 450 c 0
 400 463 399 475 398 496 c 1
 411 500 l 1
EndSplineSet
Substitution2: "'ruby' Ruby Notational Forms lookup 1-1" uni1B166.ruby
EndChar

StartChar: uni3099
Encoding: 2 12441 113
Width: 0
Flags: W
HStem: 646 229<-163 -125>
VStem: -274 266<743 785>
LayerCount: 2
Fore
SplineSet
-133 646 m 0
 -149 646 -159 669 -181 695 c 0
 -202 720 -230 754 -274 785 c 1
 -259 804 l 1
 -207 782 -168 759 -142 734 c 0
 -118 711 -106 693 -106 673 c 0
 -106 656 -117 646 -133 646 c 0
-34 725 m 0
 -50 725 -61 748 -83 774 c 0
 -106 800 -130 825 -176 858 c 1
 -163 875 l 1
 -109 857 -72 836 -46 815 c 0
 -20 793 -8 773 -8 752 c 0
 -8 734 -19 725 -34 725 c 0
EndSplineSet
Substitution2: "'ruby' Ruby Notational Forms lookup 1-1" uni3099.ruby
EndChar

StartChar: uni309A
Encoding: 3 12442 114
Width: 0
Flags: W
HStem: 652 34<-134 -90.5 -134 -81> 843 34<-134 -90.5>
VStem: -225 34<743 786.5 743 796> -34 34<743 786.5>
LayerCount: 2
Fore
SplineSet
-112 652 m 0
 -174 652 -225 703 -225 765 c 0
 -225 827 -174 877 -112 877 c 0
 -50 877 0 827 0 765 c 0
 0 703 -50 652 -112 652 c 0
-112 843 m 0
 -156 843 -191 808 -191 765 c 0
 -191 721 -156 686 -112 686 c 0
 -69 686 -34 721 -34 765 c 0
 -34 808 -69 843 -112 843 c 0
EndSplineSet
Substitution2: "'ruby' Ruby Notational Forms lookup 1-1" uni309A.ruby
EndChar

StartChar: uni309B
Encoding: 4 12443 115
Width: 1000
Flags: W
HStem: 608 234<150 191>
VStem: 41 263<709 748>
LayerCount: 2
Fore
SplineSet
183 608 m 0
 167 608 156 631 135 658 c 0
 113 683 84 717 41 748 c 1
 55 767 l 1
 108 745 146 721 172 697 c 0
 197 674 208 656 208 635 c 0
 208 618 199 608 183 608 c 0
280 691 m 0
 263 691 253 714 230 740 c 0
 208 766 182 791 136 824 c 1
 150 842 l 1
 203 823 241 802 266 781 c 0
 292 759 304 739 304 718 c 0
 304 700 295 691 280 691 c 0
EndSplineSet
Substitution2: "'ruby' Ruby Notational Forms lookup 1-1" uni309B.ruby
EndChar

StartChar: uni309C
Encoding: 5 12444 116
Width: 1000
Flags: W
HStem: 611 33<120 166 120 175.5> 811 34<120 166>
VStem: 26 33<704.5 751 704.5 760.5> 227 33<704.5 751>
LayerCount: 2
Fore
SplineSet
143 611 m 0
 78 611 26 663 26 728 c 0
 26 793 78 845 143 845 c 0
 208 845 260 793 260 728 c 0
 260 663 208 611 143 611 c 0
143 811 m 0
 97 811 59 774 59 728 c 0
 59 681 97 644 143 644 c 0
 189 644 227 681 227 728 c 0
 227 774 189 811 143 811 c 0
EndSplineSet
Substitution2: "'ruby' Ruby Notational Forms lookup 1-1" uni309C.ruby
EndChar

StartChar: uni30fc.valt
Encoding: 134 -1 117
Width: 1000
Flags: W
HStem: -10 758<447.5 511.5>
VStem: 468 66
LayerCount: 2
Fore
SplineSet
390 716 m 1
 390 733 l 1
 408 739 436 748 459 748 c 0
 497 748 562 711 562 687 c 0
 562 667 542 657 538 628 c 0
 532 577 531 484 531 429 c 0
 531 380 534 89 534 36 c 0
 534 9 526 -10 497 -10 c 0
 470 -10 453 29 453 66 c 0
 453 90 457 121 461 167 c 0
 466 227 468 364 468 438 c 0
 468 516 468 627 465 669 c 0
 462 704 444 707 390 716 c 1
EndSplineSet
Substitution2: "'ruby' Ruby Notational Forms lookup 1-1" uni30fc.valt.ruby
EndChar

StartChar: tone2
Encoding: 118 110576 118
Width: 500
VWidth: 0
Flags: W
VStem: 412 15.7266<723.296 748.561>
LayerCount: 2
Fore
SplineSet
79 69 m 5
 250 300 376 582 412 753 c 5
 427.7265625 745 l 5
 414 599 288.76953125 270.749023438 151 39 c 5
 79 69 l 5
EndSplineSet
Substitution2: "'salt' Stylistic Alternatives lookup 0-1" tone2.salt
EndChar

StartChar: tone3
Encoding: 119 110577 119
Width: 500
VWidth: 0
Flags: W
VStem: 412 15.7266<43.4391 68.7039>
LayerCount: 2
Fore
SplineSet
79 723 m 1
 250 492 376 210 412 39 c 1
 427.7265625 47 l 1
 414 193 288.76953125 521.250976562 151 753 c 1
 79 723 l 1
EndSplineSet
EndChar

StartChar: tone8
Encoding: 123 110582 120
Width: 500
Flags: W
HStem: 517.2 18.3994<113.865 122.654>
VStem: 104.2 291.6
LayerCount: 2
Fore
SplineSet
104.200195312 517.200195312 m 1
 119.799804688 535.599609375 l 1
 196.599609375 521.200195312 256.036132812 504 317.400390625 450 c 0
 377.400390625 397.200195312 395.799804688 338.799804688 395.799804688 288.400390625 c 0
 395.799804688 250 364.75 221 326.75 221 c 0
 288.349609375 221 239.438476562 232.201171875 196.75 285 c 0
 158.75 332 150.881835938 388.786132812 149.385742188 427 c 0
 148.321289062 454.185546875 148.578125 477.611328125 136.297851562 495 c 0
 129.796875 504.204101562 119.783203125 511.716796875 104.200195312 517.200195312 c 1
EndSplineSet
EndChar

StartChar: tone5
Encoding: 121 110579 121
Width: 500
Flags: W
LayerCount: 2
Fore
SplineSet
350.5 776 m 29
 94.5 404 l 29
 363.5 20 l 29
 405.5 20 l 29
 189.5 404 l 29
 383.5 776 l 29
 350.5 776 l 29
EndSplineSet
EndChar

StartChar: tone1_n
Encoding: 124 110583 122
Width: 500
VWidth: 0
Flags: W
HStem: 0.15918 45.2412<200.017 300.143> 184.6 45.2412<200.017 300.143>
VStem: 135.239 45.2412<64.9366 801> 319.68 45.2402<64.9366 165.063>
LayerCount: 2
Fore
SplineSet
135.080078125 115 m 1
 135.080078125 801 l 1
 181.080078125 801 l 1
 181.080078125 115 l 1
 135.080078125 115 l 1
135.239257812 115 m 0
 135.239257812 178.359375 186.720703125 229.840820312 250.080078125 229.840820312 c 0
 313.439453125 229.840820312 364.919921875 178.359375 364.919921875 115 c 0
 364.919921875 51.640625 313.439453125 0.1591796875 250.080078125 0.1591796875 c 0
 186.720703125 0.1591796875 135.239257812 51.640625 135.239257812 115 c 0
180.48046875 115 m 0
 180.48046875 76.599609375 211.6796875 45.400390625 250.080078125 45.400390625 c 0
 288.48046875 45.400390625 319.6796875 76.599609375 319.6796875 115 c 0
 319.6796875 153.400390625 288.48046875 184.599609375 250.080078125 184.599609375 c 0
 211.6796875 184.599609375 180.48046875 153.400390625 180.48046875 115 c 0
EndSplineSet
EndChar

StartChar: tone7
Encoding: 122 110581 123
Width: 500
VWidth: 0
Flags: W
VStem: 239 28<0 88.6667 722.121 804>
LayerCount: 2
Fore
SplineSet
239 804 m 1
 206 418 l 1
 239 0 l 1
 267 0 l 1
 294 418 l 1
 267 804 l 1
 239 804 l 1
EndSplineSet
EndChar

StartChar: tone4
Encoding: 120 110578 124
Width: 500
Flags: W
HStem: 232.5 291.6
VStem: 92.7002 18.3994<242.165 250.954>
LayerCount: 2
Fore
SplineSet
111.099609375 232.5 m 1
 92.7001953125 248.099609375 l 1
 107.099609375 324.899414062 124.299804688 384.3359375 178.299804688 445.700195312 c 0
 231.099609375 505.700195312 289.5 524.099609375 339.899414062 524.099609375 c 0
 378.299804688 524.099609375 407.299804688 493.049804688 407.299804688 455.049804688 c 0
 407.299804688 416.649414062 396.098632812 367.73828125 343.299804688 325.049804688 c 0
 296.299804688 287.049804688 239.513671875 279.181640625 201.299804688 277.685546875 c 0
 174.114257812 276.62109375 150.688476562 276.877929688 133.299804688 264.59765625 c 0
 124.095703125 258.096679688 116.583007812 248.083007812 111.099609375 232.5 c 1
EndSplineSet
EndChar

StartChar: tone2_n
Encoding: 125 110584 125
Width: 500
VWidth: 0
Flags: W
HStem: 0.15918 45.2412<156.857 256.983> 184.6 45.2412<156.857 256.983>
VStem: 92.0801 45.2402<64.9366 116.897 117 117 205 367.16> 276.52 45.2412<64.9366 165.063>
LayerCount: 2
Back
SplineSet
115 119 m 29
 115 207 l 6
 115 473 285 711 343 751 c 1028
EndSplineSet
Fore
SplineSet
115 117 m 5
 92.5 117 l 5
 92.5 205 l 6
 92.5 479.637695312 263.676454546 723.626043581 330.226008494 769.522287683 c 1
 343 751 l 1
 355.773991506 732.477712317 l 1
 306.323545454 698.373956419 137.5 462.362304688 137.5 205 c 6
 137.5 117 l 5
 115 117 l 5
92.080078125 115 m 4
 92.080078125 178.359375 143.560546875 229.840820312 206.919921875 229.840820312 c 4
 270.279296875 229.840820312 321.760742188 178.359375 321.760742188 115 c 4
 321.760742188 51.640625 270.279296875 0.1591796875 206.919921875 0.1591796875 c 4
 143.560546875 0.1591796875 92.080078125 51.640625 92.080078125 115 c 4
137.3203125 115 m 4
 137.3203125 76.599609375 168.51953125 45.400390625 206.919921875 45.400390625 c 4
 245.3203125 45.400390625 276.51953125 76.599609375 276.51953125 115 c 4
 276.51953125 153.400390625 245.3203125 184.599609375 206.919921875 184.599609375 c 4
 168.51953125 184.599609375 137.3203125 153.400390625 137.3203125 115 c 4
EndSplineSet
EndChar

StartChar: tone3_n
Encoding: 126 110585 126
Width: 500
VWidth: 0
Flags: W
HStem: 550.841 45.2412<120.871 220.998> 735.281 45.2412<120.871 220.998>
VStem: 56.0938 45.2412<615.618 715.745> 423.609 43.3906<20.0754 35.478>
LayerCount: 2
Back
SplineSet
262 666 m 29
 441 15 l 1053
EndSplineSet
Fore
SplineSet
261 685 m 1
 282.6953125 690.96484375 l 1
 467 22 l 5
 445.3046875 16.03515625 l 5
 423.609375 10.0703125 l 5
 239.3046875 679.03515625 l 1
 261 685 l 1
285.774414062 665.681640625 m 0
 285.774414062 602.322265625 234.293945312 550.840820312 170.934570312 550.840820312 c 0
 107.575195312 550.840820312 56.09375 602.322265625 56.09375 665.681640625 c 0
 56.09375 729.041015625 107.575195312 780.522460938 170.934570312 780.522460938 c 0
 234.293945312 780.522460938 285.774414062 729.041015625 285.774414062 665.681640625 c 0
240.534179688 665.681640625 m 0
 240.534179688 704.08203125 209.334960938 735.28125 170.934570312 735.28125 c 0
 132.534179688 735.28125 101.334960938 704.08203125 101.334960938 665.681640625 c 0
 101.334960938 627.28125 132.534179688 596.08203125 170.934570312 596.08203125 c 0
 209.334960938 596.08203125 240.534179688 627.28125 240.534179688 665.681640625 c 0
EndSplineSet
EndChar

StartChar: tone8_n
Encoding: 130 110590 127
Width: 500
Flags: W
HStem: 221 33.3252<254.96 351.937>
VStem: 149.386 31.1533<342.868 489.318> 365.35 30.4502<269.166 363.974>
LayerCount: 2
Fore
SplineSet
163.75 490 m 1
 180.625976562 484.0625 179.534179688 434.499023438 180.5390625 408.825195312 c 0
 181.661132812 380.1640625 187.5625 337.575195312 216.0625 302.325195312 c 0
 248.079101562 262.725585938 284.762695312 254.325195312 313.5625 254.325195312 c 0
 342.0625 254.325195312 365.349609375 276.075195312 365.349609375 304.875 c 0
 365.349609375 342.674804688 351.55078125 386.474609375 306.55078125 426.075195312 c 0
 260.528320312 466.576171875 227.349609375 485.200195312 169.75 496 c 1
 163.75 490 l 1
104.200195312 517.200195312 m 1
 119.799804688 535.599609375 l 1
 196.599609375 521.200195312 256.036132812 504 317.400390625 450 c 0
 377.400390625 397.200195312 395.799804688 338.799804688 395.799804688 288.400390625 c 0
 395.799804688 250 364.75 221 326.75 221 c 0
 288.349609375 221 239.438476562 232.201171875 196.75 285 c 0
 158.75 332 150.881835938 388.786132812 149.385742188 427 c 0
 148.321289062 454.185546875 148.578125 477.611328125 136.297851562 495 c 0
 129.796875 504.204101562 119.783203125 511.716796875 104.200195312 517.200195312 c 1
EndSplineSet
EndChar

StartChar: tone5_n
Encoding: 128 110587 128
Width: 500
Flags: W
HStem: 290.159 45.2412<100.157 200.284> 474.6 45.2412<100.157 200.284>
VStem: 35.3789 45.2422<354.937 455.063>
LayerCount: 2
Fore
SplineSet
35.37890625 405 m 4
 35.37890625 341.640625 86.861328125 290.159179688 150.220703125 290.159179688 c 4
 213.580078125 290.159179688 265.061523438 341.640625 265.061523438 405 c 4
 265.061523438 468.359375 213.580078125 519.840820312 150.220703125 519.840820312 c 4
 86.861328125 519.840820312 35.37890625 468.359375 35.37890625 405 c 4
  Spiro
    35.3796 405 o
    51.0436 347.118 o
    92.3376 305.823 o
    150.221 290.159 o
    208.103 305.823 o
    249.398 347.118 o
    265.061 405 o
    249.398 462.882 o
    208.103 504.177 o
    150.221 519.841 o
    92.3376 504.177 o
    51.0436 462.882 o
    0 0 z
  EndSpiro
80.62109375 405 m 4
 80.62109375 443.400390625 111.8203125 474.599609375 150.220703125 474.599609375 c 4
 188.62109375 474.599609375 219.8203125 443.400390625 219.8203125 405 c 4
 219.8203125 366.599609375 188.62109375 335.400390625 150.220703125 335.400390625 c 4
 111.8203125 335.400390625 80.62109375 366.599609375 80.62109375 405 c 4
  Spiro
    80.6206 405 o
    90.1136 440.08 o
    115.14 465.107 o
    150.221 474.6 o
    185.301 465.107 o
    210.327 440.08 o
    219.82 405 o
    210.327 369.92 o
    185.301 344.893 o
    150.221 335.4 o
    115.14 344.893 o
    90.1136 369.92 o
    0 0 z
  EndSpiro
409.62109375 776 m 25
 223.62109375 404 l 25
 422.62109375 20 l 25
 464.62109375 20 l 25
 278.62109375 404 l 25
 442.62109375 776 l 25
 409.62109375 776 l 25
  Spiro
    409.621 776 v
    223.621 404 v
    422.621 20 v
    464.621 20 v
    278.621 404 v
    442.621 776 v
    0 0 z
  EndSpiro
EndSplineSet
EndChar

StartChar: tone7_n
Encoding: 129 110589 129
Width: 500
VWidth: 0
Flags: W
HStem: 300.159 45.2412<212.437 312.563> 484.6 45.2412<212.437 312.563>
VStem: 145.659 28<0 127.217 686.522 804> 147.659 43<351.641 478.359> 332.1 45.2412<364.937 465.063>
LayerCount: 2
Fore
SplineSet
147.659179688 415 m 0xd8
 147.659179688 351.640625 199.140625 300.159179688 262.5 300.159179688 c 0
 325.859375 300.159179688 377.340820312 351.640625 377.340820312 415 c 0
 377.340820312 478.359375 325.859375 529.840820312 262.5 529.840820312 c 0
 199.140625 529.840820312 147.659179688 478.359375 147.659179688 415 c 0xd8
  Spiro
    147.659 415 o
    163.323 357.118 o
    204.618 315.823 o
    262.5 300.159 o
    320.382 315.823 o
    361.677 357.118 o
    377.341 415 o
    361.677 472.882 o
    320.382 514.177 o
    262.5 529.841 o
    204.618 514.177 o
    163.323 472.882 o
    0 0 z
  EndSpiro
192.900390625 415 m 0
 192.900390625 453.400390625 224.099609375 484.599609375 262.5 484.599609375 c 0
 300.900390625 484.599609375 332.099609375 453.400390625 332.099609375 415 c 0
 332.099609375 376.599609375 300.900390625 345.400390625 262.5 345.400390625 c 0
 224.099609375 345.400390625 192.900390625 376.599609375 192.900390625 415 c 0
  Spiro
    192.9 415 o
    202.393 450.08 o
    227.42 475.107 o
    262.5 484.6 o
    297.58 475.107 o
    322.607 450.08 o
    332.099 415 o
    322.607 379.92 o
    297.58 354.893 o
    262.5 345.4 o
    227.42 354.893 o
    202.393 379.92 o
    0 0 z
  EndSpiro
145.659179688 804 m 1xe8
 122.659179688 418 l 1
 145.659179688 0 l 1
 173.659179688 0 l 1xe8
 190.659179688 418 l 1xd8
 173.659179688 804 l 1
 145.659179688 804 l 1xe8
EndSplineSet
EndChar

StartChar: tone4_n
Encoding: 127 110586 130
Width: 500
Flags: W
HStem: 277.686 31.1533<138.982 285.432> 493.649 30.4502<264.326 359.133>
VStem: 373.975 33.3252<383.26 480.237>
LayerCount: 2
Fore
SplineSet
138.299804688 292.049804688 m 5
 144.237304688 308.92578125 193.80078125 307.833984375 219.474609375 308.838867188 c 4
 248.135742188 309.9609375 290.724609375 315.862304688 325.974609375 344.362304688 c 4
 365.57421875 376.37890625 373.974609375 413.0625 373.974609375 441.862304688 c 4
 373.974609375 470.362304688 352.224609375 493.649414062 323.424804688 493.649414062 c 4
 285.625 493.649414062 241.825195312 479.850585938 202.224609375 434.850585938 c 4
 161.723632812 388.828125 143.099609375 355.649414062 132.299804688 298.049804688 c 5
 138.299804688 292.049804688 l 5
111.099609375 232.5 m 5
 92.7001953125 248.099609375 l 5
 107.099609375 324.899414062 124.299804688 384.3359375 178.299804688 445.700195312 c 4
 231.099609375 505.700195312 289.5 524.099609375 339.899414062 524.099609375 c 4
 378.299804688 524.099609375 407.299804688 493.049804688 407.299804688 455.049804688 c 4
 407.299804688 416.649414062 396.098632812 367.73828125 343.299804688 325.049804688 c 4
 296.299804688 287.049804688 239.513671875 279.181640625 201.299804688 277.685546875 c 4
 174.114257812 276.62109375 150.688476562 276.877929688 133.299804688 264.59765625 c 4
 124.095703125 258.096679688 116.583007812 248.083007812 111.099609375 232.5 c 5
EndSplineSet
EndChar

StartChar: combline.salt
Encoding: 135 -1 131
Width: 0
Flags: W
HStem: 688 80<157.269 301.469> 731 73<571.055 878.016> 733 60<493.589 805.78>
AnchorPoint: "overline" 500 720 mark 0
LayerCount: 2
Fore
SplineSet
149 792.566959958 m 17x80
 161.889319101 777.864287552 177.308022835 768 201 768 c 0x80
 290 768 640 791 686 793 c 0x20
 753 798 781 804 807 804 c 0
 845 804 890 787 890 760 c 0
 890 742 880 731 846 731 c 0x40
 811 731 776 733 715 733 c 0x20
 652 733 371 718 296 709 c 0
 239 703 228 688 199 688 c 0
 171 688 124 737 110 771 c 1
 110 771 134 784 149 792.566959958 c 17x80
EndSplineSet
EndChar

StartChar: combdot
Encoding: 131 803 133
Width: 0
Flags: W
HStem: 334 92<461.223 538.777>
VStem: 454 92<341.223 418.777>
AnchorPoint: "dot" 500 380 mark 0
LayerCount: 2
Fore
SplineSet
546 380 m 0
 546 354.5 525.5 334 500 334 c 0
 474.5 334 454 354.5 454 380 c 0
 454 405.5 474.5 426 500 426 c 0
 525.5 426 546 405.5 546 380 c 0
EndSplineSet
Substitution2: "'ruby' Ruby Notational Forms lookup 1-1" combdot.ruby
EndChar

StartChar: tone2.salt
Encoding: 136 -1 134
Width: 500
VWidth: 0
Flags: W
LayerCount: 2
Fore
SplineSet
389.5 756 m 1
 80.5 357 l 25
 167.5 273 l 1
 419.5 726 l 25
 389.5 756 l 1
EndSplineSet
EndChar

StartChar: dottedcircle
Encoding: 1 9676 135
Width: 1000
VWidth: 2048
Flags: W
HStem: 131 54<473.073 526.427> 149 54<386.664 439.82 560.187 613.344> 197.5 54<312.573 365.927 634.085 687.439> 272.5 54<263.073 316.427 683.567 736.921> 359 54<245.085 298.439 701.585 754.939> 445.5 54<263.085 316.427 683.579 736.921> 520 54<312.672 365.927 634.085 687.439> 569.5 54<386.567 439.921 560.085 613.439> 587 54<473.073 526.427>
VStem: 244.75 54<359.422 412.578> 262.75 54<272.817 326.171 445.93 499.183> 312.25 54<197.817 251.171 520.323 573.659> 386.25 54<149.406 202.665 569.817 623.171> 472.75 54<131.329 184.683 587.329 640.683> 559.75 54<149.406 202.563 569.914 623.07> 633.75 54<197.914 251.07 520.422 573.578> 683.25 54<272.817 326.171 445.829 499.183> 701.25 54<359.422 412.578>
AnchorPoint: "overline" 500 800 basechar 0
AnchorPoint: "dot" 500 2 basechar 0
LayerCount: 2
Fore
SplineSet
687.75 547 m 256x1e0f
 687.75 529 679.083007812 520 661.75 520 c 0
 643.083007812 520 633.75 529 633.75 547 c 256
 633.75 565 643.083007812 574 661.75 574 c 0
 679.083007812 574 687.75 565 687.75 547 c 256x1e0f
613.75 596 m 0
 613.75 578.333007812 605.083007812 569.5 587.75 569.5 c 0
 569.083007812 569.5 559.75 578.333007812 559.75 596 c 0
 559.75 614.333007812 569.083007812 623.5 587.75 623.5 c 0x1d0e
 605.083007812 623.5 613.75 614.333007812 613.75 596 c 0
737.25 473 m 0x1c0e80
 737.25 454.666992188 728.083007812 445.5 709.75 445.5 c 0
 692.083007812 445.5 683.25 454.666992188 683.25 473 c 0
 683.25 490.666992188 692.416992188 499.5 710.75 499.5 c 0
 728.416992188 499.5 737.25 490.666992188 737.25 473 c 0x1c0e80
755.25 386 m 256x1c0e40
 755.25 368 746.583007812 359 729.25 359 c 0
 710.583007812 359 701.25 368 701.25 386 c 256
 701.25 404 710.583007812 413 729.25 413 c 0
 746.583007812 413 755.25 404 755.25 386 c 256x1c0e40
526.75 614.5 m 0
 526.75 596.166992188 517.75 587 499.75 587 c 256
 481.75 587 472.75 596.166992188 472.75 614.5 c 0
 472.75 632.166992188 481.75 641 499.75 641 c 256x1c8e
 517.75 641 526.75 632.166992188 526.75 614.5 c 0
440.25 596 m 0
 440.25 578.333007812 431.083007812 569.5 412.75 569.5 c 0
 395.083007812 569.5 386.25 578.333007812 386.25 596 c 0
 386.25 614.333007812 395.083007812 623.5 412.75 623.5 c 0x1d0e
 431.083007812 623.5 440.25 614.333007812 440.25 596 c 0
737.25 299 m 0x1c0e80
 737.25 281.333007812 728.083007812 272.5 709.75 272.5 c 0
 692.083007812 272.5 683.25 281.333007812 683.25 299 c 0
 683.25 317.333007812 692.083007812 326.5 709.75 326.5 c 0
 728.083007812 326.5 737.25 317.333007812 737.25 299 c 0x1c0e80
366.25 547 m 256x1e1e
 366.25 529 357.25 520 339.25 520 c 256
 321.25 520 312.25 528.5 312.25 545.5 c 0
 312.25 564.5 321.25 574 339.25 574 c 256
 357.25 574 366.25 565 366.25 547 c 256x1e1e
687.75 224 m 0x3c0f
 687.75 206.333007812 679.083007812 197.5 661.75 197.5 c 0
 643.083007812 197.5 633.75 206.333007812 633.75 224 c 0
 633.75 242.333007812 643.083007812 251.5 661.75 251.5 c 0
 679.083007812 251.5 687.75 242.333007812 687.75 224 c 0x3c0f
613.75 175 m 0
 613.75 157.666992188 605.083007812 149 587.75 149 c 0
 569.083007812 149 559.75 157.666992188 559.75 175 c 0
 559.75 193.666992188 569.083007812 203 587.75 203 c 0x5c0e
 605.083007812 203 613.75 193.666992188 613.75 175 c 0
316.75 473 m 0x1c2e
 316.75 454.666992188 308.083007812 445.5 290.75 445.5 c 0
 272.083007812 445.5 262.75 454.666992188 262.75 473 c 0
 262.75 490.666992188 271.75 499.5 289.75 499.5 c 256
 307.75 499.5 316.75 490.666992188 316.75 473 c 0x1c2e
298.75 386 m 256x1c4e
 298.75 368 290.083007812 359 272.75 359 c 0
 254.083007812 359 244.75 368 244.75 386 c 256
 244.75 404 254.083007812 413 272.75 413 c 0
 290.083007812 413 298.75 404 298.75 386 c 256x1c4e
526.75 158.5 m 0
 526.75 140.166992188 517.75 131 499.75 131 c 256
 481.75 131 472.75 140.166992188 472.75 158.5 c 0
 472.75 176.166992188 481.75 185 499.75 185 c 256x9c0e
 517.75 185 526.75 176.166992188 526.75 158.5 c 0
316.75 299 m 0x1c2e
 316.75 281.333007812 307.75 272.5 289.75 272.5 c 256
 271.75 272.5 262.75 281.333007812 262.75 299 c 0
 262.75 317.333007812 271.75 326.5 289.75 326.5 c 256
 307.75 326.5 316.75 317.333007812 316.75 299 c 0x1c2e
440.25 177 m 0
 440.25 158.333007812 431.083007812 149 412.75 149 c 0
 395.083007812 149 386.25 157.666992188 386.25 175 c 0
 386.25 193.666992188 395.083007812 203 412.75 203 c 0x5c0e
 431.083007812 203 440.25 194.333007812 440.25 177 c 0
366.25 224 m 0x3c1e
 366.25 206.333007812 357.25 197.5 339.25 197.5 c 256
 321.25 197.5 312.25 206.333007812 312.25 224 c 0
 312.25 242.333007812 321.25 251.5 339.25 251.5 c 256
 357.25 251.5 366.25 242.333007812 366.25 224 c 0x3c1e
EndSplineSet
EndChar

StartChar: combline
Encoding: 132 773 136
Width: 0
Flags: W
HStem: 721 70<124 886>
AnchorPoint: "overline" 500 730 mark 0
LayerCount: 2
Fore
SplineSet
124 721 m 1
 124 791 l 1
 886 791 l 1
 886 721 l 1
 124 721 l 1
EndSplineSet
Substitution2: "'salt' Stylistic Alternatives lookup 0-1" combline.salt
EndChar

StartChar: uni3099.ruby
Encoding: 137 -1 137
Width: 0
Flags: W
HStem: 650 226<-174 -133.5>
VStem: -285 280<748 798>
LayerCount: 2
Fore
SplineSet
-146 650 m 0
 -163 650 -174 665 -193 689 c 0
 -213 716 -240 758 -285 798 c 1
 -274 812 l 1
 -216 797 -169 777 -137 746 c 0
 -117 725 -107 709 -107 689 c 0
 -107 667 -121 650 -146 650 c 0
-41 722 m 0
 -61 722 -72 738 -92 764 c 0
 -111 788 -133 821 -185 863 c 1
 -174 876 l 1
 -112 863 -71 846 -41 823 c 0
 -17 804 -5 783 -5 759 c 0
 -5 737 -20 722 -41 722 c 0
EndSplineSet
EndChar

StartChar: uni309A.ruby
Encoding: 138 -1 138
Width: 0
Flags: W
HStem: 635 42<-133 -89.5 -133 -77.5> 835 42<-133 -89.5>
VStem: -232 42<734 778 734 789.5> -33 43<734 778>
LayerCount: 2
Fore
SplineSet
-111 635 m 0
 -178 635 -232 689 -232 756 c 0
 -232 823 -178 877 -111 877 c 0
 -44 877 10 823 10 756 c 0
 10 689 -44 635 -111 635 c 0
-111 835 m 0
 -155 835 -190 800 -190 756 c 0
 -190 712 -155 677 -111 677 c 0
 -68 677 -33 712 -33 756 c 0
 -33 800 -68 835 -111 835 c 0
EndSplineSet
EndChar

StartChar: uni309B.ruby
Encoding: 139 -1 139
Width: 1000
Flags: W
HStem: 609 239<139 186.5>
VStem: 36 271<719.5 759>
LayerCount: 2
Fore
SplineSet
174 609 m 0
 157 609 145 625 127 649 c 0
 107 677 80 719 36 759 c 1
 47 773 l 1
 105 758 151 736 183 705 c 0
 203 685 213 668 213 648 c 0
 213 626 199 609 174 609 c 0
272 694 m 0
 252 694 242 709 222 735 c 0
 203 760 179 792 128 834 c 1
 139 848 l 1
 200 835 242 817 271 794 c 0
 296 775 307 754 307 731 c 0
 307 708 294 694 272 694 c 0
EndSplineSet
EndChar

StartChar: uni309C.ruby
Encoding: 140 -1 140
Width: 1000
Flags: W
HStem: 607 42<123.5 168 123.5 179.5> 810 42<123.5 168>
VStem: 23 42<707.5 752 707.5 764> 226 42<707.5 752>
LayerCount: 2
Fore
SplineSet
146 607 m 0
 77 607 23 662 23 730 c 0
 23 798 77 852 146 852 c 0
 213 852 268 798 268 730 c 0
 268 662 213 607 146 607 c 0
146 810 m 0
 101 810 65 774 65 730 c 0
 65 685 101 649 146 649 c 0
 190 649 226 685 226 730 c 0
 226 774 190 810 146 810 c 0
EndSplineSet
EndChar

StartChar: uni30A1.ruby
Encoding: 141 -1 141
Width: 1000
Flags: W
HStem: 390 110<254.769 354.091> 479 75<621.269 723.5>
AnchorPoint: "dot" 500 2 basechar 0
AnchorPoint: "overline" 500 800 basechar 0
LayerCount: 2
Fore
SplineSet
209 528 m 1x80
 219 532 l 1
 243 507 253 500 277 500 c 0x80
 354 500 585 527 642 535 c 0
 673 539 686 554 708 554 c 0
 739 554 822 478 822 442 c 0
 822 412 776 410 757 400 c 0
 723 383 667 355 607 328 c 1
 609 322 609 316 606 309 c 0
 543 155 433 17 247 -61 c 1
 238 -48 l 1
 383 55 486 252 486 302 c 0
 486 327 460 341 429 355 c 1
 431 366 l 1
 446 370 465 375 485 374 c 0
 524 374 556 364 576 354 c 1
 618 388 652 427 667 458 c 0
 675 475 670 479 656 479 c 0x40
 626 479 442 438 370 417 c 0
 340 408 327 390 301 390 c 0
 271 390 225 432 214 467 c 0
 208 482 205 505 209 528 c 1x80
EndSplineSet
EndChar

StartChar: uni30A2.ruby
Encoding: 142 -1 142
Width: 1000
Flags: W
HStem: 542 129<187.957 285.925> 653 90<712.94 795>
AnchorPoint: "dot" 500 2 basechar 0
AnchorPoint: "overline" 500 800 basechar 0
LayerCount: 2
Fore
SplineSet
123 712 m 1x80
 138 716 l 1
 166 685 179 671 211 671 c 0x80
 303 671 628 709 699 719 c 0
 736 724 751 743 776 743 c 0
 814 743 913 651 913 609 c 0
 913 574 858 571 834 557 c 0
 790 532 712 489 629 449 c 1
 631 442 631 434 627 425 c 0
 546 222 412 51 176 -53 c 1
 162 -36 l 1
 356 96 487 352 487 418 c 0
 487 450 453 468 412 486 c 1
 414 501 l 1
 437 506 459 510 484 509 c 0
 531 508 569 494 593 481 c 1
 653 530 706 587 729 628 c 0
 739 648 733 653 714 653 c 0x40
 672 653 421 606 322 580 c 0
 283 569 269 542 239 542 c 0
 202 542 145 594 130 635 c 0
 122 655 120 684 123 712 c 1x80
EndSplineSet
EndChar

StartChar: uni30A3.ruby
Encoding: 143 -1 143
Width: 1000
Flags: W
HStem: 127 14<184 188.506>
VStem: 482 114<-39.3819 238.309> 500 100<28.2526 295.687> 500 92<25.6592 294.343> 573 129<485.149 538.301>
AnchorPoint: "dot" 500 2 basechar 0
AnchorPoint: "overline" 500 800 basechar 0
LayerCount: 2
Fore
SplineSet
530 577 m 1x88
 533 589 l 1
 555 591 581 593 606 585 c 0
 652 572 702 527 702 497 c 0x88
 702 472 682 472 661 452 c 0
 635 426 598 386 554 345 c 1
 580 326 600 311 600 295 c 0xa0
 600 281 593 266 592 243 c 0x90
 589 143 596 38 596 0 c 0
 596 -33 579 -58 547 -58 c 0
 503 -58 482 -18 482 25 c 0xc0
 482 39 487 57 490 82 c 0
 500 165 500 236 500 270 c 0xa0
 500 280 499 288 497 296 c 1
 441 252 321 167 188 127 c 1
 180 141 l 1
 361 247 573 476 573 535 c 0
 573 551 548 568 530 577 c 1x88
EndSplineSet
EndChar

StartChar: uni30A4.ruby
Encoding: 144 -1 144
Width: 1000
Flags: W
VStem: 483 131<-21.7377 314.577> 505 107<108.453 413.156> 608 151<667.26 722.733>
AnchorPoint: "dot" 500 2 basechar 0
AnchorPoint: "overline" 500 800 basechar 0
LayerCount: 2
Fore
SplineSet
550 774 m 1x20
 555 791 l 1
 582 793 614 795 644 785 c 0
 699 769 759 713 759 677 c 0x20
 759 647 734 648 707 620 c 0
 672 584 622 531 562 475 c 1
 596 452 621 433 621 414 c 0
 621 396 612 378 612 349 c 0x40
 607 215 614 71 614 20 c 0
 614 -23 595 -50 559 -50 c 0
 507 -50 483 1 483 51 c 0x80
 483 70 490 93 494 126 c 0
 505 224 506 337 505 381 c 0x40
 505 396 503 409 499 420 c 1
 429 362 275 250 99 192 c 1
 88 211 l 1
 300 333 508 545 582 660 c 0
 599 687 608 708 608 721 c 0
 608 739 580 759 550 774 c 1x20
EndSplineSet
EndChar

StartChar: uni30A5.ruby
Encoding: 145 -1 145
Width: 1000
Flags: W
HStem: 374 57<360.607 462.306> 398 203<465.169 657.5> 398 48<553.548 652.818>
VStem: 268 101<171.776 385.882> 464 114<476.995 551.234>
AnchorPoint: "dot" 500 2 basechar 0
AnchorPoint: "overline" 500 800 basechar 0
LayerCount: 2
Fore
SplineSet
407 567 m 1x98
 407 577 l 1
 426 588 449 601 475 601 c 0x58
 524 601 578 563 578 543 c 0
 578 522 564 521 559 497 c 0
 557 484 554 465 553 446 c 1x38
 590 448 629 450 654 454 c 0
 670 457 684 482 702 482 c 0
 738 482 810 419 810 393 c 0
 810 371 780 357 770 335 c 0
 690 138 572 8 341 -73 c 1
 331 -60 l 1
 509 45 625 200 662 382 c 0
 665 396 664 398 651 398 c 0x58
 520 392 417 374 396 374 c 0
 383 374 373 379 360 388 c 1
 363 344 369 223 369 190 c 0
 369 162 354 149 329 149 c 0
 295 148 268 196 268 228 c 0
 268 236 271 248 272 263 c 0
 273 291 265 378 254 406 c 0
 243 436 229 452 209 475 c 1
 215 486 l 1
 247 481 290 467 319 450 c 0
 332 443 341 437 347 431 c 1
 387 433 429 436 464 439 c 1
 464 462 463 492 462 513 c 0
 461 531 461 540 448 548 c 0
 436 556 423 561 407 567 c 1x98
EndSplineSet
EndChar

StartChar: uni30A6.ruby
Encoding: 146 -1 146
Width: 1000
Flags: W
HStem: 548 99<707 766> 762 43<393.36 437.294>
VStem: 204 118<259.625 530.296> 459 102<604 697.723>
AnchorPoint: "dot" 500 2 basechar 0
AnchorPoint: "overline" 500 800 basechar 0
LayerCount: 2
Fore
SplineSet
384 762 m 1
 383 779 l 1
 407 790 435 805 466 805 c 0
 525 805 592 759 592 735 c 0
 592 708 573 706 568 675 c 0
 565 657 562 629 561 604 c 1
 614 607 671 610 706 615 c 0
 727 617 744 647 766 647 c 0
 809 647 893 572 893 540 c 0
 893 514 856 498 846 472 c 0
 743 218 590 42 300 -68 c 1
 286 -49 l 1
 515 85 673 292 721 528 c 0
 725 545 722 549 707 548 c 0
 512 540 381 515 351 515 c 0
 336 515 323 521 307 533 c 1
 310 477 322 312 322 275 c 0
 322 242 304 226 277 226 c 0
 236 225 204 284 204 324 c 0
 203 335 208 352 208 371 c 0
 210 406 198 512 185 548 c 0
 172 586 151 609 125 639 c 1
 134 654 l 1
 173 646 222 630 256 609 c 0
 273 599 284 592 291 584 c 1
 346 587 408 593 459 597 c 1
 459 629 458 672 457 699 c 0
 456 721 454 732 438 742 c 0
 423 751 404 756 384 762 c 1
EndSplineSet
EndChar

StartChar: uni30A7.ruby
Encoding: 147 -1 147
Width: 1000
Flags: W
HStem: 29 102<213.34 335.295> 85 95<543 761.004> 85 69<544.185 711.462> 349 82<300.064 447.577> 387 102<582.337 708.101>
VStem: 455 89<154 284.023> 459 118<196.204 357.566>
AnchorPoint: "dot" 500 2 basechar 0
AnchorPoint: "overline" 500 800 basechar 0
LayerCount: 2
Fore
SplineSet
254 459 m 1x92
 262 465 l 1
 288 445 316 431 348 431 c 0x92
 393 431 458 438 511 448 c 0
 604 465 610 489 627 489 c 0
 674 489 746 457 746 430 c 0
 746 409 734 387 704 387 c 0
 676 387 620 385 526 374 c 1
 556 361 577 344 577 326 c 0x0a
 577 310 564 292 560 271 c 0
 554 240 548 199 544 154 c 1x2c
 590 158 631 162 658 164 c 0
 705 169 715 180 729 180 c 0
 772 180 852 130 852 97 c 0
 852 74 836 55 812 55 c 0
 779 55 695 85 580 85 c 0x44
 506 85 414 73 354 56 c 0
 314 46 282 29 259 29 c 0
 227 29 179 78 169 105 c 0
 163 119 161 133 161 160 c 1
 170 163 l 1
 193 142 218 131 249 131 c 0
 287 131 371 138 455 146 c 1x84
 458 191 459 244 459 286 c 0
 459 320 454 344 444 364 c 1
 396 356 367 349 343 349 c 0
 321 349 294 372 279 397 c 0
 266 418 258 440 254 459 c 1x92
EndSplineSet
EndChar

StartChar: uni30A8.ruby
Encoding: 148 -1 148
Width: 1000
Flags: W
HStem: 72 119<133.399 260.751> 143 111<676.952 819.98> 143 78<554.364 759.634> 488 96<244.894 435.814> 541 118<631.411 762.831>
VStem: 447 102<221 401.468> 453 137<302.01 493.558>
AnchorPoint: "dot" 500 2 basechar 0
AnchorPoint: "overline" 500 800 basechar 0
LayerCount: 2
Fore
SplineSet
179 622 m 1x92
 191 629 l 1
 225 603 260 584 301 584 c 0x92
 355 584 440 594 517 606 c 0
 648 628 651 659 674 659 c 0
 730 659 815 622 815 589 c 0
 815 565 801 544 765 541 c 0
 726 537 638 533 524 520 c 1
 561 503 590 482 590 460 c 0x0a
 590 440 573 418 568 390 c 0
 561 348 554 285 549 221 c 1x2c
 614 227 674 232 717 235 c 0
 774 241 787 254 803 254 c 0x44
 856 254 955 196 955 155 c 0
 955 128 936 107 908 107 c 0
 869 107 770 141 632 143 c 0x24
 531 145 381 127 295 104 c 0
 247 91 210 72 183 72 c 0
 143 72 85 132 72 163 c 0
 64 181 61 198 61 230 c 1
 74 236 l 1
 103 209 133 191 172 191 c 0
 217 191 330 201 447 211 c 1x84
 450 275 453 356 453 409 c 0
 453 453 445 483 431 508 c 1
 366 498 323 488 294 488 c 0
 266 488 234 514 215 543 c 0
 199 568 186 595 179 622 c 1x92
EndSplineSet
EndChar

StartChar: uni30A9.ruby
Encoding: 149 -1 149
Width: 1000
Flags: W
HStem: -2 11<164.545 169.052> 58 12<417.667 425.865> 296 95<262.698 380.711> 350 102<649.037 783.663>
VStem: 537 112<465.42 541.705> 538 93<61.0261 235.469>
AnchorPoint: "dot" 500 2 basechar 0
AnchorPoint: "overline" 500 800 basechar 0
LayerCount: 2
Fore
SplineSet
475 563 m 1xe8
 475 572 l 1
 492 581 520 593 546 593 c 0
 595 593 649 555 649 536 c 0xe8
 649 519 635 513 631 489 c 0
 627 467 624 445 623 426 c 1
 700 437 714 452 724 452 c 0
 759 452 825 411 825 384 c 0
 825 365 811 350 790 350 c 0
 761 350 711 360 622 356 c 1
 622 296 623 202 625 147 c 0
 627 120 631 84 631 47 c 0
 631 -6 592 -54 559 -54 c 0
 526 -54 526 -21 499 5 c 0
 478 25 452 39 416 58 c 1
 420 70 l 1
 458 65 494 61 520 61 c 0
 531 60 537 67 538 78 c 0
 540 100 539 163 538 238 c 1xd4
 459 143 326 46 169 -2 c 1
 162 9 l 1
 313 103 429 228 489 342 c 1
 452 335 420 327 393 321 c 0
 355 311 325 296 305 296 c 0
 274 296 231 346 222 371 c 0
 217 386 215 398 215 421 c 1
 223 425 l 1
 245 404 265 391 295 391 c 0
 356 391 455 406 537 416 c 1
 536 443 536 481 535 506 c 0
 534 522 531 530 519 539 c 0
 504 551 491 557 475 563 c 1xe8
EndSplineSet
EndChar

StartChar: uni30AA.ruby
Encoding: 150 -1 150
Width: 1000
Flags: W
HStem: 98 16<400.812 411.996> 421 111<196.771 324.553> 490 120<749.704 867.073> 751 45<479.76 530.468>
VStem: 554 99<100.626 359 575 699.477>
AnchorPoint: "dot" 500 2 basechar 0
AnchorPoint: "overline" 500 800 basechar 0
LayerCount: 2
Fore
SplineSet
463 751 m 1xd8
 463 766 l 1
 485 778 525 796 558 796 c 0
 618 796 685 750 685 727 c 0
 685 705 667 699 662 665 c 0
 657 636 654 603 653 575 c 1
 769 590 784 610 800 610 c 0
 843 610 921 563 921 530 c 0
 921 507 905 490 881 490 c 0xb8
 840 490 772 502 651 495 c 1
 651 413 653 281 656 207 c 0
 658 164 664 123 664 81 c 0
 664 18 617 -40 578 -40 c 0
 539 -40 538 1 506 31 c 0
 478 57 442 76 398 98 c 1
 403 114 l 1
 451 107 499 100 532 99 c 0
 546 98 554 105 555 120 c 0
 558 152 558 251 557 359 c 1
 454 230 275 96 77 28 c 1
 65 44 l 1
 257 163 417 329 497 479 c 1
 441 471 392 459 353 450 c 0
 305 439 271 421 243 421 c 0
 207 420 153 481 141 511 c 0
 134 530 132 548 132 575 c 1
 146 580 l 1
 173 550 197 532 233 532 c 0
 309 532 447 552 554 564 c 1
 553 603 552 657 551 690 c 0
 550 710 545 720 529 730 c 0
 510 744 485 748 463 751 c 1xd8
EndSplineSet
EndChar

StartChar: uni30AB.ruby
Encoding: 151 -1 151
Width: 1000
Flags: W
HStem: -15 137<549.405 636.628> 407 116<196.774 299.701> 498 107<695.5 772.5>
VStem: 480 152<669.063 724.998>
AnchorPoint: "dot" 500 2 basechar 0
AnchorPoint: "overline" 500 800 basechar 0
LayerCount: 2
Fore
SplineSet
574 559 m 1xd0
 693 573 l 2
 721 576 736 605 757 605 c 0
 788 605 875 537 875 504 c 0
 875 477 838 477 833 439 c 0
 820 350 792 203 738 94 c 0
 709 38 649 -15 590 -15 c 0
 558 -15 550 -2 541 31 c 0
 532 65 509 87 446 143 c 1
 455 158 l 1
 513 137 562 124 586 122 c 0
 612 119 622 123 634 139 c 0
 691 214 727 421 727 485 c 0
 727 494 723 498 716 498 c 0xb0
 675 498 610 489 551 480 c 1
 511 348 413 85 91 -55 c 1
 78 -37 l 1
 292 123 380 306 429 459 c 1
 387 451 340 441 313 433 c 0
 282 423 263 407 239 407 c 0
 207 407 157 465 145 499 c 0
 135 523 137 546 142 575 c 1
 156 579 l 1
 178 549 197 523 231 523 c 0
 256 523 351 533 454 545 c 1
 467 598 479 657 480 685 c 0
 480 706 477 715 464 724 c 0
 446 736 423 745 402 752 c 1
 402 767 l 1
 425 778 459 794 486 794 c 0
 542 794 632 741 632 708 c 0
 632 677 604 677 593 635 c 0
 588 616 582 590 574 559 c 1xd0
EndSplineSet
EndChar

StartChar: uni30AC.ruby
Encoding: 152 -1 152
Width: 1000
Flags: W
HStem: -24 137<526.405 613.628> 398 116<173.774 276.701> 489 107<672.5 749.5> 798 13<813.154 816.239>
VStem: 457 152<660.063 715.998>
AnchorPoint: "dot" 500 2 basechar 0
AnchorPoint: "overline" 500 800 basechar 0
LayerCount: 2
Fore
SplineSet
551 550 m 1xd8
 670 564 l 2
 698 567 713 596 734 596 c 0
 765 596 852 528 852 495 c 0
 852 468 815 468 810 430 c 0
 797 341 769 194 715 85 c 0
 686 29 626 -24 567 -24 c 0
 535 -24 527 -11 518 22 c 0
 509 56 486 78 423 134 c 1
 432 149 l 1
 490 128 539 115 563 113 c 0
 589 110 599 114 611 130 c 0
 668 205 704 412 704 476 c 0
 704 485 700 489 693 489 c 0xb8
 652 489 587 480 528 471 c 1
 488 339 390 76 68 -64 c 1
 55 -46 l 1
 269 114 357 297 406 450 c 1
 364 442 317 432 290 424 c 0
 259 414 240 398 216 398 c 0
 184 398 134 456 122 490 c 0
 112 514 114 537 119 566 c 1
 133 570 l 1
 155 540 174 514 208 514 c 0
 233 514 328 524 431 536 c 1
 444 589 456 648 457 676 c 0
 457 697 454 706 441 715 c 0
 423 727 400 736 379 743 c 1
 379 758 l 1
 402 769 436 785 463 785 c 0
 519 785 609 732 609 699 c 0
 609 668 581 668 570 626 c 0
 565 607 559 581 551 550 c 1xd8
717 729 m 1
 727 742 l 1
 783 728 830 709 861 681 c 0
 883 661 890 644 890 625 c 0
 890 604 875 588 854 588 c 0
 837 588 824 603 808 626 c 0
 789 653 765 689 717 729 c 1
809 798 m 1
 818 811 l 1
 875 799 921 783 949 762 c 0
 974 743 984 723 984 700 c 0
 984 678 972 665 950 665 c 0
 931 665 920 681 901 706 c 0
 882 729 862 757 809 798 c 1
EndSplineSet
EndChar

StartChar: uni30AD.ruby
Encoding: 153 -1 153
Width: 1000
Flags: W
HStem: 163 104<155.917 268.904> 287 77<576 640.368> 337 102<748.139 894.744> 424 97<198.516 311.225> 550 99<622.078 750.752>
VStem: 412 97<591 647.659> 517 126<-18.9646 101.031>
AnchorPoint: "dot" 500 2 basechar 0
AnchorPoint: "overline" 500 800 basechar 0
LayerCount: 2
Fore
SplineSet
289 741 m 1xde
 288 756 l 1
 319 773 361 790 383 790 c 0
 424 790 502 760 506 733 c 0
 510 708 495 695 498 667 c 0
 500 645 504 621 509 591 c 1
 543 600 568 607 591 615 c 0
 635 630 660 649 668 649 c 0
 703 650 773 630 773 600 c 0
 773 576 763 557 724 550 c 0
 666 539 584 522 526 508 c 1
 538 455 548 407 558 364 c 1xde
 635 383 715 405 759 421 c 0
 783 430 793 438 802 439 c 0
 861 440 920 416 920 384 c 0
 920 364 912 340 872 337 c 0xae
 766 328 688 315 576 287 c 1
 593 211 607 156 616 121 c 0
 632 62 643 34 643 -5 c 0
 643 -31 627 -53 590 -54 c 0
 554 -55 525 -7 517 35 c 0
 512 54 510 108 499 163 c 0
 494 194 487 227 480 262 c 1
 413 243 337 216 292 195 c 0
 260 180 245 163 220 163 c 0
 182 162 123 202 110 224 c 0
 100 239 95 260 93 289 c 1
 105 296 l 1
 134 274 149 267 168 267 c 0
 196 267 352 309 464 339 c 1
 452 395 440 447 431 485 c 1
 392 474 353 462 323 450 c 0
 293 438 275 424 250 424 c 0
 223 424 173 459 153 490 c 0
 143 506 141 517 137 539 c 1
 148 545 l 1
 171 531 183 521 208 521 c 0
 232 521 330 545 412 565 c 1
 398 620 387 665 377 686 c 0
 365 714 350 719 289 741 c 1xde
EndSplineSet
EndChar

StartChar: uni30AE.ruby
Encoding: 154 -1 154
Width: 1000
Flags: W
HStem: 162 104<141.917 254.904> 286 77<562 626.368> 336 102<734.139 880.744> 423 97<184.516 297.225> 549 99<608.078 736.752> 799 13<796.154 799.111>
VStem: 398 97<590 646.659> 503 126<-19.9646 100.031>
AnchorPoint: "dot" 500 2 basechar 0
AnchorPoint: "overline" 500 800 basechar 0
LayerCount: 2
Fore
SplineSet
700 730 m 1x8f
 711 744 l 1
 766 729 812 710 843 681 c 0
 865 661 872 644 872 625 c 0
 871 604 856 588 835 588 c 0
 818 589 805 603 790 627 c 0
 771 654 747 691 700 730 c 1x8f
275 740 m 1
 274 755 l 1
 305 772 347 789 369 789 c 0
 410 789 488 759 492 732 c 0
 496 707 481 694 484 666 c 0
 486 644 490 620 495 590 c 1
 529 599 554 606 577 614 c 0
 621 629 646 648 654 648 c 0
 689 649 759 629 759 599 c 0
 759 575 749 556 710 549 c 0
 652 538 570 521 512 507 c 1
 524 454 534 406 544 363 c 1xdf
 621 382 701 404 745 420 c 0
 769 429 779 437 788 438 c 0
 847 439 906 415 906 383 c 0
 906 363 898 339 858 336 c 0xaf
 752 327 674 314 562 286 c 1
 579 210 593 155 602 120 c 0
 618 61 629 33 629 -6 c 0
 629 -32 613 -54 576 -55 c 0
 540 -56 511 -8 503 34 c 0
 498 53 496 107 485 162 c 0
 480 193 473 226 466 261 c 1
 399 242 323 215 278 194 c 0
 246 179 231 162 206 162 c 0
 168 161 109 201 96 223 c 0
 86 238 81 259 79 288 c 1
 91 295 l 1
 120 273 135 266 154 266 c 0
 182 266 338 308 450 338 c 1
 438 394 426 446 417 484 c 1
 378 473 339 461 309 449 c 0
 279 437 261 423 236 423 c 0
 209 423 159 458 139 489 c 0
 129 505 127 516 123 538 c 1
 134 544 l 1
 157 530 169 520 194 520 c 0xdf
 218 520 316 544 398 564 c 1
 384 619 373 664 363 685 c 0
 351 713 336 718 275 740 c 1
792 799 m 1
 801 812 l 1
 858 800 903 782 931 761 c 0
 956 742 965 722 965 699 c 0
 965 677 953 664 932 664 c 0
 913 664 902 680 883 705 c 0
 865 729 844 758 792 799 c 1
EndSplineSet
EndChar

StartChar: uni30AF.ruby
Encoding: 155 -1 155
Width: 1000
Flags: W
HStem: 537 78<496.316 587.625> 575 98<668.5 753>
VStem: 403 160<682.884 748.472>
AnchorPoint: "dot" 500 2 basechar 0
AnchorPoint: "overline" 500 800 basechar 0
LayerCount: 2
Fore
SplineSet
496 615 m 1xa0
 531 615 646 631 674 641 c 0
 699 649 716 673 738 673 c 0
 768 673 870 620 870 579 c 0
 870 551 831 541 813 511 c 0
 666 256 460 53 133 -61 c 1
 121 -42 l 1
 375 94 607 347 691 556 c 0
 696 570 691 575 679 575 c 0x60
 658 575 586 559 557 550 c 0
 536 543 520 537 501 537 c 0
 489 537 473 547 455 561 c 1
 368 455 252 356 123 300 c 1
 110 318 l 1
 272 451 403 649 403 713 c 0
 403 732 379 756 347 773 c 1
 350 787 l 1
 369 791 387 795 420 793 c 0
 486 790 563 748 563 723 c 0
 563 701 550 697 533 671 c 0
 522 652 509 634 496 615 c 1xa0
EndSplineSet
EndChar

StartChar: uni30B0.ruby
Encoding: 156 -1 156
Width: 1000
Flags: W
HStem: 526 78<489.316 580.625> 564 98<661.5 746> 834 13<827.154 830.239>
VStem: 396 160<671.884 737.472>
AnchorPoint: "dot" 500 2 basechar 0
AnchorPoint: "overline" 500 800 basechar 0
LayerCount: 2
Fore
SplineSet
489 604 m 1xb0
 524 604 639 620 667 630 c 0
 692 638 709 662 731 662 c 0
 761 662 863 609 863 568 c 0
 863 540 824 530 806 500 c 0
 659 245 453 42 126 -72 c 1
 114 -53 l 1
 368 83 600 336 684 545 c 0
 689 559 684 564 672 564 c 0x70
 651 564 579 548 550 539 c 0
 529 532 513 526 494 526 c 0
 482 526 466 536 448 550 c 1
 361 444 245 345 116 289 c 1
 103 307 l 1
 265 440 396 638 396 702 c 0
 396 721 372 745 340 762 c 1
 343 776 l 1
 362 780 380 784 413 782 c 0
 479 779 556 737 556 712 c 0
 556 690 543 686 526 660 c 0
 515 641 502 623 489 604 c 1xb0
736 770 m 1
 745 783 l 1
 801 769 848 750 879 722 c 0
 901 702 908 685 908 666 c 0
 908 645 893 629 872 629 c 0
 855 629 843 643 826 667 c 0
 807 694 783 730 736 770 c 1
823 834 m 1
 832 847 l 1
 889 836 934 819 962 799 c 0
 988 780 998 760 998 737 c 0
 998 715 985 701 965 701 c 0
 945 701 934 717 915 742 c 0
 896 765 876 794 823 834 c 1
EndSplineSet
EndChar

StartChar: uni30B1.ruby
Encoding: 157 -1 157
Width: 1000
Flags: W
HStem: 455 85<393.249 520.471> 498 111<732.637 866.992>
VStem: 346 147<655.225 729.974> 530 143<371.315 444.233>
AnchorPoint: "dot" 500 2 basechar 0
AnchorPoint: "overline" 500 800 basechar 0
LayerCount: 2
Fore
SplineSet
303 788 m 1xb0
 310 801 l 1
 350 797 383 789 411 775 c 0
 447 756 493 718 493 689 c 0
 493 667 470 659 452 631 c 0
 433 601 414 571 393 543 c 1
 403 541 412 540 421 540 c 0xb0
 468 540 653 570 706 580 c 0
 753 589 768 609 788 609 c 0
 834 609 903 583 903 539 c 0
 903 518 894 499 857 499 c 0
 819 499 762 501 713 498 c 0x70
 682 496 635 490 589 484 c 1
 638 462 673 431 673 409 c 0
 673 386 648 372 637 349 c 0
 552 167 414 36 207 -50 c 1
 195 -34 l 1
 398 97 530 322 530 421 c 0
 530 444 525 461 513 474 c 1
 477 468 l 2
 451 463 431 455 413 455 c 0
 395 455 372 473 353 492 c 1
 282 407 197 332 89 273 c 1
 76 289 l 1
 207 408 346 622 346 713 c 0
 346 737 334 754 303 788 c 1xb0
EndSplineSet
EndChar

StartChar: uni30B2.ruby
Encoding: 158 -1 158
Width: 1000
Flags: W
HStem: 451 85<379.249 506.471> 494 111<718.637 852.992>
VStem: 332 147<651.225 725.974> 516 143<367.315 440.233>
AnchorPoint: "dot" 500 2 basechar 0
AnchorPoint: "overline" 500 800 basechar 0
LayerCount: 2
Fore
SplineSet
696 765 m 1x30
 706 778 l 1
 757 763 797 745 824 723 c 0
 849 702 859 683 859 661 c 0
 859 639 846 626 824 626 c 0
 807 626 794 640 778 663 c 0
 759 691 740 722 696 765 c 1x30
289 784 m 1
 296 797 l 1
 336 793 369 785 397 771 c 0
 433 752 479 714 479 685 c 0
 479 663 456 655 438 627 c 0
 419 597 400 567 379 539 c 1
 389 537 398 536 407 536 c 0xb0
 454 536 639 566 692 576 c 0
 739 585 754 605 774 605 c 0
 820 605 889 579 889 535 c 0
 889 514 880 495 843 495 c 0
 805 495 748 497 699 494 c 0x70
 668 492 621 486 575 480 c 1
 624 458 659 427 659 405 c 0
 659 382 634 368 623 345 c 0
 538 163 400 32 193 -54 c 1
 181 -38 l 1
 384 93 516 318 516 417 c 0
 516 440 511 457 499 470 c 1
 463 464 l 2
 437 459 417 451 399 451 c 0xb0
 381 451 358 469 339 488 c 1
 268 403 183 328 75 269 c 1
 62 285 l 1
 193 404 332 618 332 709 c 0
 332 733 320 750 289 784 c 1
801 816 m 1
 810 829 l 1
 867 817 907 802 935 781 c 0
 960 762 970 742 970 718 c 0
 970 698 957 684 936 684 c 0
 917 684 906 700 885 725 c 0
 868 748 851 772 801 816 c 1
EndSplineSet
EndChar

StartChar: uni30B3.ruby
Encoding: 159 -1 159
Width: 1000
Flags: W
HStem: 67 115<210.2 348.207> 111 112<755.676 800.264> 466 116<231.429 345.727> 536 116<674.309 734.5>
AnchorPoint: "dot" 500 2 basechar 0
AnchorPoint: "overline" 500 800 basechar 0
LayerCount: 2
Fore
SplineSet
173 625 m 1x20
 188 631 l 1
 219 603 238 582 273 582 c 0x20
 326 582 583 610 638 617 c 0
 681 622 688 652 716 652 c 0
 753 652 858 586 858 543 c 0
 858 515 825 499 816 465 c 0
 801 409 779 316 755 223 c 1
 804 212 830 177 830 146 c 0
 830 123 814 111 782 111 c 0x50
 746 111 692 125 609 125 c 0
 513 125 411 105 361 92 c 0
 317 81 293 67 264 67 c 0
 223 67 172 116 156 155 c 0
 147 178 142 210 144 227 c 1
 158 233 l 1
 187 204 213 182 254 182 c 0
 300 182 526 208 645 220 c 1
 665 328 687 468 690 523 c 0
 691 532 688 536 679 536 c 0x90
 635 536 434 509 373 495 c 0
 330 485 302 466 276 466 c 0
 243 466 194 519 182 557 c 0
 176 575 172 602 173 625 c 1x20
EndSplineSet
EndChar

StartChar: uni30B4.ruby
Encoding: 160 -1 160
Width: 1000
Flags: W
HStem: 45 115<187.2 325.207> 89 112<732.676 777.264> 444 116<208.429 322.727> 514 116<651.309 711.5> 806 13<805.692 809.111>
AnchorPoint: "dot" 500 2 basechar 0
AnchorPoint: "overline" 500 800 basechar 0
LayerCount: 2
Fore
SplineSet
150 603 m 1x28
 165 609 l 1
 196 581 215 560 250 560 c 0x28
 303 560 560 588 615 595 c 0
 658 600 665 630 693 630 c 0
 730 630 835 564 835 521 c 0
 835 493 802 477 793 443 c 0
 778 387 756 294 732 201 c 1
 781 190 807 155 807 124 c 0
 807 101 791 89 759 89 c 0x58
 723 89 669 103 586 103 c 0
 490 103 388 83 338 70 c 0
 294 59 270 45 241 45 c 0
 200 45 149 94 133 133 c 0
 124 156 119 188 121 205 c 1
 135 211 l 1
 164 182 190 160 231 160 c 0
 277 160 503 186 622 198 c 1
 642 306 664 446 667 501 c 0
 668 510 665 514 656 514 c 0x98
 612 514 411 487 350 473 c 0
 307 463 279 444 253 444 c 0
 220 444 171 497 159 535 c 0
 153 553 149 580 150 603 c 1x28
709 735 m 1
 718 749 l 1
 774 734 821 716 852 687 c 0
 874 667 881 650 881 631 c 0
 881 610 866 594 845 594 c 0
 829 594 815 609 799 632 c 0
 781 660 756 695 709 735 c 1
802 806 m 1
 810 819 l 1
 867 808 913 791 941 771 c 0
 967 751 976 732 976 709 c 0
 976 687 964 673 943 673 c 0
 924 673 912 690 893 714 c 0
 875 737 854 766 802 806 c 1
EndSplineSet
EndChar

StartChar: uni30B5.ruby
Encoding: 161 -1 161
Width: 1000
Flags: W
HStem: -59 17<319.294 329.308> 380 107<105.869 211.615> 428 75<226.123 320> 465 97<704.931 897.3> 749 44<529.978 578.504>
VStem: 302 113<212.961 423.824> 320 94<283.176 428 513 649.937> 597 104<251.465 460 542 693.699>
AnchorPoint: "dot" 600 2 basechar 0
AnchorPoint: "overline" 500 800 basechar 0
LayerCount: 2
Fore
SplineSet
517 749 m 1xab
 516 764 l 1
 546 780 575 793 600 793 c 0
 653 793 729 747 729 713 c 0
 729 688 706 693 703 636 c 0
 702 603 701 571 701 542 c 1
 786 551 798 562 818 562 c 0x9b
 877 562 944 535 944 487 c 0xcb
 944 454 927 448 899 448 c 0
 863 448 810 465 710 465 c 2
 701 465 l 1
 696 326 687 212 632 135 c 0
 566 39 458 -23 323 -59 c 1
 314 -42 l 1
 397 1 485 61 541 157 c 0
 581 224 595 343 597 460 c 1
 534 455 466 448 414 442 c 1x9b
 414 360 415 287 415 241 c 0
 415 201 400 182 367 182 c 0
 330 182 302 241 302 282 c 0x9d
 302 307 318 338 320 428 c 1xab
 279 421 245 413 221 405 c 0
 195 396 172 380 150 380 c 0
 111 380 72 438 62 460 c 0
 55 475 53 504 55 531 c 1
 68 535 l 1
 95 504 112 487 140 487 c 0xcb
 174 487 259 497 320 503 c 1
 319 561 317 616 313 638 c 0
 308 664 286 674 240 687 c 1
 239 701 l 1
 263 715 293 726 318 726 c 0
 357 726 436 691 436 651 c 0
 436 628 419 626 416 590 c 0
 415 573 414 543 414 513 c 1
 469 518 540 526 597 532 c 1
 598 606 597 661 590 704 c 0
 587 731 566 738 517 749 c 1xab
EndSplineSet
EndChar

StartChar: uni30B6.ruby
Encoding: 162 -1 162
Width: 1000
Flags: W
HStem: -62 17<307.294 317.308> 377 107<93.8692 199.615> 425 75<214.123 308> 462 97<692.931 885.3> 746 44<517.978 566.504>
VStem: 290 113<209.961 420.824> 308 94<280.176 425 510 646.937> 585 104<248.465 457 539 690.699>
AnchorPoint: "dot" 590 2 basechar 0
AnchorPoint: "overline" 500 800 basechar 0
LayerCount: 2
Fore
SplineSet
734 747 m 1x89
 745 760 l 1
 796 742 837 721 864 689 c 0
 883 667 888 655 888 636 c 0
 887 618 875 604 855 604 c 0
 837 604 826 617 812 640 c 0
 796 666 776 707 734 747 c 1x89
505 746 m 1
 504 761 l 1
 534 777 563 790 588 790 c 0
 641 790 717 744 717 710 c 0
 717 685 694 690 691 633 c 0
 690 600 689 568 689 539 c 1
 774 548 786 559 806 559 c 0x9b
 865 559 932 532 932 484 c 0xcb
 932 451 915 445 887 445 c 0
 851 445 798 462 698 462 c 2
 689 462 l 1
 684 323 675 209 620 132 c 0
 554 36 446 -26 311 -62 c 1
 302 -45 l 1
 385 -2 473 58 529 154 c 0
 569 221 583 340 585 457 c 1
 522 452 454 445 402 439 c 1x9b
 402 357 403 284 403 238 c 0
 403 198 388 179 355 179 c 0
 318 179 290 238 290 279 c 0x9d
 290 304 306 335 308 425 c 1xab
 267 418 233 410 209 402 c 0
 183 393 160 377 138 377 c 0
 99 377 60 435 50 457 c 0
 43 472 41 501 43 528 c 1
 56 532 l 1
 83 501 100 484 128 484 c 0xcb
 162 484 247 494 308 500 c 1
 307 558 305 613 301 635 c 0
 296 661 274 671 228 684 c 1
 227 698 l 1
 251 712 281 723 306 723 c 0
 345 723 424 688 424 648 c 0
 424 625 407 623 404 587 c 0
 403 570 402 540 402 510 c 1xab
 457 515 528 523 585 529 c 1
 586 603 585 658 578 701 c 0
 575 728 554 735 505 746 c 1
813 821 m 1
 823 834 l 1
 877 819 914 804 941 778 c 0
 962 757 971 742 970 720 c 0
 970 703 960 688 938 688 c 0
 920 688 910 702 893 725 c 0
 875 748 859 782 813 821 c 1
EndSplineSet
EndChar

StartChar: uni30B7.ruby
Encoding: 163 -1 163
Width: 1000
Flags: W
HStem: -23 135<256.589 343.915>
AnchorPoint: "dot" 500 2 basechar 0
AnchorPoint: "overline" 500 800 basechar 0
LayerCount: 2
Fore
SplineSet
361 636 m 0
 322 671 286 699 254 718 c 1
 260 736 l 1
 293 735 340 732 401 718 c 0
 470 699 529 666 529 602 c 0
 529 575 508 549 480 549 c 0
 432 549 414 588 361 636 c 0
263 112 m 0
 378 112 756 371 926 578 c 1
 944 566 l 1
 844 363 618 158 400 29 c 0
 367 10 354 -23 320 -23 c 0
 277 -23 210 22 181 67 c 0
 164 93 157 140 156 167 c 1
 169 174 l 1
 191 151 224 112 263 112 c 0
240 418 m 0
 194 462 158 491 127 509 c 1
 133 526 l 1
 174 523 214 519 267 506 c 0
 338 489 407 449 407 388 c 0
 407 364 395 333 354 333 c 0
 306 333 287 377 240 418 c 0
EndSplineSet
EndChar

StartChar: uni30B8.ruby
Encoding: 164 -1 164
Width: 1000
Flags: W
HStem: -36 135<251.589 338.915>
AnchorPoint: "dot" 500 2 basechar 0
AnchorPoint: "overline" 500 800 basechar 0
LayerCount: 2
Fore
SplineSet
793 576 m 0
 776 576 763 589 747 613 c 0
 728 641 700 681 656 725 c 1
 666 738 l 1
 722 720 771 699 801 670 c 0
 822 649 830 632 830 613 c 0
 830 592 814 576 793 576 c 0
896 661 m 0
 877 661 865 677 845 702 c 0
 827 726 803 757 753 801 c 1
 763 814 l 1
 821 800 866 781 895 759 c 0
 918 740 930 720 930 697 c 0
 930 675 917 661 896 661 c 0
356 623 m 0
 317 658 281 686 249 705 c 1
 255 723 l 1
 288 722 335 719 396 705 c 0
 465 686 524 653 524 589 c 0
 524 562 503 536 475 536 c 0
 427 536 409 575 356 623 c 0
258 99 m 0
 373 99 751 358 921 565 c 1
 939 553 l 1
 839 350 613 145 395 16 c 0
 362 -3 349 -36 315 -36 c 0
 272 -36 205 9 176 54 c 0
 159 80 152 127 151 154 c 1
 164 161 l 1
 186 138 219 99 258 99 c 0
235 405 m 0
 189 449 153 478 122 496 c 1
 128 513 l 1
 169 510 209 506 262 493 c 0
 333 476 402 436 402 375 c 0
 402 351 390 320 349 320 c 0
 301 320 282 364 235 405 c 0
EndSplineSet
EndChar

StartChar: uni30B9.ruby
Encoding: 165 -1 165
Width: 1000
Flags: W
HStem: -5 21<63.3333 67.023> 513 117<265.751 360.603> 607 103<587 682.5>
AnchorPoint: "dot" 500 2 basechar 0
AnchorPoint: "overline" 500 800 basechar 0
LayerCount: 2
Fore
SplineSet
205 681 m 1xc0
 222 688 l 1
 244 659 272 630 306 630 c 0xc0
 375 630 550 663 598 675 c 0
 623 681 640 710 661 710 c 0
 704 710 794 633 794 601 c 0
 794 572 748 557 736 540 c 0
 702 490 650 404 585 332 c 1
 749 281 896 186 896 76 c 0
 896 45 874 11 834 11 c 0
 795 11 769 41 735 94 c 0
 689 170 650 241 557 303 c 1
 465 209 310 70 67 -5 c 1
 56 16 l 1
 291 138 537 393 618 588 c 0
 624 603 618 607 607 607 c 0xa0
 567 603 439 565 389 548 c 0
 356 537 344 513 316 513 c 0
 272 513 225 571 213 608 c 0
 206 628 204 654 205 681 c 1xc0
EndSplineSet
EndChar

StartChar: uni30BA.ruby
Encoding: 166 -1 166
Width: 1000
Flags: W
HStem: -24 21<44.3333 48.023> 494 117<246.751 341.603> 588 103<568 663.5> 823 13<799.154 802.111>
AnchorPoint: "dot" 500 2 basechar 0
AnchorPoint: "overline" 500 800 basechar 0
LayerCount: 2
Fore
SplineSet
703 755 m 1x90
 712 769 l 1
 768 754 815 736 846 707 c 0
 868 688 875 670 875 651 c 0
 875 630 860 615 838 615 c 0
 822 615 809 629 793 653 c 0
 774 681 750 715 703 755 c 1x90
186 662 m 1
 203 669 l 1
 225 640 253 611 287 611 c 0xd0
 356 611 531 644 579 656 c 0
 604 662 621 691 642 691 c 0
 685 691 775 614 775 582 c 0
 775 553 729 538 717 521 c 0
 683 471 631 385 566 313 c 1
 730 262 877 167 877 57 c 0
 877 26 855 -8 815 -8 c 0
 776 -8 750 22 716 75 c 0
 670 151 631 222 538 284 c 1
 446 190 291 51 48 -24 c 1
 37 -3 l 1
 272 119 518 374 599 569 c 0
 605 584 599 588 588 588 c 0xb0
 548 584 420 546 370 529 c 0
 337 518 325 494 297 494 c 0xd0
 253 494 206 552 194 589 c 0
 187 609 185 635 186 662 c 1
795 823 m 1
 804 836 l 1
 860 825 906 808 934 788 c 0
 959 768 969 749 969 726 c 0
 969 704 956 691 936 691 c 0xb0
 916 691 904 706 885 731 c 0
 868 754 847 783 795 823 c 1
EndSplineSet
EndChar

StartChar: uni30BB.ruby
Encoding: 167 -1 167
Width: 1000
Flags: W
HStem: 3 103<470.076 744.254> 298 118<130.208 239.339>
VStem: 363 147<637.469 706.539> 363 92<120.619 376.933>
AnchorPoint: "dot" 500 2 basechar 0
AnchorPoint: "overline" 500 800 basechar 0
LayerCount: 2
Fore
SplineSet
611 266 m 1xe0
 596 280 l 1
 655 350 706 423 735 482 c 0
 740 494 734 502 720 500 c 0
 671 491 547 447 463 416 c 1
 458 341 455 260 455 200 c 0
 456 114 472 106 564 106 c 0
 689 106 755 133 768 133 c 0
 812 133 870 118 870 77 c 0
 870 45 846 33 819 26 c 0
 772 14 669 3 609 3 c 0
 427 3 363 23 363 170 c 0xd0
 362 223 364 310 365 378 c 1
 333 366 300 352 273 339 c 0
 231 318 218 298 184 298 c 0
 148 298 82 350 66 386 c 0
 56 407 58 433 60 460 c 1
 73 464 l 1
 94 441 115 416 149 416 c 0
 183 416 294 446 366 467 c 1
 366 548 367 645 363 680 c 0
 361 704 331 715 281 730 c 1
 280 745 l 1
 320 762 354 772 378 772 c 0
 435 772 510 726 510 694 c 0
 510 664 488 652 481 612 c 0
 477 589 473 547 469 496 c 1
 552 520 658 550 704 564 c 0
 738 574 751 596 772 596 c 0
 811 596 906 518 906 484 c 0
 906 457 859 445 840 428 c 0
 775 373 699 316 611 266 c 1xe0
EndSplineSet
EndChar

StartChar: uni30BC.ruby
Encoding: 168 -1 168
Width: 1000
Flags: W
HStem: -7 103<456.076 730.254> 288 118<116.208 225.339> 802 13<801.154 804.111>
VStem: 349 147<627.469 696.539> 349 92<110.619 366.933>
AnchorPoint: "dot" 500 2 basechar 0
AnchorPoint: "overline" 500 800 basechar 0
LayerCount: 2
Fore
SplineSet
705 734 m 1xe0
 715 748 l 1
 770 733 818 714 849 686 c 0
 871 666 878 649 878 630 c 0
 878 609 863 594 841 594 c 0
 825 594 812 608 796 631 c 0
 777 659 752 694 705 734 c 1xe0
267 720 m 1
 266 735 l 1
 306 752 340 762 364 762 c 0
 421 762 496 716 496 684 c 0xf0
 496 654 474 642 467 602 c 0
 463 579 459 537 455 486 c 1
 538 510 644 540 690 554 c 0
 724 564 737 586 758 586 c 0
 797 586 892 508 892 474 c 0
 892 447 845 435 826 418 c 0
 761 363 685 306 597 256 c 1
 582 270 l 1
 641 340 692 413 721 472 c 0
 726 484 720 492 706 490 c 0
 657 481 533 437 449 406 c 1
 444 331 441 250 441 190 c 0
 442 104 458 96 550 96 c 0
 675 96 741 123 754 123 c 0
 798 123 856 108 856 67 c 0
 856 35 832 23 805 16 c 0
 758 4 655 -7 595 -7 c 0
 413 -7 349 13 349 160 c 0xe8
 348 213 350 300 351 368 c 1
 319 356 286 342 259 329 c 0
 217 308 204 288 170 288 c 0
 134 288 68 340 52 376 c 0
 42 397 44 423 46 450 c 1
 59 454 l 1
 80 431 101 406 135 406 c 0
 169 406 280 436 352 457 c 1
 352 538 353 635 349 670 c 0xf0
 347 694 317 705 267 720 c 1
797 802 m 1
 806 815 l 1
 863 804 908 787 936 766 c 0
 962 747 971 727 971 705 c 0
 971 683 959 669 938 669 c 0
 919 669 908 685 888 710 c 0
 870 733 849 761 797 802 c 1
EndSplineSet
EndChar

StartChar: uni30BD.ruby
Encoding: 169 -1 169
Width: 1000
Flags: W
AnchorPoint: "dot" 500 2 basechar 0
AnchorPoint: "overline" 500 800 basechar 0
LayerCount: 2
Fore
SplineSet
818 544 m 0
 701 280 500 62 188 -42 c 1
 175 -23 l 1
 504 164 697 489 712 644 c 0
 715 667 696 683 633 706 c 1
 636 723 l 1
 660 731 697 741 723 740 c 0
 776 737 870 665 870 620 c 0
 870 594 834 582 818 544 c 0
242 530 m 0
 209 587 178 629 137 672 c 1
 148 687 l 1
 279 650 410 573 411 470 c 0
 411 430 382 398 348 398 c 0
 299 398 284 460 242 530 c 0
EndSplineSet
EndChar

StartChar: uni30BE.ruby
Encoding: 170 -1 170
Width: 1000
Flags: W
HStem: 843 13<812.154 815.245>
AnchorPoint: "dot" 500 2 basechar 0
AnchorPoint: "overline" 500 800 basechar 0
LayerCount: 2
Fore
SplineSet
850 638 m 0
 834 638 821 653 805 677 c 0
 786 704 761 739 714 779 c 1
 724 793 l 1
 780 778 827 760 858 731 c 0
 880 712 887 695 887 675 c 0
 887 654 872 638 850 638 c 0
950 710 m 0
 930 710 919 726 900 751 c 0
 882 774 861 803 808 843 c 1
 817 856 l 1
 874 844 920 828 948 807 c 0
 973 788 983 768 983 745 c 0
 983 724 971 710 950 710 c 0
775 491 m 0
 657 226 469 39 156 -65 c 1
 144 -47 l 1
 473 141 654 436 669 591 c 0
 671 612 656 628 591 652 c 1
 593 669 l 1
 617 677 654 688 680 686 c 0
 733 684 827 612 827 566 c 0
 827 541 791 528 775 491 c 0
211 507 m 0
 178 564 147 606 105 649 c 1
 117 664 l 1
 248 626 379 549 380 446 c 0
 380 407 351 375 316 375 c 0
 268 375 253 438 211 507 c 0
EndSplineSet
EndChar

StartChar: uni30BF.ruby
Encoding: 171 -1 171
Width: 1000
Flags: W
HStem: -61 19<114.947 123.603> 597 98<679.5 767.5>
VStem: 407 159<686.578 750.48>
AnchorPoint: "dot" 500 2 basechar 0
AnchorPoint: "overline" 500 800 basechar 0
LayerCount: 2
Fore
SplineSet
705 578 m 0
 710 592 705 597 692 597 c 0
 667 596 590 580 561 570 c 0
 540 564 524 557 505 557 c 0
 495 557 482 565 467 576 c 1
 435 536 399 495 360 457 c 1
 425 439 516 410 589 372 c 1
 640 442 679 513 705 578 c 0
351 775 m 1
 353 789 l 1
 373 794 391 797 423 795 c 0
 490 792 566 751 566 725 c 0
 566 704 553 699 536 673 c 0
 528 660 519 647 510 634 c 1
 554 637 663 654 688 662 c 0
 713 670 730 695 753 695 c 0
 782 695 876 635 876 594 c 0
 876 569 835 556 822 532 c 0
 777 454 730 382 677 317 c 1
 728 278 767 234 769 185 c 0
 770 148 746 123 713 123 c 0
 670 121 657 155 599 230 c 1
 476 104 323 6 119 -61 c 1
 108 -42 l 1
 275 42 424 170 536 304 c 1
 476 366 413 402 340 437 c 1
 271 373 193 315 110 275 c 1
 97 292 l 1
 251 422 407 651 407 715 c 0
 407 734 383 757 351 775 c 1
EndSplineSet
EndChar

StartChar: uni30C0.ruby
Encoding: 172 -1 172
Width: 1000
Flags: W
HStem: -81 19<99.9474 108.603> 577 98<664.5 752.5>
VStem: 392 159<666.578 730.48>
AnchorPoint: "dot" 500 2 basechar 0
AnchorPoint: "overline" 500 800 basechar 0
LayerCount: 2
Fore
SplineSet
690 558 m 0
 695 572 690 577 677 577 c 0
 652 576 575 560 546 550 c 0
 525 544 509 537 490 537 c 0
 480 537 467 545 452 556 c 1
 420 516 384 475 345 437 c 1
 410 419 501 390 574 352 c 1
 625 422 664 493 690 558 c 0
336 755 m 1
 338 769 l 1
 358 774 376 777 408 775 c 0
 475 772 551 731 551 705 c 0
 551 684 538 679 521 653 c 0
 513 640 504 627 495 614 c 1
 539 617 648 634 673 642 c 0
 698 650 715 675 738 675 c 0
 767 675 861 615 861 574 c 0
 861 549 820 536 807 512 c 0
 762 434 715 362 662 297 c 1
 713 258 752 214 754 165 c 0
 755 128 731 103 698 103 c 0
 655 101 642 135 584 210 c 1
 461 84 308 -14 104 -81 c 1
 93 -62 l 1
 260 22 409 150 521 284 c 1
 461 346 398 382 325 417 c 1
 256 353 178 295 95 255 c 1
 82 272 l 1
 236 402 392 631 392 695 c 0
 392 714 368 737 336 755 c 1
734 777 m 1
 744 790 l 1
 795 776 841 761 871 735 c 0
 893 715 901 699 902 677 c 0
 904 658 890 644 868 642 c 0
 853 642 838 655 821 677 c 0
 801 704 781 735 734 777 c 1
821 837 m 1
 831 851 l 1
 889 838 926 828 956 808 c 0
 981 790 993 771 994 747 c 0
 995 725 981 711 961 710 c 0
 942 710 929 726 910 749 c 0
 891 772 874 795 821 837 c 1
EndSplineSet
EndChar

StartChar: uni30C1.ruby
Encoding: 173 -1 173
Width: 1000
Flags: W
HStem: 319 106<141.195 263.453> 400 101<694.42 885.972> 566 22<171 205.084>
VStem: 475 116<284.861 382 468 548.842> 477 135<470.358 572.907>
AnchorPoint: "dot" 500 2 basechar 0
AnchorPoint: "overline" 500 800 basechar 0
LayerCount: 2
Fore
SplineSet
576 791 m 1xb0
 586 803 l 1
 645 795 674 782 703 762 c 0
 729 743 760 710 760 686 c 0
 760 661 718 665 692 656 c 0
 635 635 593 621 545 610 c 1
 585 591 612 564 612 550 c 0
 612 525 597 519 594 468 c 1
 642 473 680 477 708 481 c 0
 771 490 788 501 800 501 c 0
 861 501 926 471 926 431 c 0
 926 399 909 389 885 389 c 0
 861 389 808 400 751 400 c 0x68
 700 400 645 398 591 394 c 1
 570 170 447 18 202 -66 c 1
 192 -49 l 1
 376 65 461 197 475 382 c 1
 398 372 302 353 268 342 c 0
 240 332 218 319 189 319 c 0xb0
 154 319 107 368 92 400 c 0x70
 86 415 81 438 80 465 c 1
 95 471 l 1
 126 437 145 425 173 425 c 0
 243 425 394 444 477 454 c 1xa8
 477 518 470 563 442 590 c 1
 379 580 284 568 171 566 c 1
 166 588 l 1
 329 626 546 696 591 731 c 0
 611 746 611 759 576 791 c 1xb0
EndSplineSet
EndChar

StartChar: uni30C2.ruby
Encoding: 174 -1 174
Width: 1000
Flags: W
HStem: 318 106<125.195 247.453> 399 101<678.42 869.972> 565 22<155 189.084> 714 14<817.5 820.645>
VStem: 459 116<283.861 381 467 547.842> 461 135<469.358 571.907>
AnchorPoint: "dot" 500 2 basechar 0
AnchorPoint: "overline" 500 800 basechar 0
LayerCount: 2
Fore
SplineSet
560 790 m 1xb8
 570 802 l 1
 629 794 658 781 687 761 c 0
 713 742 744 709 744 685 c 0
 744 660 702 664 676 655 c 0
 619 634 577 620 529 609 c 1
 569 590 596 563 596 549 c 0
 596 524 581 518 578 467 c 1
 626 472 664 476 692 480 c 0
 755 489 772 500 784 500 c 0
 845 500 910 470 910 430 c 0
 910 398 893 388 869 388 c 0
 845 388 792 399 735 399 c 0x74
 684 399 629 397 575 393 c 1
 554 169 431 17 186 -67 c 1
 176 -50 l 1
 360 64 445 196 459 381 c 1
 382 371 286 352 252 341 c 0
 224 331 202 318 173 318 c 0xb8
 138 318 91 367 76 399 c 0x78
 70 414 65 437 64 464 c 1
 79 470 l 1
 110 436 129 424 157 424 c 0
 227 424 378 443 461 453 c 1xb4
 461 517 454 562 426 589 c 1
 363 579 268 567 155 565 c 1
 150 587 l 1
 313 625 530 695 575 730 c 0
 595 745 595 758 560 790 c 1xb8
735 645 m 1
 744 659 l 1
 794 647 838 631 866 608 c 0
 888 590 896 572 896 551 c 0
 896 533 882 518 864 518 c 0
 846 518 834 529 817 551 c 0
 799 576 778 607 735 645 c 1
813 714 m 1
 822 728 l 1
 874 716 909 704 938 686 c 0
 962 670 976 651 976 629 c 0
 976 612 967 595 944 595 c 0
 925 595 916 608 897 631 c 0
 877 655 855 679 813 714 c 1
EndSplineSet
EndChar

StartChar: uni30C3.ruby
Encoding: 175 -1 175
Width: 1000
Flags: W
HStem: -54 15<248.8 255.399>
VStem: 250 124<306.97 375.501> 423 118<358.604 442.345> 680 127<393.168 474.978>
AnchorPoint: "dot" 500 2 basechar 0
AnchorPoint: "overline" 500 800 basechar 0
LayerCount: 2
Fore
SplineSet
423 425 m 0
 411 453 387 499 370 517 c 1
 379 528 l 1
 410 518 435 510 463 493 c 0
 510 465 541 427 541 374 c 0
 541 340 515 322 489 322 c 0
 442 322 447 366 423 425 c 0
770 369 m 0
 685 193 508 13 253 -54 c 1
 244 -39 l 1
 488 81 680 358 680 461 c 0
 680 480 660 496 631 511 c 1
 632 523 l 1
 647 526 671 530 689 530 c 0
 740 529 807 469 807 430 c 0
 807 410 781 392 770 369 c 0
250 364 m 0
 233 406 215 436 196 460 c 1
 206 471 l 1
 236 462 266 447 283 436 c 0
 340 405 374 360 374 311 c 0
 374 282 356 260 321 260 c 0
 277 260 275 309 250 364 c 0
EndSplineSet
EndChar

StartChar: uni30C4.ruby
Encoding: 176 -1 176
Width: 1000
Flags: W
HStem: -43 20<186.8 194.443>
VStem: 406 142<519.635 586.437> 742 151<550.739 637.421>
AnchorPoint: "dot" 500 2 basechar 0
AnchorPoint: "overline" 500 800 basechar 0
LayerCount: 2
Fore
SplineSet
406 580 m 0
 390 617 360 671 336 697 c 1
 350 711 l 1
 390 696 421 681 456 657 c 0
 512 621 548 572 548 511 c 0
 548 470 518 449 487 449 c 0
 433 449 438 506 406 580 c 0
842 516 m 0
 733 293 522 56 191 -43 c 1
 179 -23 l 1
 510 146 742 522 742 626 c 0
 742 649 716 668 670 686 c 1
 674 703 l 1
 696 710 725 713 752 711 c 0
 814 708 893 634 893 588 c 0
 893 559 858 547 842 516 c 0
177 502 m 0
 155 553 131 593 106 623 c 1
 120 638 l 1
 158 625 196 602 220 585 c 0
 287 543 326 487 326 429 c 0
 326 395 306 369 265 369 c 0
 214 369 211 430 177 502 c 0
EndSplineSet
EndChar

StartChar: uni30C5.ruby
Encoding: 177 -1 177
Width: 1000
Flags: W
HStem: -65 19<146.947 155.394> 843 13<812.154 815.239>
VStem: 368 144<499.863 567.773> 698 150<509.485 595.421>
AnchorPoint: "dot" 500 2 basechar 0
AnchorPoint: "overline" 500 800 basechar 0
LayerCount: 2
Fore
SplineSet
850 639 m 0
 834 639 821 653 805 677 c 0
 786 704 761 740 714 779 c 1
 724 793 l 1
 780 778 827 760 858 731 c 0
 879 712 887 695 887 675 c 0
 887 654 872 639 850 639 c 0
950 710 m 0
 930 710 919 726 900 751 c 0
 881 774 861 803 808 843 c 1
 817 856 l 1
 874 845 919 828 947 808 c 0
 973 788 983 768 983 746 c 0
 983 724 971 710 950 710 c 0
368 560 m 0
 352 598 322 652 298 679 c 1
 312 694 l 1
 352 678 383 663 419 639 c 0
 476 602 512 554 512 491 c 0
 512 449 482 428 451 428 c 0
 396 428 401 487 368 560 c 0
133 492 m 0
 110 543 86 584 62 615 c 1
 76 630 l 1
 113 616 153 593 176 576 c 0
 244 533 283 477 283 419 c 0
 283 385 264 358 222 358 c 0
 170 358 167 419 133 492 c 0
798 474 m 0
 687 252 481 34 151 -65 c 1
 140 -46 l 1
 470 123 698 480 698 584 c 0
 698 607 672 626 625 644 c 1
 629 661 l 1
 652 668 680 671 707 669 c 0
 769 666 848 592 848 546 c 0
 848 517 813 505 798 474 c 0
EndSplineSet
EndChar

StartChar: uni30C6.ruby
Encoding: 178 -1 178
Width: 1000
Flags: W
HStem: 370 110<167.364 290.156> 456 103<681.241 882.786> 623 88<316.797 526.89>
VStem: 493 144<341.293 418.54>
AnchorPoint: "dot" 500 2 basechar 0
AnchorPoint: "overline" 500 800 basechar 0
LayerCount: 2
Fore
SplineSet
254 731 m 1x30
 264 740 l 1
 305 715 340 711 373 711 c 0
 446 711 523 731 565 742 c 0
 614 755 629 769 643 769 c 0
 709 769 751 748 751 708 c 0
 751 688 742 675 710 668 c 0
 630 650 469 623 385 623 c 0
 322 623 290 660 254 731 c 1x30
113 518 m 1
 125 523 l 1
 151 499 169 480 200 480 c 0xb0
 268 480 561 524 696 539 c 0
 764 547 785 559 795 559 c 0
 858 559 925 526 925 486 c 0
 925 453 910 445 883 445 c 0
 861 445 810 456 753 456 c 0x70
 709 456 645 453 577 446 c 1
 613 424 637 403 637 381 c 0
 637 356 612 345 589 296 c 0
 539 182 439 31 214 -65 c 1
 199 -47 l 1
 417 102 493 323 493 401 c 0
 493 412 491 424 485 435 c 1
 418 425 346 409 314 399 c 0
 280 388 244 371 215 370 c 0xb0
 181 370 131 418 119 452 c 0
 112 470 111 494 113 518 c 1
EndSplineSet
EndChar

StartChar: uni30C7.ruby
Encoding: 179 -1 179
Width: 1000
Flags: W
HStem: 357 110<156.364 279.156> 443 103<670.241 871.786> 610 88<305.797 515.89> 795 14<838.5 841.634>
VStem: 482 144<328.293 405.54>
AnchorPoint: "dot" 500 2 basechar 0
AnchorPoint: "overline" 500 800 basechar 0
LayerCount: 2
Fore
SplineSet
243 718 m 1x38
 253 727 l 1
 294 702 329 698 362 698 c 0
 435 698 512 718 554 729 c 0
 603 742 618 756 632 756 c 0
 698 756 740 735 740 695 c 0
 740 675 731 662 699 655 c 0
 619 637 458 610 374 610 c 0
 311 610 279 647 243 718 c 1x38
102 505 m 1
 114 510 l 1
 140 486 158 467 189 467 c 0xb8
 257 467 550 511 685 526 c 0
 753 534 774 546 784 546 c 0
 847 546 914 513 914 473 c 0
 914 440 899 432 872 432 c 0
 850 432 799 443 742 443 c 0x78
 698 443 634 440 566 433 c 1
 602 411 626 390 626 368 c 0
 626 343 601 332 578 283 c 0
 528 169 428 18 203 -78 c 1
 188 -60 l 1
 406 89 482 310 482 388 c 0
 482 399 480 411 474 422 c 1
 407 412 335 396 303 386 c 0
 269 375 233 358 204 357 c 0xb8
 170 357 120 405 108 439 c 0
 101 457 100 481 102 505 c 1
757 714 m 1
 767 727 l 1
 817 713 861 695 889 671 c 0
 910 653 919 637 919 615 c 0
 919 597 903 581 885 581 c 0
 867 581 859 595 843 617 c 0
 824 643 802 678 757 714 c 1
834 795 m 1
 843 809 l 1
 895 796 933 781 959 764 c 0
 984 746 996 726 996 704 c 0
 996 686 987 668 964 668 c 0
 944 668 936 682 918 706 c 0
 897 733 876 764 834 795 c 1
EndSplineSet
EndChar

StartChar: uni30C8.ruby
Encoding: 180 -1 180
Width: 1000
Flags: W
HStem: 745 45<304.225 349.419>
VStem: 355 131<-16.3776 329.895> 378 104<171.023 441 478.752 667.447>
AnchorPoint: "dot" 500 2 basechar 0
AnchorPoint: "overline" 500 800 basechar 0
LayerCount: 2
Fore
SplineSet
289 745 m 1xa0
 288 761 l 1
 316 774 349 790 379 790 c 0
 429 790 518 741 518 708 c 0
 518 679 496 669 491 632 c 0
 485 593 483 539 482 481 c 1
 582 470 675 443 731 410 c 0
 775 384 804 354 804 301 c 0
 804 269 782 240 746 240 c 0
 682 240 678 295 601 366 c 0
 570 392 534 416 481 441 c 1
 478 335 479 207 482 121 c 0xa0
 484 70 486 36 486 22 c 0
 486 -30 475 -51 435 -51 c 0
 383 -51 355 3 355 77 c 0xc0
 355 104 364 127 369 171 c 0
 377 246 378 380 378 440 c 0
 378 523 375 649 367 694 c 0
 361 727 330 738 289 745 c 1xa0
EndSplineSet
EndChar

StartChar: uni30C9.ruby
Encoding: 181 -1 181
Width: 1000
Flags: W
HStem: 744 45<297.225 342.419> 757 13<701.154 704.111>
VStem: 348 131<-17.3776 328.895> 371 104<170.023 440 477.752 666.447>
AnchorPoint: "dot" 500 2 basechar 0
AnchorPoint: "overline" 500 800 basechar 0
LayerCount: 2
Fore
SplineSet
606 676 m 1x00
 616 689 l 1
 672 674 719 657 750 629 c 0
 772 609 779 591 779 572 c 0
 779 551 764 535 742 535 c 0
 726 535 714 550 696 573 c 0
 677 601 654 636 606 676 c 1x00
282 744 m 1x90
 281 760 l 1
 309 773 342 789 372 789 c 0
 422 789 511 740 511 707 c 0
 511 678 489 668 484 631 c 0
 478 592 476 538 475 480 c 1
 575 469 668 442 724 409 c 0
 768 383 797 353 797 300 c 0
 797 268 775 239 739 239 c 0
 675 239 671 294 594 365 c 0
 563 391 527 415 474 440 c 1
 471 334 472 206 475 120 c 0x90
 477 69 479 35 479 21 c 0
 479 -31 468 -52 428 -52 c 0
 376 -52 348 2 348 76 c 0xa0
 348 103 357 126 362 170 c 0
 370 245 371 379 371 439 c 0
 371 522 368 648 360 693 c 0
 354 726 323 737 282 744 c 1x90
697 757 m 1x40
 706 770 l 1
 763 759 808 742 836 721 c 0
 862 702 871 682 871 659 c 0
 871 638 859 625 838 625 c 0
 819 625 807 640 788 665 c 0
 770 688 749 717 697 757 c 1x40
EndSplineSet
EndChar

StartChar: uni30CA.ruby
Encoding: 182 -1 182
Width: 1000
Flags: W
HStem: 372 110<152.927 267.581> 446 122<719.873 879.224> 734 55<420.44 451.057>
VStem: 474 110<319.36 439 529 677.708>
AnchorPoint: "dot" 500 2 basechar 0
AnchorPoint: "overline" 500 800 basechar 0
LayerCount: 2
Fore
SplineSet
392 734 m 1xb0
 391 749 l 1
 413 764 453 789 484 789 c 0
 543 789 619 744 619 713 c 0
 619 686 599 684 595 644 c 0
 592 608 591 567 589 529 c 1
 770 553 780 568 800 568 c 0
 841 568 933 532 933 491 c 0
 933 457 909 446 883 446 c 0x70
 842 446 740 459 584 450 c 1
 563 198 452 34 204 -59 c 1
 192 -41 l 1
 367 75 460 233 474 439 c 1
 403 428 326 411 286 400 c 0
 256 391 233 372 202 372 c 0
 167 372 103 430 90 465 c 0
 85 478 82 496 81 522 c 1
 94 527 l 1
 119 501 140 482 174 482 c 0
 214 482 362 500 476 515 c 1
 477 578 477 650 470 687 c 0
 466 714 425 726 392 734 c 1xb0
EndSplineSet
EndChar

StartChar: uni30CB.ruby
Encoding: 183 -1 183
Width: 1000
Flags: W
HStem: 92 124<148.393 277.114> 161 118<579.5 825.541> 469 100<286.177 537.588>
AnchorPoint: "dot" 500 2 basechar 0
AnchorPoint: "overline" 500 800 basechar 0
LayerCount: 2
Fore
SplineSet
784 559 m 0x20
 784 535 768 513 736 511 c 0
 608 500 380 469 334 469 c 0
 305 469 267 503 248 533 c 0
 233 558 224 583 218 609 c 1
 232 617 l 1
 268 588 300 569 343 569 c 0
 398 569 485 580 541 591 c 0
 611 605 634 630 647 630 c 0
 703 630 784 596 784 559 c 0x20
85 188 m 0
 77 206 74 224 74 256 c 1
 89 262 l 1
 117 234 146 216 185 216 c 0xa0
 250 216 566 250 705 261 c 0
 762 266 775 279 792 279 c 0
 844 279 943 216 943 175 c 0
 943 148 925 127 896 127 c 0
 857 127 775 161 630 161 c 0x60
 529 161 394 145 308 122 c 0
 260 109 223 92 196 92 c 0xa0
 156 92 98 157 85 188 c 0
EndSplineSet
EndChar

StartChar: uni30CC.ruby
Encoding: 184 -1 184
Width: 1000
Flags: W
HStem: -33 22<85.8182 96.7596> 440 22<292.5 304.067> 541 114<262.744 371.167> 625 103<653.835 717.5>
AnchorPoint: "dot" 500 2 basechar 0
AnchorPoint: "overline" 500 800 basechar 0
LayerCount: 2
Fore
SplineSet
199 698 m 1xe0
 216 705 l 1
 237 675 270 655 299 655 c 0xe0
 357 654 563 687 630 698 c 0
 661 703 673 728 697 728 c 0
 738 728 839 655 839 612 c 0
 839 580 796 566 776 530 c 0
 744 473 700 403 647 334 c 1
 714 295 772 244 803 202 c 0
 824 173 836 143 836 109 c 0
 836 74 810 51 779 51 c 0
 747 51 729 68 696 111 c 0
 662 156 629 193 572 245 c 1
 476 146 317 39 89 -33 c 1
 79 -11 l 1
 270 84 411 203 497 307 c 1
 441 351 367 400 285 440 c 1
 296 462 l 1
 393 440 484 411 553 382 c 1
 610 466 655 559 670 613 c 0
 672 621 670 625 662 625 c 0xd0
 613 624 433 583 397 572 c 0
 364 561 347 541 320 541 c 0
 276 541 216 591 204 633 c 0
 198 655 197 668 199 698 c 1xe0
EndSplineSet
EndChar

StartChar: uni30CD.ruby
Encoding: 185 -1 185
Width: 1000
Flags: W
HStem: 62 20<65.15 67.8188> 334 16<620 627.006> 440 115<238.907 332.389>
VStem: 449 122<-34.8689 192.245> 473 98<51.06 274>
AnchorPoint: "dot" 500 2 basechar 0
AnchorPoint: "overline" 500 800 basechar 0
LayerCount: 2
Fore
SplineSet
362 808 m 1xe0
 371 822 l 1
 488 815 610 782 610 702 c 0
 610 669 585 642 547 642 c 0
 511 642 502 665 471 710 c 0
 447 744 410 775 362 808 c 1xe0
184 598 m 1
 198 603 l 1
 221 575 243 555 272 555 c 0
 329 555 517 587 585 603 c 0
 624 612 630 636 651 636 c 0
 687 636 770 579 770 548 c 0
 770 521 718 510 705 494 c 0
 665 444 611 389 548 335 c 1
 561 323 571 309 571 295 c 0xe8
 571 271 565 234 565 108 c 0
 565 70 571 24 571 3 c 0
 571 -28 566 -65 517 -65 c 0
 478 -65 449 -8 449 28 c 0xf0
 449 48 453 59 460 95 c 0
 466 122 473 198 473 255 c 0
 473 262 473 268 473 274 c 1xe8
 357 187 218 108 69 62 c 1
 58 82 l 1
 267 193 507 389 579 516 c 0
 586 529 585 533 572 532 c 0
 543 531 415 496 365 479 c 0
 331 467 320 440 292 440 c 0
 258 440 205 479 190 521 c 0
 184 539 182 569 184 598 c 1
613 334 m 1
 620 350 l 1
 782 346 911 284 911 177 c 0
 911 147 887 123 856 123 c 0
 831 123 815 131 785 175 c 0
 729 252 690 295 613 334 c 1
EndSplineSet
EndChar

StartChar: uni30CE.ruby
Encoding: 186 -1 186
Width: 1000
Flags: W
VStem: 629 172<568.731 651.465>
AnchorPoint: "dot" 500 2 basechar 0
AnchorPoint: "overline" 500 800 basechar 0
LayerCount: 2
Fore
SplineSet
629 632 m 0
 629 665 617 682 559 716 c 1
 563 734 l 1
 599 738 640 738 675 726 c 0
 734 705 801 645 801 606 c 0
 801 571 762 566 744 530 c 0
 631 307 427 74 130 -44 c 1
 118 -24 l 1
 352 135 540 393 608 556 c 0
 622 588 629 613 629 632 c 0
EndSplineSet
EndChar

